<svg xmlns="http://www.w3.org/2000/svg" xmlns:xlink="http://www.w3.org/1999/xlink" contentStyleType="text/css" height="1558px" preserveAspectRatio="none" style="width:1896px;height:1558px;background:#FFFFFF;" version="1.1" viewBox="0 0 1896 1558" width="1896px" zoomAndPan="magnify"><title>Domain Model</title><defs/><g><text fill="#000000" font-family="sans-serif" font-size="14" font-weight="bold" lengthAdjust="spacing" textLength="95.6689" x="893.1655" y="24.5332">Domain Model</text><!--cluster systemUser--><g id="cluster_systemUser"><path d="M18.5,165.5039 L132.9082,165.5039 A3.75,3.75 0 0 1 135.4082,168.0039 L142.4082,196.6602 L380,196.6602 A2.5,2.5 0 0 1 382.5,199.1602 L382.5,673.0039 A2.5,2.5 0 0 1 380,675.5039 L18.5,675.5039 A2.5,2.5 0 0 1 16,673.0039 L16,168.0039 A2.5,2.5 0 0 1 18.5,165.5039 " fill="none" style="stroke:#000000;stroke-width:1.5;"/><line style="stroke:#000000;stroke-width:1.5;" x1="16" x2="142.4082" y1="196.6602" y2="196.6602"/><text fill="#000000" font-family="sans-serif" font-size="20" font-weight="bold" lengthAdjust="spacing" textLength="113.4082" x="20" y="188.2656">systemUser</text></g><!--cluster admin--><g id="cluster_admin"><path d="M11,45.5039 L70.8965,45.5039 A3.75,3.75 0 0 1 73.3965,48.0039 L80.3965,76.6602 L129,76.6602 A2.5,2.5 0 0 1 131.5,79.1602 L131.5,139.0039 A2.5,2.5 0 0 1 129,141.5039 L11,141.5039 A2.5,2.5 0 0 1 8.5,139.0039 L8.5,48.0039 A2.5,2.5 0 0 1 11,45.5039 " fill="none" style="stroke:#000000;stroke-width:1.5;"/><line style="stroke:#000000;stroke-width:1.5;" x1="8.5" x2="80.3965" y1="76.6602" y2="76.6602"/><text fill="#000000" font-family="sans-serif" font-size="20" font-weight="bold" lengthAdjust="spacing" textLength="58.8965" x="12.5" y="68.2656">admin</text></g><!--cluster staff--><g id="cluster_staff"><path d="M958.5,551.5039 L1001.7266,551.5039 A3.75,3.75 0 0 1 1004.2266,554.0039 L1011.2266,582.6602 L1355.5,582.6602 A2.5,2.5 0 0 1 1358,585.1602 L1358,785.0039 A2.5,2.5 0 0 1 1355.5,787.5039 L958.5,787.5039 A2.5,2.5 0 0 1 956,785.0039 L956,554.0039 A2.5,2.5 0 0 1 958.5,551.5039 " fill="none" style="stroke:#000000;stroke-width:1.5;"/><line style="stroke:#000000;stroke-width:1.5;" x1="956" x2="1011.2266" y1="582.6602" y2="582.6602"/><text fill="#000000" font-family="sans-serif" font-size="20" font-weight="bold" lengthAdjust="spacing" textLength="42.2266" x="960" y="574.2656">staff</text></g><!--cluster doctor--><g id="cluster_doctor"><path d="M1756.5,397.5039 L1819.7168,397.5039 A3.75,3.75 0 0 1 1822.2168,400.0039 L1829.2168,428.6602 L1876.5,428.6602 A2.5,2.5 0 0 1 1879,431.1602 L1879,491.0039 A2.5,2.5 0 0 1 1876.5,493.5039 L1756.5,493.5039 A2.5,2.5 0 0 1 1754,491.0039 L1754,400.0039 A2.5,2.5 0 0 1 1756.5,397.5039 " fill="none" style="stroke:#000000;stroke-width:1.5;"/><line style="stroke:#000000;stroke-width:1.5;" x1="1754" x2="1829.2168" y1="428.6602" y2="428.6602"/><text fill="#000000" font-family="sans-serif" font-size="20" font-weight="bold" lengthAdjust="spacing" textLength="62.2168" x="1758" y="420.2656">doctor</text></g><!--cluster nurse--><g id="cluster_nurse"><path d="M952.5,193.5039 L1007.9629,193.5039 A3.75,3.75 0 0 1 1010.4629,196.0039 L1017.4629,224.6602 L1066.5,224.6602 A2.5,2.5 0 0 1 1069,227.1602 L1069,287.0039 A2.5,2.5 0 0 1 1066.5,289.5039 L952.5,289.5039 A2.5,2.5 0 0 1 950,287.0039 L950,196.0039 A2.5,2.5 0 0 1 952.5,193.5039 " fill="none" style="stroke:#000000;stroke-width:1.5;"/><line style="stroke:#000000;stroke-width:1.5;" x1="950" x2="1017.4629" y1="224.6602" y2="224.6602"/><text fill="#000000" font-family="sans-serif" font-size="20" font-weight="bold" lengthAdjust="spacing" textLength="54.4629" x="954" y="216.2656">nurse</text></g><!--cluster technician--><g id="cluster_technician"><path d="M1176,431.5039 L1275.916,431.5039 A3.75,3.75 0 0 1 1278.416,434.0039 L1285.416,462.6602 L1334,462.6602 A2.5,2.5 0 0 1 1336.5,465.1602 L1336.5,525.0039 A2.5,2.5 0 0 1 1334,527.5039 L1176,527.5039 A2.5,2.5 0 0 1 1173.5,525.0039 L1173.5,434.0039 A2.5,2.5 0 0 1 1176,431.5039 " fill="none" style="stroke:#000000;stroke-width:1.5;"/><line style="stroke:#000000;stroke-width:1.5;" x1="1173.5" x2="1285.416" y1="462.6602" y2="462.6602"/><text fill="#000000" font-family="sans-serif" font-size="20" font-weight="bold" lengthAdjust="spacing" textLength="98.916" x="1177.5" y="454.2656">technician</text></g><!--cluster patient--><g id="cluster_patient"><path d="M8.5,833.5039 L75.0566,833.5039 A3.75,3.75 0 0 1 77.5566,836.0039 L84.5566,864.6602 L441.5,864.6602 A2.5,2.5 0 0 1 444,867.1602 L444,1277.0039 A2.5,2.5 0 0 1 441.5,1279.5039 L8.5,1279.5039 A2.5,2.5 0 0 1 6,1277.0039 L6,836.0039 A2.5,2.5 0 0 1 8.5,833.5039 " fill="none" style="stroke:#000000;stroke-width:1.5;"/><line style="stroke:#000000;stroke-width:1.5;" x1="6" x2="84.5566" y1="864.6602" y2="864.6602"/><text fill="#000000" font-family="sans-serif" font-size="20" font-weight="bold" lengthAdjust="spacing" textLength="65.5566" x="10" y="856.2656">patient</text></g><!--cluster operation request--><g id="cluster_operation request"><path d="M1412.5,653.5039 L1582.416,653.5039 A3.75,3.75 0 0 1 1584.916,656.0039 L1591.916,684.6602 L1886.5,684.6602 A2.5,2.5 0 0 1 1889,687.1602 L1889,817.0039 A2.5,2.5 0 0 1 1886.5,819.5039 L1412.5,819.5039 A2.5,2.5 0 0 1 1410,817.0039 L1410,656.0039 A2.5,2.5 0 0 1 1412.5,653.5039 " fill="none" style="stroke:#000000;stroke-width:1.5;"/><line style="stroke:#000000;stroke-width:1.5;" x1="1410" x2="1591.916" y1="684.6602" y2="684.6602"/><text fill="#000000" font-family="sans-serif" font-size="20" font-weight="bold" lengthAdjust="spacing" textLength="168.916" x="1414" y="676.2656">operation request</text></g><!--cluster operation type--><g id="cluster_operation type"><path d="M479.5,336.5039 L618.293,336.5039 A3.75,3.75 0 0 1 620.793,339.0039 L627.793,367.6602 L875.5,367.6602 A2.5,2.5 0 0 1 878,370.1602 L878,570.0039 A2.5,2.5 0 0 1 875.5,572.5039 L479.5,572.5039 A2.5,2.5 0 0 1 477,570.0039 L477,339.0039 A2.5,2.5 0 0 1 479.5,336.5039 " fill="none" style="stroke:#000000;stroke-width:1.5;"/><line style="stroke:#000000;stroke-width:1.5;" x1="477" x2="627.793" y1="367.6602" y2="367.6602"/><text fill="#000000" font-family="sans-serif" font-size="20" font-weight="bold" lengthAdjust="spacing" textLength="137.793" x="481" y="359.2656">operation type</text></g><!--cluster apointment--><g id="cluster_apointment"><path d="M708.5,915.5039 L817.2734,915.5039 A3.75,3.75 0 0 1 819.7734,918.0039 L826.7734,946.6602 L1068.5,946.6602 A2.5,2.5 0 0 1 1071,949.1602 L1071,1149.0039 A2.5,2.5 0 0 1 1068.5,1151.5039 L708.5,1151.5039 A2.5,2.5 0 0 1 706,1149.0039 L706,918.0039 A2.5,2.5 0 0 1 708.5,915.5039 " fill="none" style="stroke:#000000;stroke-width:1.5;"/><line style="stroke:#000000;stroke-width:1.5;" x1="706" x2="826.7734" y1="946.6602" y2="946.6602"/><text fill="#000000" font-family="sans-serif" font-size="20" font-weight="bold" lengthAdjust="spacing" textLength="107.7734" x="710" y="938.2656">apointment</text></g><!--cluster surgery room--><g id="cluster_surgery room"><path d="M917.5,1175.5039 L1047.4258,1175.5039 A3.75,3.75 0 0 1 1049.9258,1178.0039 L1056.9258,1206.6602 L1374.5,1206.6602 A2.5,2.5 0 0 1 1377,1209.1602 L1377,1549.0039 A2.5,2.5 0 0 1 1374.5,1551.5039 L917.5,1551.5039 A2.5,2.5 0 0 1 915,1549.0039 L915,1178.0039 A2.5,2.5 0 0 1 917.5,1175.5039 " fill="none" style="stroke:#000000;stroke-width:1.5;"/><line style="stroke:#000000;stroke-width:1.5;" x1="915" x2="1056.9258" y1="1206.6602" y2="1206.6602"/><text fill="#000000" font-family="sans-serif" font-size="20" font-weight="bold" lengthAdjust="spacing" textLength="128.9258" x="919" y="1198.2656">surgery room</text></g><!--class User--><g id="elem_User"><rect codeLine="12" fill="#F1F1F1" height="35.1563" id="User" rx="2.5" ry="2.5" style="stroke:#181818;stroke-width:0.5;" width="76.2266" x="32" y="519.0039"/><ellipse cx="48" cy="536.582" fill="#ADD1B2" rx="12" ry="12" style="stroke:#181818;stroke-width:1.0;"/><path d="M45.9531,537.6445 L45.9531,540.582 L51.0469,540.582 L51.0469,539.4883 Q51.0469,538.7695 51.3281,538.4727 Q51.6094,538.1602 52.0625,538.1602 Q52.5,538.1602 52.7813,538.4727 Q53.0625,538.7695 53.0625,539.4883 L53.0625,542.582 L43.625,542.582 Q42.9063,542.582 42.5938,542.3008 Q42.2969,542.0195 42.2969,541.582 Q42.2969,541.1289 42.6094,540.8633 Q42.9219,540.582 43.625,540.582 L43.9375,540.582 L43.9375,532.7539 L43.625,532.7539 Q42.9063,532.7539 42.5938,532.4727 Q42.2969,532.1914 42.2969,531.7383 Q42.2969,531.2852 42.5938,531.0195 Q42.9063,530.7383 43.625,530.7383 L52.6094,530.7383 L52.6094,533.7852 Q52.6094,534.5039 52.3281,534.8164 Q52.0625,535.1133 51.625,535.1133 Q51.1719,535.1133 50.8906,534.8164 Q50.6094,534.5195 50.6094,533.7852 L50.6094,532.7539 L45.9531,532.7539 L45.9531,535.6445 L47.7031,535.6445 Q47.7031,534.8633 47.8438,534.6289 Q48.1563,534.1602 48.7031,534.1602 Q49.1563,534.1602 49.4219,534.4727 Q49.7031,534.7695 49.7031,535.4883 L49.7031,537.8008 Q49.7031,538.457 49.5469,538.6758 Q49.2344,539.1289 48.7031,539.1289 Q48.1563,539.1289 47.8438,538.6602 Q47.7031,538.4258 47.7031,537.6445 L45.9531,537.6445 Z " fill="#000000"/><text fill="#000000" font-family="sans-serif" font-size="20" lengthAdjust="spacing" textLength="42.2266" x="63" y="544.7656">User</text></g><!--class FullName--><g id="elem_FullName"><rect codeLine="14" fill="#F1F1F1" height="35.1563" id="FullName" rx="2.5" ry="2.5" style="stroke:#181818;stroke-width:0.5;" width="119.5762" x="243.5" y="210.0039"/><ellipse cx="259.5" cy="227.582" fill="#ADD8E6" rx="12" ry="12" style="stroke:#181818;stroke-width:1.0;"/><path d="M260,231.6602 L262.8906,224.7539 L262.4375,224.7539 Q261.7188,224.7539 261.4063,224.4727 Q261.0938,224.1914 261.0938,223.7383 Q261.0938,223.2852 261.4063,223.0195 Q261.7188,222.7383 262.4375,222.7383 L265.125,222.7383 Q265.8438,222.7383 266.1563,223.0195 Q266.4688,223.2852 266.4688,223.7383 Q266.4688,224.2852 266,224.5977 Q265.7656,224.7539 265.0781,224.7539 L260.9688,234.582 L259.0469,234.582 L254.9375,224.7539 Q254.2344,224.7539 254.0156,224.5977 Q253.5469,224.2852 253.5469,223.7383 Q253.5469,223.2852 253.8594,223.0195 Q254.1563,222.7383 254.875,222.7383 L257.5781,222.7383 Q258.2969,222.7383 258.5938,223.0195 Q258.9063,223.2852 258.9063,223.7383 Q258.9063,224.1914 258.6094,224.4727 Q258.3125,224.7539 257.5781,224.7539 L257.1094,224.7539 L260,231.6602 Z " fill="#000000"/><text fill="#000000" font-family="sans-serif" font-size="20" lengthAdjust="spacing" textLength="85.5762" x="274.5" y="235.7656">FullName</text></g><!--class Username--><g id="elem_Username"><rect codeLine="16" fill="#F1F1F1" height="35.1563" id="Username" rx="2.5" ry="2.5" style="stroke:#181818;stroke-width:0.5;" width="126.2559" x="240.5" y="624.0039"/><ellipse cx="256.5" cy="641.582" fill="#ADD8E6" rx="12" ry="12" style="stroke:#181818;stroke-width:1.0;"/><path d="M257,645.6602 L259.8906,638.7539 L259.4375,638.7539 Q258.7188,638.7539 258.4063,638.4727 Q258.0938,638.1914 258.0938,637.7383 Q258.0938,637.2852 258.4063,637.0195 Q258.7188,636.7383 259.4375,636.7383 L262.125,636.7383 Q262.8438,636.7383 263.1563,637.0195 Q263.4688,637.2852 263.4688,637.7383 Q263.4688,638.2852 263,638.5977 Q262.7656,638.7539 262.0781,638.7539 L257.9688,648.582 L256.0469,648.582 L251.9375,638.7539 Q251.2344,638.7539 251.0156,638.5977 Q250.5469,638.2852 250.5469,637.7383 Q250.5469,637.2852 250.8594,637.0195 Q251.1563,636.7383 251.875,636.7383 L254.5781,636.7383 Q255.2969,636.7383 255.5938,637.0195 Q255.9063,637.2852 255.9063,637.7383 Q255.9063,638.1914 255.6094,638.4727 Q255.3125,638.7539 254.5781,638.7539 L254.1094,638.7539 L257,645.6602 Z " fill="#000000"/><text fill="#000000" font-family="sans-serif" font-size="20" lengthAdjust="spacing" textLength="92.2559" x="271.5" y="649.7656">Username</text></g><!--class Password--><g id="elem_Password"><rect codeLine="18" fill="#F1F1F1" height="35.1563" id="Password" rx="2.5" ry="2.5" style="stroke:#181818;stroke-width:0.5;" width="121.8125" x="242.5" y="554.0039"/><ellipse cx="258.5" cy="571.582" fill="#ADD8E6" rx="12" ry="12" style="stroke:#181818;stroke-width:1.0;"/><path d="M259,575.6602 L261.8906,568.7539 L261.4375,568.7539 Q260.7188,568.7539 260.4063,568.4727 Q260.0938,568.1914 260.0938,567.7383 Q260.0938,567.2852 260.4063,567.0195 Q260.7188,566.7383 261.4375,566.7383 L264.125,566.7383 Q264.8438,566.7383 265.1563,567.0195 Q265.4688,567.2852 265.4688,567.7383 Q265.4688,568.2852 265,568.5977 Q264.7656,568.7539 264.0781,568.7539 L259.9688,578.582 L258.0469,578.582 L253.9375,568.7539 Q253.2344,568.7539 253.0156,568.5977 Q252.5469,568.2852 252.5469,567.7383 Q252.5469,567.2852 252.8594,567.0195 Q253.1563,566.7383 253.875,566.7383 L256.5781,566.7383 Q257.2969,566.7383 257.5938,567.0195 Q257.9063,567.2852 257.9063,567.7383 Q257.9063,568.1914 257.6094,568.4727 Q257.3125,568.7539 256.5781,568.7539 L256.1094,568.7539 L259,575.6602 Z " fill="#000000"/><text fill="#000000" font-family="sans-serif" font-size="20" lengthAdjust="spacing" textLength="87.8125" x="273.5" y="579.7656">Password</text></g><!--class Email--><g id="elem_Email"><rect codeLine="20" fill="#F1F1F1" height="35.1563" id="Email" rx="2.5" ry="2.5" style="stroke:#181818;stroke-width:0.5;" width="84.0098" x="261.5" y="484.0039"/><ellipse cx="277.5" cy="501.582" fill="#ADD8E6" rx="12" ry="12" style="stroke:#181818;stroke-width:1.0;"/><path d="M278,505.6602 L280.8906,498.7539 L280.4375,498.7539 Q279.7188,498.7539 279.4063,498.4727 Q279.0938,498.1914 279.0938,497.7383 Q279.0938,497.2852 279.4063,497.0195 Q279.7188,496.7383 280.4375,496.7383 L283.125,496.7383 Q283.8438,496.7383 284.1563,497.0195 Q284.4688,497.2852 284.4688,497.7383 Q284.4688,498.2852 284,498.5977 Q283.7656,498.7539 283.0781,498.7539 L278.9688,508.582 L277.0469,508.582 L272.9375,498.7539 Q272.2344,498.7539 272.0156,498.5977 Q271.5469,498.2852 271.5469,497.7383 Q271.5469,497.2852 271.8594,497.0195 Q272.1563,496.7383 272.875,496.7383 L275.5781,496.7383 Q276.2969,496.7383 276.5938,497.0195 Q276.9063,497.2852 276.9063,497.7383 Q276.9063,498.1914 276.6094,498.4727 Q276.3125,498.7539 275.5781,498.7539 L275.1094,498.7539 L278,505.6602 Z " fill="#000000"/><text fill="#000000" font-family="sans-serif" font-size="20" lengthAdjust="spacing" textLength="50.0098" x="292.5" y="509.7656">Email</text></g><!--class Role--><g id="elem_Role"><rect codeLine="22" fill="#F1F1F1" height="168.9375" id="Role" rx="2.5" ry="2.5" style="stroke:#181818;stroke-width:0.5;" width="108.7188" x="249" y="280.0039"/><ellipse cx="280.1137" cy="297.582" fill="#ADD8E6" rx="12" ry="12" style="stroke:#181818;stroke-width:1.0;"/><path d="M280.6137,301.6602 L283.5043,294.7539 L283.0512,294.7539 Q282.3324,294.7539 282.0199,294.4727 Q281.7074,294.1914 281.7074,293.7383 Q281.7074,293.2852 282.0199,293.0195 Q282.3324,292.7383 283.0512,292.7383 L285.7387,292.7383 Q286.4574,292.7383 286.7699,293.0195 Q287.0824,293.2852 287.0824,293.7383 Q287.0824,294.2852 286.6137,294.5977 Q286.3793,294.7539 285.6918,294.7539 L281.5824,304.582 L279.6605,304.582 L275.5512,294.7539 Q274.848,294.7539 274.6293,294.5977 Q274.1605,294.2852 274.1605,293.7383 Q274.1605,293.2852 274.473,293.0195 Q274.7699,292.7383 275.4887,292.7383 L278.1918,292.7383 Q278.9105,292.7383 279.2074,293.0195 Q279.5199,293.2852 279.5199,293.7383 Q279.5199,294.1914 279.223,294.4727 Q278.9262,294.7539 278.1918,294.7539 L277.723,294.7539 L280.6137,301.6602 Z " fill="#000000"/><text fill="#000000" font-family="sans-serif" font-size="20" lengthAdjust="spacing" textLength="41.1328" x="298.4723" y="305.7656">Role</text><line style="stroke:#181818;stroke-width:0.5;" x1="250" x2="356.7188" y1="315.1602" y2="315.1602"/><text fill="#000000" font-family="sans-serif" font-size="20" lengthAdjust="spacing" textLength="56.6895" x="255" y="339.9219">Admin</text><text fill="#000000" font-family="sans-serif" font-size="20" lengthAdjust="spacing" textLength="58.9063" x="255" y="365.0781">Doctor</text><text fill="#000000" font-family="sans-serif" font-size="20" lengthAdjust="spacing" textLength="62.2656" x="255" y="390.2344">Patient</text><text fill="#000000" font-family="sans-serif" font-size="20" lengthAdjust="spacing" textLength="53.3496" x="255" y="415.3906">Nurse</text><text fill="#000000" font-family="sans-serif" font-size="20" lengthAdjust="spacing" textLength="96.7188" x="255" y="440.5469">Technician</text></g><!--class Admin--><g id="elem_Admin"><rect codeLine="39" fill="#F1F1F1" height="35.1563" id="Admin" rx="2.5" ry="2.5" style="stroke:#181818;stroke-width:0.5;" width="90.6895" x="24.5" y="90.0039"/><ellipse cx="40.5" cy="107.582" fill="#ADD1B2" rx="12" ry="12" style="stroke:#181818;stroke-width:1.0;"/><path d="M38.4531,108.6445 L38.4531,111.582 L43.5469,111.582 L43.5469,110.4883 Q43.5469,109.7695 43.8281,109.4727 Q44.1094,109.1602 44.5625,109.1602 Q45,109.1602 45.2813,109.4727 Q45.5625,109.7695 45.5625,110.4883 L45.5625,113.582 L36.125,113.582 Q35.4063,113.582 35.0938,113.3008 Q34.7969,113.0195 34.7969,112.582 Q34.7969,112.1289 35.1094,111.8633 Q35.4219,111.582 36.125,111.582 L36.4375,111.582 L36.4375,103.7539 L36.125,103.7539 Q35.4063,103.7539 35.0938,103.4727 Q34.7969,103.1914 34.7969,102.7383 Q34.7969,102.2852 35.0938,102.0195 Q35.4063,101.7383 36.125,101.7383 L45.1094,101.7383 L45.1094,104.7852 Q45.1094,105.5039 44.8281,105.8164 Q44.5625,106.1133 44.125,106.1133 Q43.6719,106.1133 43.3906,105.8164 Q43.1094,105.5195 43.1094,104.7852 L43.1094,103.7539 L38.4531,103.7539 L38.4531,106.6445 L40.2031,106.6445 Q40.2031,105.8633 40.3438,105.6289 Q40.6563,105.1602 41.2031,105.1602 Q41.6563,105.1602 41.9219,105.4727 Q42.2031,105.7695 42.2031,106.4883 L42.2031,108.8008 Q42.2031,109.457 42.0469,109.6758 Q41.7344,110.1289 41.2031,110.1289 Q40.6563,110.1289 40.3438,109.6602 Q40.2031,109.4258 40.2031,108.6445 L38.4531,108.6445 Z " fill="#000000"/><text fill="#000000" font-family="sans-serif" font-size="20" lengthAdjust="spacing" textLength="56.6895" x="55.5" y="115.7656">Admin</text></g><!--class Staff--><g id="elem_Staff"><rect codeLine="44" fill="#F1F1F1" height="35.1563" id="Staff" rx="2.5" ry="2.5" style="stroke:#181818;stroke-width:0.5;" width="75.1328" x="972" y="596.0039"/><ellipse cx="988" cy="613.582" fill="#ADD1B2" rx="12" ry="12" style="stroke:#181818;stroke-width:1.0;"/><path d="M985.9531,614.6445 L985.9531,617.582 L991.0469,617.582 L991.0469,616.4883 Q991.0469,615.7695 991.3281,615.4727 Q991.6094,615.1602 992.0625,615.1602 Q992.5,615.1602 992.7813,615.4727 Q993.0625,615.7695 993.0625,616.4883 L993.0625,619.582 L983.625,619.582 Q982.9063,619.582 982.5938,619.3008 Q982.2969,619.0195 982.2969,618.582 Q982.2969,618.1289 982.6094,617.8633 Q982.9219,617.582 983.625,617.582 L983.9375,617.582 L983.9375,609.7539 L983.625,609.7539 Q982.9063,609.7539 982.5938,609.4727 Q982.2969,609.1914 982.2969,608.7383 Q982.2969,608.2852 982.5938,608.0195 Q982.9063,607.7383 983.625,607.7383 L992.6094,607.7383 L992.6094,610.7852 Q992.6094,611.5039 992.3281,611.8164 Q992.0625,612.1133 991.625,612.1133 Q991.1719,612.1133 990.8906,611.8164 Q990.6094,611.5195 990.6094,610.7852 L990.6094,609.7539 L985.9531,609.7539 L985.9531,612.6445 L987.7031,612.6445 Q987.7031,611.8633 987.8438,611.6289 Q988.1563,611.1602 988.7031,611.1602 Q989.1563,611.1602 989.4219,611.4727 Q989.7031,611.7695 989.7031,612.4883 L989.7031,614.8008 Q989.7031,615.457 989.5469,615.6758 Q989.2344,616.1289 988.7031,616.1289 Q988.1563,616.1289 987.8438,615.6602 Q987.7031,615.4258 987.7031,614.6445 L985.9531,614.6445 Z " fill="#000000"/><text fill="#000000" font-family="sans-serif" font-size="20" lengthAdjust="spacing" textLength="41.1328" x="1003" y="621.7656">Staff</text></g><!--class UniqueIdentifier--><g id="elem_UniqueIdentifier"><rect codeLine="46" fill="#F1F1F1" height="35.1563" id="UniqueIdentifier" rx="2.5" ry="2.5" style="stroke:#181818;stroke-width:0.5;" width="174.0879" x="1168" y="666.0039"/><ellipse cx="1184" cy="683.582" fill="#ADD8E6" rx="12" ry="12" style="stroke:#181818;stroke-width:1.0;"/><path d="M1184.5,687.6602 L1187.3906,680.7539 L1186.9375,680.7539 Q1186.2188,680.7539 1185.9063,680.4727 Q1185.5938,680.1914 1185.5938,679.7383 Q1185.5938,679.2852 1185.9063,679.0195 Q1186.2188,678.7383 1186.9375,678.7383 L1189.625,678.7383 Q1190.3438,678.7383 1190.6563,679.0195 Q1190.9688,679.2852 1190.9688,679.7383 Q1190.9688,680.2852 1190.5,680.5977 Q1190.2656,680.7539 1189.5781,680.7539 L1185.4688,690.582 L1183.5469,690.582 L1179.4375,680.7539 Q1178.7344,680.7539 1178.5156,680.5977 Q1178.0469,680.2852 1178.0469,679.7383 Q1178.0469,679.2852 1178.3594,679.0195 Q1178.6563,678.7383 1179.375,678.7383 L1182.0781,678.7383 Q1182.7969,678.7383 1183.0938,679.0195 Q1183.4063,679.2852 1183.4063,679.7383 Q1183.4063,680.1914 1183.1094,680.4727 Q1182.8125,680.7539 1182.0781,680.7539 L1181.6094,680.7539 L1184.5,687.6602 Z " fill="#000000"/><text fill="#000000" font-family="sans-serif" font-size="20" lengthAdjust="spacing" textLength="140.0879" x="1199" y="691.7656">UniqueIdentifier</text></g><!--class Specialization--><g id="elem_Specialization"><rect codeLine="48" fill="#F1F1F1" height="35.1563" id="Specialization" rx="2.5" ry="2.5" style="stroke:#181818;stroke-width:0.5;" width="157.4082" x="1176.5" y="596.0039"/><ellipse cx="1192.5" cy="613.582" fill="#ADD8E6" rx="12" ry="12" style="stroke:#181818;stroke-width:1.0;"/><path d="M1193,617.6602 L1195.8906,610.7539 L1195.4375,610.7539 Q1194.7188,610.7539 1194.4063,610.4727 Q1194.0938,610.1914 1194.0938,609.7383 Q1194.0938,609.2852 1194.4063,609.0195 Q1194.7188,608.7383 1195.4375,608.7383 L1198.125,608.7383 Q1198.8438,608.7383 1199.1563,609.0195 Q1199.4688,609.2852 1199.4688,609.7383 Q1199.4688,610.2852 1199,610.5977 Q1198.7656,610.7539 1198.0781,610.7539 L1193.9688,620.582 L1192.0469,620.582 L1187.9375,610.7539 Q1187.2344,610.7539 1187.0156,610.5977 Q1186.5469,610.2852 1186.5469,609.7383 Q1186.5469,609.2852 1186.8594,609.0195 Q1187.1563,608.7383 1187.875,608.7383 L1190.5781,608.7383 Q1191.2969,608.7383 1191.5938,609.0195 Q1191.9063,609.2852 1191.9063,609.7383 Q1191.9063,610.1914 1191.6094,610.4727 Q1191.3125,610.7539 1190.5781,610.7539 L1190.1094,610.7539 L1193,617.6602 Z " fill="#000000"/><text fill="#000000" font-family="sans-serif" font-size="20" lengthAdjust="spacing" textLength="123.4082" x="1207.5" y="621.7656">Specialization</text></g><!--class AvailableSlots--><g id="elem_AvailableSlots"><rect codeLine="50" fill="#F1F1F1" height="35.1563" id="AvailableSlots" rx="2.5" ry="2.5" style="stroke:#181818;stroke-width:0.5;" width="159.625" x="1175" y="736.0039"/><ellipse cx="1191" cy="753.582" fill="#ADD8E6" rx="12" ry="12" style="stroke:#181818;stroke-width:1.0;"/><path d="M1191.5,757.6602 L1194.3906,750.7539 L1193.9375,750.7539 Q1193.2188,750.7539 1192.9063,750.4727 Q1192.5938,750.1914 1192.5938,749.7383 Q1192.5938,749.2852 1192.9063,749.0195 Q1193.2188,748.7383 1193.9375,748.7383 L1196.625,748.7383 Q1197.3438,748.7383 1197.6563,749.0195 Q1197.9688,749.2852 1197.9688,749.7383 Q1197.9688,750.2852 1197.5,750.5977 Q1197.2656,750.7539 1196.5781,750.7539 L1192.4688,760.582 L1190.5469,760.582 L1186.4375,750.7539 Q1185.7344,750.7539 1185.5156,750.5977 Q1185.0469,750.2852 1185.0469,749.7383 Q1185.0469,749.2852 1185.3594,749.0195 Q1185.6563,748.7383 1186.375,748.7383 L1189.0781,748.7383 Q1189.7969,748.7383 1190.0938,749.0195 Q1190.4063,749.2852 1190.4063,749.7383 Q1190.4063,750.1914 1190.1094,750.4727 Q1189.8125,750.7539 1189.0781,750.7539 L1188.6094,750.7539 L1191.5,757.6602 Z " fill="#000000"/><text fill="#000000" font-family="sans-serif" font-size="20" lengthAdjust="spacing" textLength="125.625" x="1206" y="761.7656">AvailableSlots</text></g><!--class Doctor--><g id="elem_Doctor"><rect codeLine="60" fill="#F1F1F1" height="35.1563" id="Doctor" rx="2.5" ry="2.5" style="stroke:#181818;stroke-width:0.5;" width="92.9063" x="1770" y="442.0039"/><ellipse cx="1786" cy="459.582" fill="#ADD1B2" rx="12" ry="12" style="stroke:#181818;stroke-width:1.0;"/><path d="M1783.9531,460.6445 L1783.9531,463.582 L1789.0469,463.582 L1789.0469,462.4883 Q1789.0469,461.7695 1789.3281,461.4727 Q1789.6094,461.1602 1790.0625,461.1602 Q1790.5,461.1602 1790.7813,461.4727 Q1791.0625,461.7695 1791.0625,462.4883 L1791.0625,465.582 L1781.625,465.582 Q1780.9063,465.582 1780.5938,465.3008 Q1780.2969,465.0195 1780.2969,464.582 Q1780.2969,464.1289 1780.6094,463.8633 Q1780.9219,463.582 1781.625,463.582 L1781.9375,463.582 L1781.9375,455.7539 L1781.625,455.7539 Q1780.9063,455.7539 1780.5938,455.4727 Q1780.2969,455.1914 1780.2969,454.7383 Q1780.2969,454.2852 1780.5938,454.0195 Q1780.9063,453.7383 1781.625,453.7383 L1790.6094,453.7383 L1790.6094,456.7852 Q1790.6094,457.5039 1790.3281,457.8164 Q1790.0625,458.1133 1789.625,458.1133 Q1789.1719,458.1133 1788.8906,457.8164 Q1788.6094,457.5195 1788.6094,456.7852 L1788.6094,455.7539 L1783.9531,455.7539 L1783.9531,458.6445 L1785.7031,458.6445 Q1785.7031,457.8633 1785.8438,457.6289 Q1786.1563,457.1602 1786.7031,457.1602 Q1787.1563,457.1602 1787.4219,457.4727 Q1787.7031,457.7695 1787.7031,458.4883 L1787.7031,460.8008 Q1787.7031,461.457 1787.5469,461.6758 Q1787.2344,462.1289 1786.7031,462.1289 Q1786.1563,462.1289 1785.8438,461.6602 Q1785.7031,461.4258 1785.7031,460.6445 L1783.9531,460.6445 Z " fill="#000000"/><text fill="#000000" font-family="sans-serif" font-size="20" lengthAdjust="spacing" textLength="58.9063" x="1801" y="467.7656">Doctor</text></g><!--class Nurse--><g id="elem_Nurse"><rect codeLine="65" fill="#F1F1F1" height="35.1563" id="Nurse" rx="2.5" ry="2.5" style="stroke:#181818;stroke-width:0.5;" width="87.3496" x="966" y="238.0039"/><ellipse cx="982" cy="255.582" fill="#ADD1B2" rx="12" ry="12" style="stroke:#181818;stroke-width:1.0;"/><path d="M979.9531,256.6445 L979.9531,259.582 L985.0469,259.582 L985.0469,258.4883 Q985.0469,257.7695 985.3281,257.4727 Q985.6094,257.1602 986.0625,257.1602 Q986.5,257.1602 986.7813,257.4727 Q987.0625,257.7695 987.0625,258.4883 L987.0625,261.582 L977.625,261.582 Q976.9063,261.582 976.5938,261.3008 Q976.2969,261.0195 976.2969,260.582 Q976.2969,260.1289 976.6094,259.8633 Q976.9219,259.582 977.625,259.582 L977.9375,259.582 L977.9375,251.7539 L977.625,251.7539 Q976.9063,251.7539 976.5938,251.4727 Q976.2969,251.1914 976.2969,250.7383 Q976.2969,250.2852 976.5938,250.0195 Q976.9063,249.7383 977.625,249.7383 L986.6094,249.7383 L986.6094,252.7852 Q986.6094,253.5039 986.3281,253.8164 Q986.0625,254.1133 985.625,254.1133 Q985.1719,254.1133 984.8906,253.8164 Q984.6094,253.5195 984.6094,252.7852 L984.6094,251.7539 L979.9531,251.7539 L979.9531,254.6445 L981.7031,254.6445 Q981.7031,253.8633 981.8438,253.6289 Q982.1563,253.1602 982.7031,253.1602 Q983.1563,253.1602 983.4219,253.4727 Q983.7031,253.7695 983.7031,254.4883 L983.7031,256.8008 Q983.7031,257.457 983.5469,257.6758 Q983.2344,258.1289 982.7031,258.1289 Q982.1563,258.1289 981.8438,257.6602 Q981.7031,257.4258 981.7031,256.6445 L979.9531,256.6445 Z " fill="#000000"/><text fill="#000000" font-family="sans-serif" font-size="20" lengthAdjust="spacing" textLength="53.3496" x="997" y="263.7656">Nurse</text></g><!--class Technician--><g id="elem_Technician"><rect codeLine="70" fill="#F1F1F1" height="35.1563" id="Technician" rx="2.5" ry="2.5" style="stroke:#181818;stroke-width:0.5;" width="130.7188" x="1189.5" y="476.0039"/><ellipse cx="1205.5" cy="493.582" fill="#ADD1B2" rx="12" ry="12" style="stroke:#181818;stroke-width:1.0;"/><path d="M1203.4531,494.6445 L1203.4531,497.582 L1208.5469,497.582 L1208.5469,496.4883 Q1208.5469,495.7695 1208.8281,495.4727 Q1209.1094,495.1602 1209.5625,495.1602 Q1210,495.1602 1210.2813,495.4727 Q1210.5625,495.7695 1210.5625,496.4883 L1210.5625,499.582 L1201.125,499.582 Q1200.4063,499.582 1200.0938,499.3008 Q1199.7969,499.0195 1199.7969,498.582 Q1199.7969,498.1289 1200.1094,497.8633 Q1200.4219,497.582 1201.125,497.582 L1201.4375,497.582 L1201.4375,489.7539 L1201.125,489.7539 Q1200.4063,489.7539 1200.0938,489.4727 Q1199.7969,489.1914 1199.7969,488.7383 Q1199.7969,488.2852 1200.0938,488.0195 Q1200.4063,487.7383 1201.125,487.7383 L1210.1094,487.7383 L1210.1094,490.7852 Q1210.1094,491.5039 1209.8281,491.8164 Q1209.5625,492.1133 1209.125,492.1133 Q1208.6719,492.1133 1208.3906,491.8164 Q1208.1094,491.5195 1208.1094,490.7852 L1208.1094,489.7539 L1203.4531,489.7539 L1203.4531,492.6445 L1205.2031,492.6445 Q1205.2031,491.8633 1205.3438,491.6289 Q1205.6563,491.1602 1206.2031,491.1602 Q1206.6563,491.1602 1206.9219,491.4727 Q1207.2031,491.7695 1207.2031,492.4883 L1207.2031,494.8008 Q1207.2031,495.457 1207.0469,495.6758 Q1206.7344,496.1289 1206.2031,496.1289 Q1205.6563,496.1289 1205.3438,495.6602 Q1205.2031,495.4258 1205.2031,494.6445 L1203.4531,494.6445 Z " fill="#000000"/><text fill="#000000" font-family="sans-serif" font-size="20" lengthAdjust="spacing" textLength="96.7188" x="1220.5" y="501.7656">Technician</text></g><!--class Patient--><g id="elem_Patient"><rect codeLine="75" fill="#F1F1F1" height="35.1563" id="Patient" rx="2.5" ry="2.5" style="stroke:#181818;stroke-width:0.5;" width="96.2656" x="22" y="991.0039"/><ellipse cx="38" cy="1008.582" fill="#ADD1B2" rx="12" ry="12" style="stroke:#181818;stroke-width:1.0;"/><path d="M35.9531,1009.6445 L35.9531,1012.582 L41.0469,1012.582 L41.0469,1011.4883 Q41.0469,1010.7695 41.3281,1010.4727 Q41.6094,1010.1602 42.0625,1010.1602 Q42.5,1010.1602 42.7813,1010.4727 Q43.0625,1010.7695 43.0625,1011.4883 L43.0625,1014.582 L33.625,1014.582 Q32.9063,1014.582 32.5938,1014.3008 Q32.2969,1014.0195 32.2969,1013.582 Q32.2969,1013.1289 32.6094,1012.8633 Q32.9219,1012.582 33.625,1012.582 L33.9375,1012.582 L33.9375,1004.7539 L33.625,1004.7539 Q32.9063,1004.7539 32.5938,1004.4727 Q32.2969,1004.1914 32.2969,1003.7383 Q32.2969,1003.2852 32.5938,1003.0195 Q32.9063,1002.7383 33.625,1002.7383 L42.6094,1002.7383 L42.6094,1005.7852 Q42.6094,1006.5039 42.3281,1006.8164 Q42.0625,1007.1133 41.625,1007.1133 Q41.1719,1007.1133 40.8906,1006.8164 Q40.6094,1006.5195 40.6094,1005.7852 L40.6094,1004.7539 L35.9531,1004.7539 L35.9531,1007.6445 L37.7031,1007.6445 Q37.7031,1006.8633 37.8438,1006.6289 Q38.1563,1006.1602 38.7031,1006.1602 Q39.1563,1006.1602 39.4219,1006.4727 Q39.7031,1006.7695 39.7031,1007.4883 L39.7031,1009.8008 Q39.7031,1010.457 39.5469,1010.6758 Q39.2344,1011.1289 38.7031,1011.1289 Q38.1563,1011.1289 37.8438,1010.6602 Q37.7031,1010.4258 37.7031,1009.6445 L35.9531,1009.6445 Z " fill="#000000"/><text fill="#000000" font-family="sans-serif" font-size="20" lengthAdjust="spacing" textLength="62.2656" x="53" y="1016.7656">Patient</text></g><!--class MedicalConditions--><g id="elem_MedicalConditions"><rect codeLine="77" fill="#F1F1F1" height="35.1563" id="MedicalConditions" rx="2.5" ry="2.5" style="stroke:#181818;stroke-width:0.5;" width="197.418" x="205" y="948.0039"/><ellipse cx="221" cy="965.582" fill="#ADD8E6" rx="12" ry="12" style="stroke:#181818;stroke-width:1.0;"/><path d="M221.5,969.6602 L224.3906,962.7539 L223.9375,962.7539 Q223.2188,962.7539 222.9063,962.4727 Q222.5938,962.1914 222.5938,961.7383 Q222.5938,961.2852 222.9063,961.0195 Q223.2188,960.7383 223.9375,960.7383 L226.625,960.7383 Q227.3438,960.7383 227.6563,961.0195 Q227.9688,961.2852 227.9688,961.7383 Q227.9688,962.2852 227.5,962.5977 Q227.2656,962.7539 226.5781,962.7539 L222.4688,972.582 L220.5469,972.582 L216.4375,962.7539 Q215.7344,962.7539 215.5156,962.5977 Q215.0469,962.2852 215.0469,961.7383 Q215.0469,961.2852 215.3594,961.0195 Q215.6563,960.7383 216.375,960.7383 L219.0781,960.7383 Q219.7969,960.7383 220.0938,961.0195 Q220.4063,961.2852 220.4063,961.7383 Q220.4063,962.1914 220.1094,962.4727 Q219.8125,962.7539 219.0781,962.7539 L218.6094,962.7539 L221.5,969.6602 Z " fill="#000000"/><text fill="#000000" font-family="sans-serif" font-size="20" lengthAdjust="spacing" textLength="163.418" x="236" y="973.7656">MedicalConditions</text></g><!--class EmergencyContact--><g id="elem_EmergencyContact"><rect codeLine="79" fill="#F1F1F1" height="35.1563" id="EmergencyContact" rx="2.5" ry="2.5" style="stroke:#181818;stroke-width:0.5;" width="204.0781" x="201.5" y="878.0039"/><ellipse cx="217.5" cy="895.582" fill="#ADD8E6" rx="12" ry="12" style="stroke:#181818;stroke-width:1.0;"/><path d="M218,899.6602 L220.8906,892.7539 L220.4375,892.7539 Q219.7188,892.7539 219.4063,892.4727 Q219.0938,892.1914 219.0938,891.7383 Q219.0938,891.2852 219.4063,891.0195 Q219.7188,890.7383 220.4375,890.7383 L223.125,890.7383 Q223.8438,890.7383 224.1563,891.0195 Q224.4688,891.2852 224.4688,891.7383 Q224.4688,892.2852 224,892.5977 Q223.7656,892.7539 223.0781,892.7539 L218.9688,902.582 L217.0469,902.582 L212.9375,892.7539 Q212.2344,892.7539 212.0156,892.5977 Q211.5469,892.2852 211.5469,891.7383 Q211.5469,891.2852 211.8594,891.0195 Q212.1563,890.7383 212.875,890.7383 L215.5781,890.7383 Q216.2969,890.7383 216.5938,891.0195 Q216.9063,891.2852 216.9063,891.7383 Q216.9063,892.1914 216.6094,892.4727 Q216.3125,892.7539 215.5781,892.7539 L215.1094,892.7539 L218,899.6602 Z " fill="#000000"/><text fill="#000000" font-family="sans-serif" font-size="20" lengthAdjust="spacing" textLength="170.0781" x="232.5" y="903.7656">EmergencyContact</text></g><!--class AppoitmentHistory--><g id="elem_AppoitmentHistory"><rect codeLine="81" fill="#F1F1F1" height="35.1563" id="AppoitmentHistory" rx="2.5" ry="2.5" style="stroke:#181818;stroke-width:0.5;" width="197.3984" x="205" y="1228.0039"/><ellipse cx="221" cy="1245.582" fill="#ADD8E6" rx="12" ry="12" style="stroke:#181818;stroke-width:1.0;"/><path d="M221.5,1249.6602 L224.3906,1242.7539 L223.9375,1242.7539 Q223.2188,1242.7539 222.9063,1242.4727 Q222.5938,1242.1914 222.5938,1241.7383 Q222.5938,1241.2852 222.9063,1241.0195 Q223.2188,1240.7383 223.9375,1240.7383 L226.625,1240.7383 Q227.3438,1240.7383 227.6563,1241.0195 Q227.9688,1241.2852 227.9688,1241.7383 Q227.9688,1242.2852 227.5,1242.5977 Q227.2656,1242.7539 226.5781,1242.7539 L222.4688,1252.582 L220.5469,1252.582 L216.4375,1242.7539 Q215.7344,1242.7539 215.5156,1242.5977 Q215.0469,1242.2852 215.0469,1241.7383 Q215.0469,1241.2852 215.3594,1241.0195 Q215.6563,1240.7383 216.375,1240.7383 L219.0781,1240.7383 Q219.7969,1240.7383 220.0938,1241.0195 Q220.4063,1241.2852 220.4063,1241.7383 Q220.4063,1242.1914 220.1094,1242.4727 Q219.8125,1242.7539 219.0781,1242.7539 L218.6094,1242.7539 L221.5,1249.6602 Z " fill="#000000"/><text fill="#000000" font-family="sans-serif" font-size="20" lengthAdjust="spacing" textLength="163.3984" x="236" y="1253.7656">AppoitmentHistory</text></g><!--class MedicalRecordsNumber--><g id="elem_MedicalRecordsNumber"><rect codeLine="83" fill="#F1F1F1" height="35.1563" id="MedicalRecordsNumber" rx="2.5" ry="2.5" style="stroke:#181818;stroke-width:0.5;" width="248.5215" x="179" y="1158.0039"/><ellipse cx="195" cy="1175.582" fill="#ADD8E6" rx="12" ry="12" style="stroke:#181818;stroke-width:1.0;"/><path d="M195.5,1179.6602 L198.3906,1172.7539 L197.9375,1172.7539 Q197.2188,1172.7539 196.9063,1172.4727 Q196.5938,1172.1914 196.5938,1171.7383 Q196.5938,1171.2852 196.9063,1171.0195 Q197.2188,1170.7383 197.9375,1170.7383 L200.625,1170.7383 Q201.3438,1170.7383 201.6563,1171.0195 Q201.9688,1171.2852 201.9688,1171.7383 Q201.9688,1172.2852 201.5,1172.5977 Q201.2656,1172.7539 200.5781,1172.7539 L196.4688,1182.582 L194.5469,1182.582 L190.4375,1172.7539 Q189.7344,1172.7539 189.5156,1172.5977 Q189.0469,1172.2852 189.0469,1171.7383 Q189.0469,1171.2852 189.3594,1171.0195 Q189.6563,1170.7383 190.375,1170.7383 L193.0781,1170.7383 Q193.7969,1170.7383 194.0938,1171.0195 Q194.4063,1171.2852 194.4063,1171.7383 Q194.4063,1172.1914 194.1094,1172.4727 Q193.8125,1172.7539 193.0781,1172.7539 L192.6094,1172.7539 L195.5,1179.6602 Z " fill="#000000"/><text fill="#000000" font-family="sans-serif" font-size="20" lengthAdjust="spacing" textLength="214.5215" x="210" y="1183.7656">MedicalRecordsNumber</text></g><!--class Gender--><g id="elem_Gender"><rect codeLine="85" fill="#F1F1F1" height="35.1563" id="Gender" rx="2.5" ry="2.5" style="stroke:#181818;stroke-width:0.5;" width="100.709" x="253" y="1088.0039"/><ellipse cx="269" cy="1105.582" fill="#ADD8E6" rx="12" ry="12" style="stroke:#181818;stroke-width:1.0;"/><path d="M269.5,1109.6602 L272.3906,1102.7539 L271.9375,1102.7539 Q271.2188,1102.7539 270.9063,1102.4727 Q270.5938,1102.1914 270.5938,1101.7383 Q270.5938,1101.2852 270.9063,1101.0195 Q271.2188,1100.7383 271.9375,1100.7383 L274.625,1100.7383 Q275.3438,1100.7383 275.6563,1101.0195 Q275.9688,1101.2852 275.9688,1101.7383 Q275.9688,1102.2852 275.5,1102.5977 Q275.2656,1102.7539 274.5781,1102.7539 L270.4688,1112.582 L268.5469,1112.582 L264.4375,1102.7539 Q263.7344,1102.7539 263.5156,1102.5977 Q263.0469,1102.2852 263.0469,1101.7383 Q263.0469,1101.2852 263.3594,1101.0195 Q263.6563,1100.7383 264.375,1100.7383 L267.0781,1100.7383 Q267.7969,1100.7383 268.0938,1101.0195 Q268.4063,1101.2852 268.4063,1101.7383 Q268.4063,1102.1914 268.1094,1102.4727 Q267.8125,1102.7539 267.0781,1102.7539 L266.6094,1102.7539 L269.5,1109.6602 Z " fill="#000000"/><text fill="#000000" font-family="sans-serif" font-size="20" lengthAdjust="spacing" textLength="66.709" x="284" y="1113.7656">Gender</text></g><!--class DateOfBirth--><g id="elem_DateOfBirth"><rect codeLine="87" fill="#F1F1F1" height="35.1563" id="DateOfBirth" rx="2.5" ry="2.5" style="stroke:#181818;stroke-width:0.5;" width="138.4824" x="234.5" y="1018.0039"/><ellipse cx="250.5" cy="1035.582" fill="#ADD8E6" rx="12" ry="12" style="stroke:#181818;stroke-width:1.0;"/><path d="M251,1039.6602 L253.8906,1032.7539 L253.4375,1032.7539 Q252.7188,1032.7539 252.4063,1032.4727 Q252.0938,1032.1914 252.0938,1031.7383 Q252.0938,1031.2852 252.4063,1031.0195 Q252.7188,1030.7383 253.4375,1030.7383 L256.125,1030.7383 Q256.8438,1030.7383 257.1563,1031.0195 Q257.4688,1031.2852 257.4688,1031.7383 Q257.4688,1032.2852 257,1032.5977 Q256.7656,1032.7539 256.0781,1032.7539 L251.9688,1042.582 L250.0469,1042.582 L245.9375,1032.7539 Q245.2344,1032.7539 245.0156,1032.5977 Q244.5469,1032.2852 244.5469,1031.7383 Q244.5469,1031.2852 244.8594,1031.0195 Q245.1563,1030.7383 245.875,1030.7383 L248.5781,1030.7383 Q249.2969,1030.7383 249.5938,1031.0195 Q249.9063,1031.2852 249.9063,1031.7383 Q249.9063,1032.1914 249.6094,1032.4727 Q249.3125,1032.7539 248.5781,1032.7539 L248.1094,1032.7539 L251,1039.6602 Z " fill="#000000"/><text fill="#000000" font-family="sans-serif" font-size="20" lengthAdjust="spacing" textLength="104.4824" x="265.5" y="1043.7656">DateOfBirth</text></g><!--class OperationRequest--><g id="elem_OperationRequest"><rect codeLine="99" fill="#F1F1F1" height="35.1563" id="OperationRequest" rx="2.5" ry="2.5" style="stroke:#181818;stroke-width:0.5;" width="196.3242" x="1426" y="733.0039"/><ellipse cx="1442" cy="750.582" fill="#ADD1B2" rx="12" ry="12" style="stroke:#181818;stroke-width:1.0;"/><path d="M1439.9531,751.6445 L1439.9531,754.582 L1445.0469,754.582 L1445.0469,753.4883 Q1445.0469,752.7695 1445.3281,752.4727 Q1445.6094,752.1602 1446.0625,752.1602 Q1446.5,752.1602 1446.7813,752.4727 Q1447.0625,752.7695 1447.0625,753.4883 L1447.0625,756.582 L1437.625,756.582 Q1436.9063,756.582 1436.5938,756.3008 Q1436.2969,756.0195 1436.2969,755.582 Q1436.2969,755.1289 1436.6094,754.8633 Q1436.9219,754.582 1437.625,754.582 L1437.9375,754.582 L1437.9375,746.7539 L1437.625,746.7539 Q1436.9063,746.7539 1436.5938,746.4727 Q1436.2969,746.1914 1436.2969,745.7383 Q1436.2969,745.2852 1436.5938,745.0195 Q1436.9063,744.7383 1437.625,744.7383 L1446.6094,744.7383 L1446.6094,747.7852 Q1446.6094,748.5039 1446.3281,748.8164 Q1446.0625,749.1133 1445.625,749.1133 Q1445.1719,749.1133 1444.8906,748.8164 Q1444.6094,748.5195 1444.6094,747.7852 L1444.6094,746.7539 L1439.9531,746.7539 L1439.9531,749.6445 L1441.7031,749.6445 Q1441.7031,748.8633 1441.8438,748.6289 Q1442.1563,748.1602 1442.7031,748.1602 Q1443.1563,748.1602 1443.4219,748.4727 Q1443.7031,748.7695 1443.7031,749.4883 L1443.7031,751.8008 Q1443.7031,752.457 1443.5469,752.6758 Q1443.2344,753.1289 1442.7031,753.1289 Q1442.1563,753.1289 1441.8438,752.6602 Q1441.7031,752.4258 1441.7031,751.6445 L1439.9531,751.6445 Z " fill="#000000"/><text fill="#000000" font-family="sans-serif" font-size="20" lengthAdjust="spacing" textLength="162.3242" x="1457" y="758.7656">OperationRequest</text></g><!--class Priority--><g id="elem_Priority"><rect codeLine="101" fill="#F1F1F1" height="35.1563" id="Priority" rx="2.5" ry="2.5" style="stroke:#181818;stroke-width:0.5;" width="96.2266" x="1768.5" y="768.0039"/><ellipse cx="1784.5" cy="785.582" fill="#ADD8E6" rx="12" ry="12" style="stroke:#181818;stroke-width:1.0;"/><path d="M1785,789.6602 L1787.8906,782.7539 L1787.4375,782.7539 Q1786.7188,782.7539 1786.4063,782.4727 Q1786.0938,782.1914 1786.0938,781.7383 Q1786.0938,781.2852 1786.4063,781.0195 Q1786.7188,780.7383 1787.4375,780.7383 L1790.125,780.7383 Q1790.8438,780.7383 1791.1563,781.0195 Q1791.4688,781.2852 1791.4688,781.7383 Q1791.4688,782.2852 1791,782.5977 Q1790.7656,782.7539 1790.0781,782.7539 L1785.9688,792.582 L1784.0469,792.582 L1779.9375,782.7539 Q1779.2344,782.7539 1779.0156,782.5977 Q1778.5469,782.2852 1778.5469,781.7383 Q1778.5469,781.2852 1778.8594,781.0195 Q1779.1563,780.7383 1779.875,780.7383 L1782.5781,780.7383 Q1783.2969,780.7383 1783.5938,781.0195 Q1783.9063,781.2852 1783.9063,781.7383 Q1783.9063,782.1914 1783.6094,782.4727 Q1783.3125,782.7539 1782.5781,782.7539 L1782.1094,782.7539 L1785,789.6602 Z " fill="#000000"/><text fill="#000000" font-family="sans-serif" font-size="20" lengthAdjust="spacing" textLength="62.2266" x="1799.5" y="793.7656">Priority</text></g><!--class Deadline--><g id="elem_Deadline"><rect codeLine="103" fill="#F1F1F1" height="35.1563" id="Deadline" rx="2.5" ry="2.5" style="stroke:#181818;stroke-width:0.5;" width="112.9453" x="1760" y="698.0039"/><ellipse cx="1776" cy="715.582" fill="#ADD8E6" rx="12" ry="12" style="stroke:#181818;stroke-width:1.0;"/><path d="M1776.5,719.6602 L1779.3906,712.7539 L1778.9375,712.7539 Q1778.2188,712.7539 1777.9063,712.4727 Q1777.5938,712.1914 1777.5938,711.7383 Q1777.5938,711.2852 1777.9063,711.0195 Q1778.2188,710.7383 1778.9375,710.7383 L1781.625,710.7383 Q1782.3438,710.7383 1782.6563,711.0195 Q1782.9688,711.2852 1782.9688,711.7383 Q1782.9688,712.2852 1782.5,712.5977 Q1782.2656,712.7539 1781.5781,712.7539 L1777.4688,722.582 L1775.5469,722.582 L1771.4375,712.7539 Q1770.7344,712.7539 1770.5156,712.5977 Q1770.0469,712.2852 1770.0469,711.7383 Q1770.0469,711.2852 1770.3594,711.0195 Q1770.6563,710.7383 1771.375,710.7383 L1774.0781,710.7383 Q1774.7969,710.7383 1775.0938,711.0195 Q1775.4063,711.2852 1775.4063,711.7383 Q1775.4063,712.1914 1775.1094,712.4727 Q1774.8125,712.7539 1774.0781,712.7539 L1773.6094,712.7539 L1776.5,719.6602 Z " fill="#000000"/><text fill="#000000" font-family="sans-serif" font-size="20" lengthAdjust="spacing" textLength="78.9453" x="1791" y="723.7656">Deadline</text></g><!--class OperationType--><g id="elem_OperationType"><rect codeLine="111" fill="#F1F1F1" height="35.1563" id="OperationType" rx="2.5" ry="2.5" style="stroke:#181818;stroke-width:0.5;" width="166.2949" x="493" y="451.0039"/><ellipse cx="509" cy="468.582" fill="#ADD1B2" rx="12" ry="12" style="stroke:#181818;stroke-width:1.0;"/><path d="M506.9531,469.6445 L506.9531,472.582 L512.0469,472.582 L512.0469,471.4883 Q512.0469,470.7695 512.3281,470.4727 Q512.6094,470.1602 513.0625,470.1602 Q513.5,470.1602 513.7813,470.4727 Q514.0625,470.7695 514.0625,471.4883 L514.0625,474.582 L504.625,474.582 Q503.9063,474.582 503.5938,474.3008 Q503.2969,474.0195 503.2969,473.582 Q503.2969,473.1289 503.6094,472.8633 Q503.9219,472.582 504.625,472.582 L504.9375,472.582 L504.9375,464.7539 L504.625,464.7539 Q503.9063,464.7539 503.5938,464.4727 Q503.2969,464.1914 503.2969,463.7383 Q503.2969,463.2852 503.5938,463.0195 Q503.9063,462.7383 504.625,462.7383 L513.6094,462.7383 L513.6094,465.7852 Q513.6094,466.5039 513.3281,466.8164 Q513.0625,467.1133 512.625,467.1133 Q512.1719,467.1133 511.8906,466.8164 Q511.6094,466.5195 511.6094,465.7852 L511.6094,464.7539 L506.9531,464.7539 L506.9531,467.6445 L508.7031,467.6445 Q508.7031,466.8633 508.8438,466.6289 Q509.1563,466.1602 509.7031,466.1602 Q510.1563,466.1602 510.4219,466.4727 Q510.7031,466.7695 510.7031,467.4883 L510.7031,469.8008 Q510.7031,470.457 510.5469,470.6758 Q510.2344,471.1289 509.7031,471.1289 Q509.1563,471.1289 508.8438,470.6602 Q508.7031,470.4258 508.7031,469.6445 L506.9531,469.6445 Z " fill="#000000"/><text fill="#000000" font-family="sans-serif" font-size="20" lengthAdjust="spacing" textLength="132.2949" x="524" y="476.7656">OperationType</text></g><!--class Name--><g id="elem_Name"><rect codeLine="113" fill="#F1F1F1" height="35.1563" id="Name" rx="2.5" ry="2.5" style="stroke:#181818;stroke-width:0.5;" width="87.3496" x="751.5" y="451.0039"/><ellipse cx="767.5" cy="468.582" fill="#ADD8E6" rx="12" ry="12" style="stroke:#181818;stroke-width:1.0;"/><path d="M768,472.6602 L770.8906,465.7539 L770.4375,465.7539 Q769.7188,465.7539 769.4063,465.4727 Q769.0938,465.1914 769.0938,464.7383 Q769.0938,464.2852 769.4063,464.0195 Q769.7188,463.7383 770.4375,463.7383 L773.125,463.7383 Q773.8438,463.7383 774.1563,464.0195 Q774.4688,464.2852 774.4688,464.7383 Q774.4688,465.2852 774,465.5977 Q773.7656,465.7539 773.0781,465.7539 L768.9688,475.582 L767.0469,475.582 L762.9375,465.7539 Q762.2344,465.7539 762.0156,465.5977 Q761.5469,465.2852 761.5469,464.7383 Q761.5469,464.2852 761.8594,464.0195 Q762.1563,463.7383 762.875,463.7383 L765.5781,463.7383 Q766.2969,463.7383 766.5938,464.0195 Q766.9063,464.2852 766.9063,464.7383 Q766.9063,465.1914 766.6094,465.4727 Q766.3125,465.7539 765.5781,465.7539 L765.1094,465.7539 L768,472.6602 Z " fill="#000000"/><text fill="#000000" font-family="sans-serif" font-size="20" lengthAdjust="spacing" textLength="53.3496" x="782.5" y="476.7656">Name</text></g><!--class Duration--><g id="elem_Duration"><rect codeLine="115" fill="#F1F1F1" height="35.1563" id="Duration" rx="2.5" ry="2.5" style="stroke:#181818;stroke-width:0.5;" width="109.5957" x="740" y="381.0039"/><ellipse cx="756" cy="398.582" fill="#ADD8E6" rx="12" ry="12" style="stroke:#181818;stroke-width:1.0;"/><path d="M756.5,402.6602 L759.3906,395.7539 L758.9375,395.7539 Q758.2188,395.7539 757.9063,395.4727 Q757.5938,395.1914 757.5938,394.7383 Q757.5938,394.2852 757.9063,394.0195 Q758.2188,393.7383 758.9375,393.7383 L761.625,393.7383 Q762.3438,393.7383 762.6563,394.0195 Q762.9688,394.2852 762.9688,394.7383 Q762.9688,395.2852 762.5,395.5977 Q762.2656,395.7539 761.5781,395.7539 L757.4688,405.582 L755.5469,405.582 L751.4375,395.7539 Q750.7344,395.7539 750.5156,395.5977 Q750.0469,395.2852 750.0469,394.7383 Q750.0469,394.2852 750.3594,394.0195 Q750.6563,393.7383 751.375,393.7383 L754.0781,393.7383 Q754.7969,393.7383 755.0938,394.0195 Q755.4063,394.2852 755.4063,394.7383 Q755.4063,395.1914 755.1094,395.4727 Q754.8125,395.7539 754.0781,395.7539 L753.6094,395.7539 L756.5,402.6602 Z " fill="#000000"/><text fill="#000000" font-family="sans-serif" font-size="20" lengthAdjust="spacing" textLength="75.5957" x="771" y="406.7656">Duration</text></g><!--class Description--><g id="elem_Description"><rect fill="#F1F1F1" height="35.1563" id="Description" rx="2.5" ry="2.5" style="stroke:#181818;stroke-width:0.5;" width="134.0391" x="728" y="521.0039"/><ellipse cx="744" cy="538.582" fill="#ADD1B2" rx="12" ry="12" style="stroke:#181818;stroke-width:1.0;"/><path d="M746.1406,533.5039 Q746.3281,533.2539 746.5469,533.1289 Q746.7656,532.9883 747.0156,532.9883 Q747.4531,532.9883 747.7344,533.3008 Q748.0156,533.5977 748.0156,534.3164 L748.0156,536.0195 Q748.0156,536.7383 747.7344,537.0508 Q747.4531,537.3633 747.0156,537.3633 Q746.625,537.3633 746.375,537.1289 Q746.125,536.9102 746.0156,536.3008 Q745.9531,535.8789 745.7344,535.6602 Q745.3438,535.2227 744.625,534.957 Q743.9063,534.6914 743.1875,534.6914 Q742.2813,534.6914 741.5313,535.082 Q740.7813,535.4727 740.2031,536.3633 Q739.625,537.2383 739.625,538.4414 L739.625,539.7383 Q739.625,541.1914 740.6719,542.1602 Q741.7344,543.1289 743.5938,543.1289 Q744.7031,543.1289 745.4844,542.8164 Q745.9219,542.6445 746.4375,542.1289 Q746.75,541.8164 746.9219,541.7227 Q747.0938,541.6289 747.3281,541.6289 Q747.7188,541.6289 748.0156,541.9414 Q748.3281,542.2383 748.3281,542.6445 Q748.3281,543.0508 747.9219,543.5195 Q747.3281,544.207 746.3906,544.5977 Q745.125,545.1289 743.6094,545.1289 Q741.8281,545.1289 740.4063,544.3945 Q739.25,543.8008 738.4375,542.5352 Q737.625,541.2695 737.625,539.7852 L737.625,538.4258 Q737.625,536.8633 738.3438,535.5195 Q739.0781,534.1602 740.3594,533.4258 Q741.6563,532.6914 743.1094,532.6914 Q743.9688,532.6914 744.7188,532.8945 Q745.4844,533.0977 746.1406,533.5039 Z " fill="#000000"/><text fill="#000000" font-family="sans-serif" font-size="20" lengthAdjust="spacing" textLength="100.0391" x="759" y="546.7656">Description</text></g><!--class Appointment--><g id="elem_Appointment"><rect codeLine="124" fill="#F1F1F1" height="35.1563" id="Appointment" rx="2.5" ry="2.5" style="stroke:#181818;stroke-width:0.5;" width="146.2949" x="722" y="1002.0039"/><ellipse cx="738" cy="1019.582" fill="#ADD1B2" rx="12" ry="12" style="stroke:#181818;stroke-width:1.0;"/><path d="M735.9531,1020.6445 L735.9531,1023.582 L741.0469,1023.582 L741.0469,1022.4883 Q741.0469,1021.7695 741.3281,1021.4727 Q741.6094,1021.1602 742.0625,1021.1602 Q742.5,1021.1602 742.7813,1021.4727 Q743.0625,1021.7695 743.0625,1022.4883 L743.0625,1025.582 L733.625,1025.582 Q732.9063,1025.582 732.5938,1025.3008 Q732.2969,1025.0195 732.2969,1024.582 Q732.2969,1024.1289 732.6094,1023.8633 Q732.9219,1023.582 733.625,1023.582 L733.9375,1023.582 L733.9375,1015.7539 L733.625,1015.7539 Q732.9063,1015.7539 732.5938,1015.4727 Q732.2969,1015.1914 732.2969,1014.7383 Q732.2969,1014.2852 732.5938,1014.0195 Q732.9063,1013.7383 733.625,1013.7383 L742.6094,1013.7383 L742.6094,1016.7852 Q742.6094,1017.5039 742.3281,1017.8164 Q742.0625,1018.1133 741.625,1018.1133 Q741.1719,1018.1133 740.8906,1017.8164 Q740.6094,1017.5195 740.6094,1016.7852 L740.6094,1015.7539 L735.9531,1015.7539 L735.9531,1018.6445 L737.7031,1018.6445 Q737.7031,1017.8633 737.8438,1017.6289 Q738.1563,1017.1602 738.7031,1017.1602 Q739.1563,1017.1602 739.4219,1017.4727 Q739.7031,1017.7695 739.7031,1018.4883 L739.7031,1020.8008 Q739.7031,1021.457 739.5469,1021.6758 Q739.2344,1022.1289 738.7031,1022.1289 Q738.1563,1022.1289 737.8438,1021.6602 Q737.7031,1021.4258 737.7031,1020.6445 L735.9531,1020.6445 Z " fill="#000000"/><text fill="#000000" font-family="sans-serif" font-size="20" lengthAdjust="spacing" textLength="112.2949" x="753" y="1027.7656">Appointment</text></g><!--class Date--><g id="elem_Date"><rect codeLine="126" fill="#F1F1F1" height="35.1563" id="Date" rx="2.5" ry="2.5" style="stroke:#181818;stroke-width:0.5;" width="76.2461" x="971.5" y="1030.0039"/><ellipse cx="987.5" cy="1047.582" fill="#ADD8E6" rx="12" ry="12" style="stroke:#181818;stroke-width:1.0;"/><path d="M988,1051.6602 L990.8906,1044.7539 L990.4375,1044.7539 Q989.7188,1044.7539 989.4063,1044.4727 Q989.0938,1044.1914 989.0938,1043.7383 Q989.0938,1043.2852 989.4063,1043.0195 Q989.7188,1042.7383 990.4375,1042.7383 L993.125,1042.7383 Q993.8438,1042.7383 994.1563,1043.0195 Q994.4688,1043.2852 994.4688,1043.7383 Q994.4688,1044.2852 994,1044.5977 Q993.7656,1044.7539 993.0781,1044.7539 L988.9688,1054.582 L987.0469,1054.582 L982.9375,1044.7539 Q982.2344,1044.7539 982.0156,1044.5977 Q981.5469,1044.2852 981.5469,1043.7383 Q981.5469,1043.2852 981.8594,1043.0195 Q982.1563,1042.7383 982.875,1042.7383 L985.5781,1042.7383 Q986.2969,1042.7383 986.5938,1043.0195 Q986.9063,1043.2852 986.9063,1043.7383 Q986.9063,1044.1914 986.6094,1044.4727 Q986.3125,1044.7539 985.5781,1044.7539 L985.1094,1044.7539 L988,1051.6602 Z " fill="#000000"/><text fill="#000000" font-family="sans-serif" font-size="20" lengthAdjust="spacing" textLength="42.2461" x="1002.5" y="1055.7656">Date</text></g><!--class Status--><g id="elem_Status"><rect codeLine="128" fill="#F1F1F1" height="35.1563" id="Status" rx="2.5" ry="2.5" style="stroke:#181818;stroke-width:0.5;" width="90.6992" x="964" y="960.0039"/><ellipse cx="980" cy="977.582" fill="#ADD8E6" rx="12" ry="12" style="stroke:#181818;stroke-width:1.0;"/><path d="M980.5,981.6602 L983.3906,974.7539 L982.9375,974.7539 Q982.2188,974.7539 981.9063,974.4727 Q981.5938,974.1914 981.5938,973.7383 Q981.5938,973.2852 981.9063,973.0195 Q982.2188,972.7383 982.9375,972.7383 L985.625,972.7383 Q986.3438,972.7383 986.6563,973.0195 Q986.9688,973.2852 986.9688,973.7383 Q986.9688,974.2852 986.5,974.5977 Q986.2656,974.7539 985.5781,974.7539 L981.4688,984.582 L979.5469,984.582 L975.4375,974.7539 Q974.7344,974.7539 974.5156,974.5977 Q974.0469,974.2852 974.0469,973.7383 Q974.0469,973.2852 974.3594,973.0195 Q974.6563,972.7383 975.375,972.7383 L978.0781,972.7383 Q978.7969,972.7383 979.0938,973.0195 Q979.4063,973.2852 979.4063,973.7383 Q979.4063,974.1914 979.1094,974.4727 Q978.8125,974.7539 978.0781,974.7539 L977.6094,974.7539 L980.5,981.6602 Z " fill="#000000"/><text fill="#000000" font-family="sans-serif" font-size="20" lengthAdjust="spacing" textLength="56.6992" x="995" y="985.7656">Status</text></g><!--class Time--><g id="elem_Time"><rect fill="#F1F1F1" height="35.1563" id="Time" rx="2.5" ry="2.5" style="stroke:#181818;stroke-width:0.5;" width="78.4434" x="970.5" y="1100.0039"/><ellipse cx="986.5" cy="1117.582" fill="#ADD1B2" rx="12" ry="12" style="stroke:#181818;stroke-width:1.0;"/><path d="M988.6406,1112.5039 Q988.8281,1112.2539 989.0469,1112.1289 Q989.2656,1111.9883 989.5156,1111.9883 Q989.9531,1111.9883 990.2344,1112.3008 Q990.5156,1112.5977 990.5156,1113.3164 L990.5156,1115.0195 Q990.5156,1115.7383 990.2344,1116.0508 Q989.9531,1116.3633 989.5156,1116.3633 Q989.125,1116.3633 988.875,1116.1289 Q988.625,1115.9102 988.5156,1115.3008 Q988.4531,1114.8789 988.2344,1114.6602 Q987.8438,1114.2227 987.125,1113.957 Q986.4063,1113.6914 985.6875,1113.6914 Q984.7813,1113.6914 984.0313,1114.082 Q983.2813,1114.4727 982.7031,1115.3633 Q982.125,1116.2383 982.125,1117.4414 L982.125,1118.7383 Q982.125,1120.1914 983.1719,1121.1602 Q984.2344,1122.1289 986.0938,1122.1289 Q987.2031,1122.1289 987.9844,1121.8164 Q988.4219,1121.6445 988.9375,1121.1289 Q989.25,1120.8164 989.4219,1120.7227 Q989.5938,1120.6289 989.8281,1120.6289 Q990.2188,1120.6289 990.5156,1120.9414 Q990.8281,1121.2383 990.8281,1121.6445 Q990.8281,1122.0508 990.4219,1122.5195 Q989.8281,1123.207 988.8906,1123.5977 Q987.625,1124.1289 986.1094,1124.1289 Q984.3281,1124.1289 982.9063,1123.3945 Q981.75,1122.8008 980.9375,1121.5352 Q980.125,1120.2695 980.125,1118.7852 L980.125,1117.4258 Q980.125,1115.8633 980.8438,1114.5195 Q981.5781,1113.1602 982.8594,1112.4258 Q984.1563,1111.6914 985.6094,1111.6914 Q986.4688,1111.6914 987.2188,1111.8945 Q987.9844,1112.0977 988.6406,1112.5039 Z " fill="#000000"/><text fill="#000000" font-family="sans-serif" font-size="20" lengthAdjust="spacing" textLength="44.4434" x="1001.5" y="1125.7656">Time</text></g><!--class SurgeryRoom--><g id="elem_SurgeryRoom"><rect codeLine="137" fill="#F1F1F1" height="35.1563" id="SurgeryRoom" rx="2.5" ry="2.5" style="stroke:#181818;stroke-width:0.5;" width="157.3789" x="931" y="1341.0039"/><ellipse cx="947" cy="1358.582" fill="#ADD1B2" rx="12" ry="12" style="stroke:#181818;stroke-width:1.0;"/><path d="M944.9531,1359.6445 L944.9531,1362.582 L950.0469,1362.582 L950.0469,1361.4883 Q950.0469,1360.7695 950.3281,1360.4727 Q950.6094,1360.1602 951.0625,1360.1602 Q951.5,1360.1602 951.7813,1360.4727 Q952.0625,1360.7695 952.0625,1361.4883 L952.0625,1364.582 L942.625,1364.582 Q941.9063,1364.582 941.5938,1364.3008 Q941.2969,1364.0195 941.2969,1363.582 Q941.2969,1363.1289 941.6094,1362.8633 Q941.9219,1362.582 942.625,1362.582 L942.9375,1362.582 L942.9375,1354.7539 L942.625,1354.7539 Q941.9063,1354.7539 941.5938,1354.4727 Q941.2969,1354.1914 941.2969,1353.7383 Q941.2969,1353.2852 941.5938,1353.0195 Q941.9063,1352.7383 942.625,1352.7383 L951.6094,1352.7383 L951.6094,1355.7852 Q951.6094,1356.5039 951.3281,1356.8164 Q951.0625,1357.1133 950.625,1357.1133 Q950.1719,1357.1133 949.8906,1356.8164 Q949.6094,1356.5195 949.6094,1355.7852 L949.6094,1354.7539 L944.9531,1354.7539 L944.9531,1357.6445 L946.7031,1357.6445 Q946.7031,1356.8633 946.8438,1356.6289 Q947.1563,1356.1602 947.7031,1356.1602 Q948.1563,1356.1602 948.4219,1356.4727 Q948.7031,1356.7695 948.7031,1357.4883 L948.7031,1359.8008 Q948.7031,1360.457 948.5469,1360.6758 Q948.2344,1361.1289 947.7031,1361.1289 Q947.1563,1361.1289 946.8438,1360.6602 Q946.7031,1360.4258 946.7031,1359.6445 L944.9531,1359.6445 Z " fill="#000000"/><text fill="#000000" font-family="sans-serif" font-size="20" lengthAdjust="spacing" textLength="123.3789" x="962" y="1366.7656">SurgeryRoom</text></g><!--class RoomNumber--><g id="elem_RoomNumber"><rect codeLine="139" fill="#F1F1F1" height="35.1563" id="RoomNumber" rx="2.5" ry="2.5" style="stroke:#181818;stroke-width:0.5;" width="158.4824" x="1176" y="1220.0039"/><ellipse cx="1192" cy="1237.582" fill="#ADD8E6" rx="12" ry="12" style="stroke:#181818;stroke-width:1.0;"/><path d="M1192.5,1241.6602 L1195.3906,1234.7539 L1194.9375,1234.7539 Q1194.2188,1234.7539 1193.9063,1234.4727 Q1193.5938,1234.1914 1193.5938,1233.7383 Q1193.5938,1233.2852 1193.9063,1233.0195 Q1194.2188,1232.7383 1194.9375,1232.7383 L1197.625,1232.7383 Q1198.3438,1232.7383 1198.6563,1233.0195 Q1198.9688,1233.2852 1198.9688,1233.7383 Q1198.9688,1234.2852 1198.5,1234.5977 Q1198.2656,1234.7539 1197.5781,1234.7539 L1193.4688,1244.582 L1191.5469,1244.582 L1187.4375,1234.7539 Q1186.7344,1234.7539 1186.5156,1234.5977 Q1186.0469,1234.2852 1186.0469,1233.7383 Q1186.0469,1233.2852 1186.3594,1233.0195 Q1186.6563,1232.7383 1187.375,1232.7383 L1190.0781,1232.7383 Q1190.7969,1232.7383 1191.0938,1233.0195 Q1191.4063,1233.2852 1191.4063,1233.7383 Q1191.4063,1234.1914 1191.1094,1234.4727 Q1190.8125,1234.7539 1190.0781,1234.7539 L1189.6094,1234.7539 L1192.5,1241.6602 Z " fill="#000000"/><text fill="#000000" font-family="sans-serif" font-size="20" lengthAdjust="spacing" textLength="124.4824" x="1207" y="1245.7656">RoomNumber</text></g><!--class RoomType--><g id="elem_RoomType"><rect codeLine="141" fill="#F1F1F1" height="35.1563" id="RoomType" rx="2.5" ry="2.5" style="stroke:#181818;stroke-width:0.5;" width="131.8125" x="1189" y="1500.0039"/><ellipse cx="1205" cy="1517.582" fill="#ADD8E6" rx="12" ry="12" style="stroke:#181818;stroke-width:1.0;"/><path d="M1205.5,1521.6602 L1208.3906,1514.7539 L1207.9375,1514.7539 Q1207.2188,1514.7539 1206.9063,1514.4727 Q1206.5938,1514.1914 1206.5938,1513.7383 Q1206.5938,1513.2852 1206.9063,1513.0195 Q1207.2188,1512.7383 1207.9375,1512.7383 L1210.625,1512.7383 Q1211.3438,1512.7383 1211.6563,1513.0195 Q1211.9688,1513.2852 1211.9688,1513.7383 Q1211.9688,1514.2852 1211.5,1514.5977 Q1211.2656,1514.7539 1210.5781,1514.7539 L1206.4688,1524.582 L1204.5469,1524.582 L1200.4375,1514.7539 Q1199.7344,1514.7539 1199.5156,1514.5977 Q1199.0469,1514.2852 1199.0469,1513.7383 Q1199.0469,1513.2852 1199.3594,1513.0195 Q1199.6563,1512.7383 1200.375,1512.7383 L1203.0781,1512.7383 Q1203.7969,1512.7383 1204.0938,1513.0195 Q1204.4063,1513.2852 1204.4063,1513.7383 Q1204.4063,1514.1914 1204.1094,1514.4727 Q1203.8125,1514.7539 1203.0781,1514.7539 L1202.6094,1514.7539 L1205.5,1521.6602 Z " fill="#000000"/><text fill="#000000" font-family="sans-serif" font-size="20" lengthAdjust="spacing" textLength="97.8125" x="1220" y="1525.7656">RoomType</text></g><!--class CurrentStatus--><g id="elem_CurrentStatus"><rect codeLine="143" fill="#F1F1F1" height="35.1563" id="CurrentStatus" rx="2.5" ry="2.5" style="stroke:#181818;stroke-width:0.5;" width="157.3887" x="1176.5" y="1430.0039"/><ellipse cx="1192.5" cy="1447.582" fill="#ADD8E6" rx="12" ry="12" style="stroke:#181818;stroke-width:1.0;"/><path d="M1193,1451.6602 L1195.8906,1444.7539 L1195.4375,1444.7539 Q1194.7188,1444.7539 1194.4063,1444.4727 Q1194.0938,1444.1914 1194.0938,1443.7383 Q1194.0938,1443.2852 1194.4063,1443.0195 Q1194.7188,1442.7383 1195.4375,1442.7383 L1198.125,1442.7383 Q1198.8438,1442.7383 1199.1563,1443.0195 Q1199.4688,1443.2852 1199.4688,1443.7383 Q1199.4688,1444.2852 1199,1444.5977 Q1198.7656,1444.7539 1198.0781,1444.7539 L1193.9688,1454.582 L1192.0469,1454.582 L1187.9375,1444.7539 Q1187.2344,1444.7539 1187.0156,1444.5977 Q1186.5469,1444.2852 1186.5469,1443.7383 Q1186.5469,1443.2852 1186.8594,1443.0195 Q1187.1563,1442.7383 1187.875,1442.7383 L1190.5781,1442.7383 Q1191.2969,1442.7383 1191.5938,1443.0195 Q1191.9063,1443.2852 1191.9063,1443.7383 Q1191.9063,1444.1914 1191.6094,1444.4727 Q1191.3125,1444.7539 1190.5781,1444.7539 L1190.1094,1444.7539 L1193,1451.6602 Z " fill="#000000"/><text fill="#000000" font-family="sans-serif" font-size="20" lengthAdjust="spacing" textLength="123.3887" x="1207.5" y="1455.7656">CurrentStatus</text></g><!--class AssignedEquipment--><g id="elem_AssignedEquipment"><rect codeLine="145" fill="#F1F1F1" height="35.1563" id="AssignedEquipment" rx="2.5" ry="2.5" style="stroke:#181818;stroke-width:0.5;" width="211.8906" x="1149" y="1360.0039"/><ellipse cx="1165" cy="1377.582" fill="#ADD8E6" rx="12" ry="12" style="stroke:#181818;stroke-width:1.0;"/><path d="M1165.5,1381.6602 L1168.3906,1374.7539 L1167.9375,1374.7539 Q1167.2188,1374.7539 1166.9063,1374.4727 Q1166.5938,1374.1914 1166.5938,1373.7383 Q1166.5938,1373.2852 1166.9063,1373.0195 Q1167.2188,1372.7383 1167.9375,1372.7383 L1170.625,1372.7383 Q1171.3438,1372.7383 1171.6563,1373.0195 Q1171.9688,1373.2852 1171.9688,1373.7383 Q1171.9688,1374.2852 1171.5,1374.5977 Q1171.2656,1374.7539 1170.5781,1374.7539 L1166.4688,1384.582 L1164.5469,1384.582 L1160.4375,1374.7539 Q1159.7344,1374.7539 1159.5156,1374.5977 Q1159.0469,1374.2852 1159.0469,1373.7383 Q1159.0469,1373.2852 1159.3594,1373.0195 Q1159.6563,1372.7383 1160.375,1372.7383 L1163.0781,1372.7383 Q1163.7969,1372.7383 1164.0938,1373.0195 Q1164.4063,1373.2852 1164.4063,1373.7383 Q1164.4063,1374.1914 1164.1094,1374.4727 Q1163.8125,1374.7539 1163.0781,1374.7539 L1162.6094,1374.7539 L1165.5,1381.6602 Z " fill="#000000"/><text fill="#000000" font-family="sans-serif" font-size="20" lengthAdjust="spacing" textLength="177.8906" x="1180" y="1385.7656">AssignedEquipment</text></g><!--class Capacity--><g id="elem_Capacity"><rect codeLine="147" fill="#F1F1F1" height="35.1563" id="Capacity" rx="2.5" ry="2.5" style="stroke:#181818;stroke-width:0.5;" width="111.8125" x="1199" y="1290.0039"/><ellipse cx="1215" cy="1307.582" fill="#ADD8E6" rx="12" ry="12" style="stroke:#181818;stroke-width:1.0;"/><path d="M1215.5,1311.6602 L1218.3906,1304.7539 L1217.9375,1304.7539 Q1217.2188,1304.7539 1216.9063,1304.4727 Q1216.5938,1304.1914 1216.5938,1303.7383 Q1216.5938,1303.2852 1216.9063,1303.0195 Q1217.2188,1302.7383 1217.9375,1302.7383 L1220.625,1302.7383 Q1221.3438,1302.7383 1221.6563,1303.0195 Q1221.9688,1303.2852 1221.9688,1303.7383 Q1221.9688,1304.2852 1221.5,1304.5977 Q1221.2656,1304.7539 1220.5781,1304.7539 L1216.4688,1314.582 L1214.5469,1314.582 L1210.4375,1304.7539 Q1209.7344,1304.7539 1209.5156,1304.5977 Q1209.0469,1304.2852 1209.0469,1303.7383 Q1209.0469,1303.2852 1209.3594,1303.0195 Q1209.6563,1302.7383 1210.375,1302.7383 L1213.0781,1302.7383 Q1213.7969,1302.7383 1214.0938,1303.0195 Q1214.4063,1303.2852 1214.4063,1303.7383 Q1214.4063,1304.1914 1214.1094,1304.4727 Q1213.8125,1304.7539 1213.0781,1304.7539 L1212.6094,1304.7539 L1215.5,1311.6602 Z " fill="#000000"/><text fill="#000000" font-family="sans-serif" font-size="20" lengthAdjust="spacing" textLength="77.8125" x="1230" y="1315.7656">Capacity</text></g><!--reverse link User to FullName--><g id="link_User_FullName"><path codeLine="30" d="M73.9973,506.8198 C79.4873,458.2298 100.16,333.8839 179,262.5039 C196.59,246.5739 220.92,237.8439 243.34,233.0739 " fill="none" id="User-backto-FullName" style="stroke:#181818;stroke-width:1.0;"/><polygon fill="#181818" points="72.65,518.7439,77.2983,513.2309,73.9973,506.8198,69.3489,512.3328,72.65,518.7439" style="stroke:#181818;stroke-width:1.0;"/></g><!--reverse link User to Username--><g id="link_User_Username"><path codeLine="31" d="M103.491,561.3689 C124.581,576.9989 147.66,592.2939 179,606.5039 C198.28,615.2439 220.26,622.3139 240.28,627.7539 " fill="none" id="User-backto-Username" style="stroke:#181818;stroke-width:1.0;"/><polygon fill="#181818" points="93.85,554.2239,96.2888,561.0101,103.491,561.3689,101.0522,554.5828,93.85,554.2239" style="stroke:#181818;stroke-width:1.0;"/></g><!--reverse link User to Password--><g id="link_User_Password"><path codeLine="32" d="M120.0552,543.9178 C156.2352,549.3878 199.91,555.9939 242.37,562.4139 " fill="none" id="User-backto-Password" style="stroke:#181818;stroke-width:1.0;"/><polygon fill="#181818" points="108.19,542.1239,113.5246,546.9759,120.0552,543.9178,114.7205,539.0658,108.19,542.1239" style="stroke:#181818;stroke-width:1.0;"/></g><!--reverse link User to Email--><g id="link_User_Email"><path codeLine="33" d="M120.0551,529.0898 C161.9851,522.7498 218.07,514.2639 261.5,507.7039 " fill="none" id="User-backto-Email" style="stroke:#181818;stroke-width:1.0;"/><polygon fill="#181818" points="108.19,530.8839,114.7206,533.9419,120.0551,529.0898,113.5245,526.0318,108.19,530.8839" style="stroke:#181818;stroke-width:1.0;"/></g><!--reverse link User to Role--><g id="link_User_Role"><path codeLine="34" d="M104.5329,511.588 C140.5829,484.808 200.15,440.5439 248.72,404.4639 " fill="none" id="User-backto-Role" style="stroke:#181818;stroke-width:1.0;"/><polygon fill="#181818" points="94.9,518.7439,102.1018,518.3769,104.5329,511.588,97.3312,511.955,94.9,518.7439" style="stroke:#181818;stroke-width:1.0;"/></g><!--reverse link Staff to UniqueIdentifier--><g id="link_Staff_UniqueIdentifier"><path codeLine="52" d="M1058.7534,627.3776 C1097.2834,638.4476 1146.97,652.7339 1192.82,665.9139 " fill="none" id="Staff-backto-UniqueIdentifier" style="stroke:#181818;stroke-width:1.0;"/><polygon fill="#181818" points="1047.22,624.0639,1051.8822,629.5652,1058.7534,627.3776,1054.0913,621.8763,1047.22,624.0639" style="stroke:#181818;stroke-width:1.0;"/></g><!--reverse link Staff to Specialization--><g id="link_Staff_Specialization"><path codeLine="53" d="M1059.22,613.5039 C1093.3,613.5039 1133.13,613.5039 1176.37,613.5039 " fill="none" id="Staff-backto-Specialization" style="stroke:#181818;stroke-width:1.0;"/><polygon fill="#181818" points="1047.22,613.5039,1053.22,617.5039,1059.22,613.5039,1053.22,609.5039,1047.22,613.5039" style="stroke:#181818;stroke-width:1.0;"/></g><!--reverse link Staff to AvailableSlots--><g id="link_Staff_AvailableSlots"><path codeLine="54" d="M1038.6577,639.4024 C1064.1877,662.3324 1102.56,694.0139 1149,718.5039 C1161.83,725.2739 1176.23,731.0939 1190.15,735.9339 " fill="none" id="Staff-backto-AvailableSlots" style="stroke:#181818;stroke-width:1.0;"/><polygon fill="#181818" points="1029.73,631.3839,1031.521,638.3691,1038.6577,639.4024,1036.8667,632.4173,1029.73,631.3839" style="stroke:#181818;stroke-width:1.0;"/></g><!--reverse link Patient to MedicalConditions--><g id="link_Patient_MedicalConditions"><path codeLine="89" d="M129.9276,997.5592 C155.8376,992.7392 177.13,988.7939 208.11,983.0339 " fill="none" id="Patient-backto-MedicalConditions" style="stroke:#181818;stroke-width:1.0;"/><polygon fill="#181818" points="118.13,999.7539,124.7604,1002.5891,129.9276,997.5592,123.2972,994.724,118.13,999.7539" style="stroke:#181818;stroke-width:1.0;"/></g><!--reverse link Patient to EmergencyContact--><g id="link_Patient_EmergencyContact"><path codeLine="90" d="M99.8772,983.1867 C120.5572,965.6267 145.48,946.7239 179,930.5039 C193.34,923.5639 209.31,917.7639 224.87,913.0239 " fill="none" id="Patient-backto-EmergencyContact" style="stroke:#181818;stroke-width:1.0;"/><polygon fill="#181818" points="90.73,990.9539,97.8927,990.1194,99.8772,983.1867,92.7145,984.0213,90.73,990.9539" style="stroke:#181818;stroke-width:1.0;"/></g><!--reverse link Patient to AppoitmentHistory--><g id="link_Patient_AppoitmentHistory"><path codeLine="91" d="M78.4854,1037.697 C89.1154,1076.967 117.06,1160.6139 179,1210.5039 C187.94,1217.7039 198.28,1223.4239 209.1,1227.9639 " fill="none" id="Patient-backto-AppoitmentHistory" style="stroke:#181818;stroke-width:1.0;"/><polygon fill="#181818" points="75.35,1026.1139,73.0567,1032.9506,78.4854,1037.697,80.7788,1030.8603,75.35,1026.1139" style="stroke:#181818;stroke-width:1.0;"/></g><!--reverse link Patient to MedicalRecordsNumber--><g id="link_Patient_MedicalRecordsNumber"><path codeLine="92" d="M86.7372,1036.7878 C103.1872,1065.2978 133.2,1110.4539 179,1140.5039 C189.9,1147.6539 202.27,1153.3639 214.86,1157.9239 " fill="none" id="Patient-backto-MedicalRecordsNumber" style="stroke:#181818;stroke-width:1.0;"/><polygon fill="#181818" points="80.74,1026.3939,80.274,1033.5899,86.7372,1036.7878,87.2032,1029.5918,80.74,1026.3939" style="stroke:#181818;stroke-width:1.0;"/></g><!--reverse link Patient to Gender--><g id="link_Patient_Gender"><path codeLine="93" d="M107.6885,1032.675 C128.9885,1046.255 149.91,1058.2539 179,1070.5039 C202.62,1080.4539 229.94,1088.5239 252.87,1094.4039 " fill="none" id="Patient-backto-Gender" style="stroke:#181818;stroke-width:1.0;"/><polygon fill="#181818" points="97.57,1026.2239,100.4789,1032.8223,107.6885,1032.675,104.7796,1026.0766,97.57,1026.2239" style="stroke:#181818;stroke-width:1.0;"/></g><!--reverse link Patient to DateOfBirth--><g id="link_Patient_DateOfBirth"><path codeLine="94" d="M130.0492,1015.394 C163.4892,1019.294 196.98,1023.1939 234.37,1027.5539 " fill="none" id="Patient-backto-DateOfBirth" style="stroke:#181818;stroke-width:1.0;"/><polygon fill="#181818" points="118.13,1014.0039,123.6262,1018.672,130.0492,1015.394,124.553,1010.7259,118.13,1014.0039" style="stroke:#181818;stroke-width:1.0;"/></g><!--reverse link OperationRequest to Priority--><g id="link_OperationRequest_Priority"><path codeLine="105" d="M1634.0536,763.6413 C1683.2036,769.5713 1728.73,775.0539 1768.16,779.8039 " fill="none" id="OperationRequest-backto-Priority" style="stroke:#181818;stroke-width:1.0;"/><polygon fill="#181818" points="1622.14,762.2039,1627.6177,766.8938,1634.0536,763.6413,1628.5759,758.9514,1622.14,762.2039" style="stroke:#181818;stroke-width:1.0;"/></g><!--reverse link OperationRequest to Deadline--><g id="link_OperationRequest_Deadline"><path codeLine="106" d="M1634.0537,737.367 C1679.9037,731.837 1721.06,726.8839 1759.98,722.1939 " fill="none" id="OperationRequest-backto-Deadline" style="stroke:#181818;stroke-width:1.0;"/><polygon fill="#181818" points="1622.14,738.8039,1628.5758,742.0567,1634.0537,737.367,1627.6179,734.1142,1622.14,738.8039" style="stroke:#181818;stroke-width:1.0;"/></g><!--reverse link OperationType to Name--><g id="link_OperationType_Name"><path codeLine="117" d="M671.04,468.5039 C702.48,468.5039 725.09,468.5039 751.38,468.5039 " fill="none" id="OperationType-backto-Name" style="stroke:#181818;stroke-width:1.0;"/><polygon fill="#181818" points="659.04,468.5039,665.04,472.5039,671.04,468.5039,665.04,464.5039,659.04,468.5039" style="stroke:#181818;stroke-width:1.0;"/></g><!--reverse link OperationType to Description--><g id="link_OperationType_Description"><path codeLine="118" d="M642.9007,489.7574 C675.9207,500.4074 706.48,510.2739 739.5,520.9239 " fill="none" id="OperationType-backto-Description" style="stroke:#181818;stroke-width:1.0;"/><polygon fill="#181818" points="631.48,486.0739,635.9625,491.7226,642.9007,489.7574,638.4182,484.1088,631.48,486.0739" style="stroke:#181818;stroke-width:1.0;"/></g><!--reverse link OperationType to Duration--><g id="link_OperationType_Duration"><path codeLine="119" d="M642.8995,447.2469 C676.0395,436.5469 706.8,426.6339 739.88,415.9639 " fill="none" id="OperationType-backto-Duration" style="stroke:#181818;stroke-width:1.0;"/><polygon fill="#181818" points="631.48,450.9339,638.4188,452.8969,642.8995,447.2469,635.9607,445.2839,631.48,450.9339" style="stroke:#181818;stroke-width:1.0;"/></g><!--reverse link Appointment to Date--><g id="link_Appointment_Date"><path codeLine="130" d="M880.1374,1030.5896 C914.7874,1035.1496 942.94,1038.8639 971.35,1042.6039 " fill="none" id="Appointment-backto-Date" style="stroke:#181818;stroke-width:1.0;"/><polygon fill="#181818" points="868.24,1029.0239,873.6668,1033.7726,880.1374,1030.5896,874.7106,1025.841,868.24,1029.0239" style="stroke:#181818;stroke-width:1.0;"/></g><!--reverse link Appointment to Time--><g id="link_Appointment_Time"><path codeLine="131" d="M833.7601,1043.3128 C855.7801,1056.8628 877.52,1069.1939 907,1082.5039 C927.39,1091.7139 950.96,1099.9739 970.26,1106.1639 " fill="none" id="Appointment-backto-Time" style="stroke:#181818;stroke-width:1.0;"/><polygon fill="#181818" points="823.54,1037.0239,826.5537,1043.575,833.7601,1043.3128,830.7463,1036.7617,823.54,1037.0239" style="stroke:#181818;stroke-width:1.0;"/></g><!--reverse link Appointment to Status--><g id="link_Appointment_Status"><path codeLine="132" d="M880.0125,1002.8984 C911.6525,996.6484 936.03,991.8239 963.7,986.3539 " fill="none" id="Appointment-backto-Status" style="stroke:#181818;stroke-width:1.0;"/><polygon fill="#181818" points="868.24,1005.2239,874.9014,1007.9853,880.0125,1002.8984,873.3511,1000.137,868.24,1005.2239" style="stroke:#181818;stroke-width:1.0;"/></g><!--reverse link SurgeryRoom to RoomNumber--><g id="link_SurgeryRoom_RoomNumber"><path codeLine="149" d="M1044.8556,1333.9292 C1071.7956,1315.0992 1106.98,1292.2239 1149,1272.5039 C1163,1265.9339 1178.58,1260.0339 1193.36,1255.0339 " fill="none" id="SurgeryRoom-backto-RoomNumber" style="stroke:#181818;stroke-width:1.0;"/><polygon fill="#181818" points="1035.02,1340.8039,1042.2294,1340.6451,1044.8556,1333.9292,1037.6462,1334.088,1035.02,1340.8039" style="stroke:#181818;stroke-width:1.0;"/></g><!--reverse link SurgeryRoom to RoomType--><g id="link_SurgeryRoom_RoomType"><path codeLine="150" d="M1033.8023,1385.1371 C1057.6423,1411.7171 1098.2,1453.0139 1149,1482.5039 C1161.3,1489.6439 1175.26,1495.5839 1188.89,1500.4139 " fill="none" id="SurgeryRoom-backto-RoomType" style="stroke:#181818;stroke-width:1.0;"/><polygon fill="#181818" points="1025.79,1376.2039,1026.8184,1383.3413,1033.8023,1385.1371,1032.7739,1377.9997,1025.79,1376.2039" style="stroke:#181818;stroke-width:1.0;"/></g><!--reverse link SurgeryRoom to CurrentStatus--><g id="link_SurgeryRoom_CurrentStatus"><path codeLine="151" d="M1065.0968,1380.5379 C1092.2868,1391.3779 1116.96,1400.9239 1149,1412.5039 C1165.35,1418.4139 1183.27,1424.5239 1199.59,1429.9439 " fill="none" id="SurgeryRoom-backto-CurrentStatus" style="stroke:#181818;stroke-width:1.0;"/><polygon fill="#181818" points="1053.95,1376.0939,1058.0421,1382.0315,1065.0968,1380.5379,1061.0047,1374.6003,1053.95,1376.0939" style="stroke:#181818;stroke-width:1.0;"/></g><!--reverse link SurgeryRoom to AssignedEquipment--><g id="link_SurgeryRoom_AssignedEquipment"><path codeLine="152" d="M1100.1736,1365.4981 C1119.3836,1366.9981 1128.32,1367.6939 1148.6,1369.2839 " fill="none" id="SurgeryRoom-backto-AssignedEquipment" style="stroke:#181818;stroke-width:1.0;"/><polygon fill="#181818" points="1088.21,1364.5639,1093.8804,1369.0189,1100.1736,1365.4981,1094.5032,1361.0431,1088.21,1364.5639" style="stroke:#181818;stroke-width:1.0;"/></g><!--reverse link SurgeryRoom to Capacity--><g id="link_SurgeryRoom_Capacity"><path codeLine="153" d="M1099.9552,1339.7641 C1136.0052,1332.2141 1166.26,1325.8839 1198.97,1319.0339 " fill="none" id="SurgeryRoom-backto-Capacity" style="stroke:#181818;stroke-width:1.0;"/><polygon fill="#181818" points="1088.21,1342.2239,1094.9025,1344.9091,1099.9552,1339.7641,1093.2627,1337.0789,1088.21,1342.2239" style="stroke:#181818;stroke-width:1.0;"/></g><!--reverse link User to Staff--><g id="link_User_Staff"><path codeLine="157" d="M88.1319,569.9174 C103.8419,599.6374 131.33,643.9839 179,676.5039 C226.23,708.7239 245.33,712.5039 302.5,712.5039 C302.5,712.5039 302.5,712.5039 796,712.5039 C872.11,712.5039 950.41,659.6839 987.1,631.2039 " fill="none" id="User-backto-Staff" style="stroke:#181818;stroke-width:1.0;"/><polygon fill="none" points="79.72,554.0039,82.8274,572.7214,93.4364,567.1135,79.72,554.0039" style="stroke:#181818;stroke-width:1.0;"/></g><!--reverse link User to Patient--><g id="link_User_Patient"><path codeLine="158" d="M70,572.2539 C70,717.8339 70,845.4139 70,990.9839 " fill="none" id="User-backto-Patient" style="stroke:#181818;stroke-width:1.0;"/><polygon fill="none" points="70,554.2539,64,572.2539,76,572.2539,70,554.2539" style="stroke:#181818;stroke-width:1.0;"/></g><!--reverse link User to Admin--><g id="link_User_Admin"><path codeLine="159" d="M70,500.9039 C70,369.6639 70,256.4239 70,125.1839 " fill="none" id="User-backto-Admin" style="stroke:#181818;stroke-width:1.0;"/><polygon fill="none" points="70,518.9039,76,500.9039,64,500.9039,70,518.9039" style="stroke:#181818;stroke-width:1.0;"/></g><!--reverse link Staff to Doctor--><g id="link_Staff_Doctor"><path codeLine="161" d="M1028.4427,580.0286 C1047.3227,545.9486 1085.28,487.8939 1149,459.5039 C1363.82,363.7839 1657.66,420.0539 1769.63,447.3139 " fill="none" id="Staff-backto-Doctor" style="stroke:#181818;stroke-width:1.0;"/><polygon fill="none" points="1019.72,595.7739,1033.6912,582.9362,1023.1943,577.121,1019.72,595.7739" style="stroke:#181818;stroke-width:1.0;"/></g><!--reverse link Staff to Nurse--><g id="link_Staff_Nurse"><path codeLine="162" d="M1009.5,577.6739 C1009.5,470.1539 1009.5,380.6339 1009.5,273.1139 " fill="none" id="Staff-backto-Nurse" style="stroke:#181818;stroke-width:1.0;"/><polygon fill="none" points="1009.5,595.6739,1015.5,577.6739,1003.5,577.6739,1009.5,595.6739" style="stroke:#181818;stroke-width:1.0;"/></g><!--reverse link Staff to Technician--><g id="link_Staff_Technician"><path codeLine="163" d="M1062.3157,587.9667 C1108.4157,565.2467 1172.09,533.8739 1218.24,511.1239 " fill="none" id="Staff-backto-Technician" style="stroke:#181818;stroke-width:1.0;"/><polygon fill="none" points="1046.17,595.9239,1064.9681,593.3485,1059.6632,582.5848,1046.17,595.9239" style="stroke:#181818;stroke-width:1.0;"/></g><!--reverse link Appointment to SurgeryRoom--><g id="link_Appointment_SurgeryRoom"><path codeLine="165" d="M816.6901,1052.5053 C853.4101,1111.0853 960.92,1282.6039 997.48,1340.9339 " fill="none" id="Appointment-backto-SurgeryRoom" style="stroke:#181818;stroke-width:1.0;"/><polygon fill="none" points="807.13,1037.2539,811.6063,1055.692,821.7739,1049.3186,807.13,1037.2539" style="stroke:#181818;stroke-width:1.0;"/></g><!--link OperationType to OperationRequest--><g id="link_OperationType_OperationRequest"><path codeLine="167" d="M590.92,450.8039 C622.57,412.7439 704.18,326.5039 794,326.5039 C794,326.5039 794,326.5039 1256,326.5039 C1451.29,326.5039 1507.7208,640.702 1519.0608,720.942 " fill="none" id="OperationType-to-OperationRequest" style="stroke:#181818;stroke-width:1.0;"/><polygon fill="#181818" points="1520.74,732.8239,1523.861,726.3232,1519.0608,720.942,1515.9397,727.4427,1520.74,732.8239" style="stroke:#181818;stroke-width:1.0;"/></g><!--reverse link OperationType to Staff--><g id="link_OperationType_Staff"><path codeLine="168" d="M599.0627,495.2893 C619.7627,519.5293 652.82,553.2539 698,573.5039 C790,614.7439 911.7,617.2239 971.76,615.4539 " fill="none" id="OperationType-backto-Staff" style="stroke:#181818;stroke-width:1.0;"/><polygon fill="none" points="591.27,486.1639,592.1246,493.3242,599.0627,495.2893,598.2082,488.129,591.27,486.1639" style="stroke:#181818;stroke-width:1.0;"/><text fill="#000000" font-family="sans-serif" font-size="20" lengthAdjust="spacing" textLength="30.0195" x="934.0055" y="638.338">0..*</text></g><!--link Appointment to Staff--><g id="link_Appointment_Staff"><path codeLine="170" d="M807.03,1002.0039 C824.51,974.0039 859.34,917.2439 886,867.5039 C932.72,780.3339 977.058,683.528 995.758,641.948 " fill="none" id="Appointment-to-Staff" style="stroke:#181818;stroke-width:1.0;"/><polygon fill="none" points="1000.68,631.0039,994.571,634.8353,995.758,641.948,1001.8671,638.1166,1000.68,631.0039" style="stroke:#181818;stroke-width:1.0;"/><text fill="#000000" font-family="sans-serif" font-size="20" lengthAdjust="spacing" textLength="30.0195" x="1002.3257" y="659.8281">1..*</text></g><!--link Appointment to OperationRequest--><g id="link_Appointment_OperationRequest"><path codeLine="171" d="M815.73,1001.9239 C836.81,984.1139 871.95,957.1839 907,942.5039 C1110.18,857.4139 1193.15,940.9439 1394,850.5039 C1439.22,830.1439 1474.3595,799.3236 1497.4695,776.5136 " fill="none" id="Appointment-to-OperationRequest" style="stroke:#181818;stroke-width:1.0;"/><polygon fill="#181818" points="1506.01,768.0839,1498.9298,769.4519,1497.4695,776.5136,1504.5496,775.1456,1506.01,768.0839" style="stroke:#181818;stroke-width:1.0;"/></g><!--reverse link OperationRequest to Doctor--><g id="link_OperationRequest_Doctor"><path codeLine="173" d="M1546.9694,728.488 C1598.9594,676.418 1746.31,528.8139 1798,477.0339 " fill="none" id="OperationRequest-backto-Doctor" style="stroke:#181818;stroke-width:1.0;"/><polygon fill="#181818" points="1542.73,732.7339,1551.9197,729.1913,1546.2628,729.1957,1546.2585,723.5388,1542.73,732.7339" style="stroke:#181818;stroke-width:1.0;"/><text fill="#000000" font-family="sans-serif" font-size="20" lengthAdjust="spacing" textLength="76.709" x="1653" y="539.2656">requests</text></g><!--reverse link Patient to OperationRequest--><g id="link_Patient_OperationRequest"><path codeLine="175" d="M81.5842,985.5833 C96.6142,954.5333 129.53,895.2239 179,860.5039 C225.8,827.6539 245.33,824.5039 302.5,824.5039 C302.5,824.5039 302.5,824.5039 1256,824.5039 C1340.18,824.5039 1434.04,789.9239 1485.01,768.0439 " fill="none" id="Patient-backto-OperationRequest" style="stroke:#181818;stroke-width:1.0;"/><polygon fill="#181818" points="78.97,990.9839,86.4916,984.6259,81.1485,986.4834,79.2909,981.1403,78.97,990.9839" style="stroke:#181818;stroke-width:1.0;"/><text fill="#000000" font-family="sans-serif" font-size="20" lengthAdjust="spacing" textLength="23.3398" x="783.5" y="819.2656">for</text><text fill="#000000" font-family="sans-serif" font-size="20" lengthAdjust="spacing" textLength="11.123" x="68.8834" y="978.6778">1</text><text fill="#000000" font-family="sans-serif" font-size="20" lengthAdjust="spacing" textLength="11.123" x="1462.0263" y="796.8789">1</text></g><!--SRC=[bLPBRzim3BxhLmWvRSLSj3iMmO2kQRST-a3IxQxOT29Kbbn9tf1s_U_JmtOjMu4r7zg8_2YIdqXAwedocaXICP4_GO4BA4d3z8tWUaDV07y-Gvfg1dWbAa8vlXK5C8Jsj00CLQqFk0Az5uKQYeZMacuR3GeX1gN6Mc19TtkD2oeXrrHmPBwQv4za1tYX3af3zLE1NE1NXDlF_G1kt1-mrU7NDzJBSqQKmZSDOtUa0hnSVlZr2JFhOyiQ-FZbImHjD-79w0Vpvu-GHHhwsh33vg30cmgl1Oj7q2T-MLIKzwkLoBMG_VA1Q6f8wTTtZLJGhnuXttEQK-Bjtv3xvzWxoRAUhr3QyH9Ak_n3gSip5Dc4qDlWE8cDlpl9uIcwn2mZGxJIf2mjUeZSM67i23bzRk17OM4bDG4a7Swc1aC9eo_4bbwQpULlaoZPCjWmeTMSZO_NaJcASAGEGnafGvz66H1Lk4A8yUfBP4mijvKHWxkI6QDrNpana_Uw6jlLlXx71zYMQOJOMoXeJjYLu0Mr7AZK1WEv0vuVZA4ckKuynReML5ScakzK6OuEQMPjZ6l8JGEekwRQffRQD-15AdP5DDoNNwdK-pc3ZavR9HC29uWnLnF0X9PZJW869Y2Vx4Gyo2ie5L63z1qemVI8cXJDVGTOUtriAaigfCMcCGoaO9JFJlo9OpS0MrV74TtsHxBKXphilrYgZmRKnH80VGOpjrl4OjN8kJ4NM8MHsBJw6oAkNe7A9Qtx-NK4rOOHtWocxBYhk-ZrKFVg8zsIEEurqStiM1bwwwesgdYaLLpX_OINMMCQpqmPAKGrkTEyRcrKaQ2j-7y6ZSKxifFGLusK9emqPjhHgHJTSIYkdnjQkvpJF153HaA33jdmhuWk_wDgcsvK6MGNHKoIYU_JnkwZDEVgtZZBlrdcJxiiUqd_3ki5_jM6_6rk1Ut3xLtWdshzEXk-rj2mk9no41n2ONzbsSba88qWmeQyE3izFLdum0C7MIRmujmgsxH2PNH_D1c1ownB4bzq8zsy-BkhO76-i13tkSLaWmjS6eB-0G00]--></g></svg>