<svg xmlns="http://www.w3.org/2000/svg" xmlns:xlink="http://www.w3.org/1999/xlink" contentStyleType="text/css" height="1208px" preserveAspectRatio="none" style="width:1857px;height:1208px;background:#FFFFFF;" version="1.1" viewBox="0 0 1857 1208" width="1857px" zoomAndPan="magnify"><title>Class Diagram - As an Admin, I want to create a new staff profile, so that I can add them to the hospital&#8217;s roster.</title><defs/><g><text fill="#000000" font-family="sans-serif" font-size="14" font-weight="bold" lengthAdjust="spacing" textLength="742.1504" x="550.6201" y="24.5332">Class Diagram - As an Admin, I want to create a new staff profile, so that I can add them to the hospital&#8217;s roster.</text><!--class Admin--><g id="elem_Admin"><rect codeLine="8" fill="#F1F1F1" height="51.1563" id="Admin" rx="2.5" ry="2.5" style="stroke:#181818;stroke-width:0.5;" width="90.6895" x="540" y="372.6094"/><ellipse cx="556" cy="390.1875" fill="#C2C2C2" rx="12" ry="12" style="stroke:#181818;stroke-width:1.0;"/><path d="M558.1406,385.1094 Q558.3281,384.8594 558.5469,384.7344 Q558.7656,384.5938 559.0156,384.5938 Q559.4531,384.5938 559.7344,384.9063 Q560.0156,385.2031 560.0156,385.9219 L560.0156,387.625 Q560.0156,388.3438 559.7344,388.6563 Q559.4531,388.9688 559.0156,388.9688 Q558.625,388.9688 558.375,388.7344 Q558.125,388.5156 558.0156,387.9063 Q557.9531,387.4844 557.7344,387.2656 Q557.3438,386.8281 556.625,386.5625 Q555.9063,386.2969 555.1875,386.2969 Q554.2813,386.2969 553.5313,386.6875 Q552.7813,387.0781 552.2031,387.9688 Q551.625,388.8438 551.625,390.0469 L551.625,391.3438 Q551.625,392.7969 552.6719,393.7656 Q553.7344,394.7344 555.5938,394.7344 Q556.7031,394.7344 557.4844,394.4219 Q557.9219,394.25 558.4375,393.7344 Q558.75,393.4219 558.9219,393.3281 Q559.0938,393.2344 559.3281,393.2344 Q559.7188,393.2344 560.0156,393.5469 Q560.3281,393.8438 560.3281,394.25 Q560.3281,394.6563 559.9219,395.125 Q559.3281,395.8125 558.3906,396.2031 Q557.125,396.7344 555.6094,396.7344 Q553.8281,396.7344 552.4063,396 Q551.25,395.4063 550.4375,394.1406 Q549.625,392.875 549.625,391.3906 L549.625,390.0313 Q549.625,388.4688 550.3438,387.125 Q551.0781,385.7656 552.3594,385.0313 Q553.6563,384.2969 555.1094,384.2969 Q555.9688,384.2969 556.7188,384.5 Q557.4844,384.7031 558.1406,385.1094 Z " fill="#000000"/><text fill="#000000" font-family="sans-serif" font-size="20" lengthAdjust="spacing" textLength="56.6895" x="571" y="398.3711">Admin</text><line style="stroke:#181818;stroke-width:0.5;" x1="541" x2="629.6895" y1="407.7656" y2="407.7656"/><line style="stroke:#181818;stroke-width:0.5;" x1="541" x2="629.6895" y1="415.7656" y2="415.7656"/></g><!--class Slots--><g id="elem_Slots"><rect codeLine="11" fill="#F1F1F1" height="126.625" id="Slots" rx="2.5" ry="2.5" style="stroke:#181818;stroke-width:0.5;" width="192.6348" x="845" y="58.1094"/><ellipse cx="914.5859" cy="75.6875" fill="#C2C2C2" rx="12" ry="12" style="stroke:#181818;stroke-width:1.0;"/><path d="M916.7266,70.6094 Q916.9141,70.3594 917.1328,70.2344 Q917.3516,70.0938 917.6016,70.0938 Q918.0391,70.0938 918.3203,70.4063 Q918.6016,70.7031 918.6016,71.4219 L918.6016,73.125 Q918.6016,73.8438 918.3203,74.1563 Q918.0391,74.4688 917.6016,74.4688 Q917.2109,74.4688 916.9609,74.2344 Q916.7109,74.0156 916.6016,73.4063 Q916.5391,72.9844 916.3203,72.7656 Q915.9297,72.3281 915.2109,72.0625 Q914.4922,71.7969 913.7734,71.7969 Q912.8672,71.7969 912.1172,72.1875 Q911.3672,72.5781 910.7891,73.4688 Q910.2109,74.3438 910.2109,75.5469 L910.2109,76.8438 Q910.2109,78.2969 911.2578,79.2656 Q912.3203,80.2344 914.1797,80.2344 Q915.2891,80.2344 916.0703,79.9219 Q916.5078,79.75 917.0234,79.2344 Q917.3359,78.9219 917.5078,78.8281 Q917.6797,78.7344 917.9141,78.7344 Q918.3047,78.7344 918.6016,79.0469 Q918.9141,79.3438 918.9141,79.75 Q918.9141,80.1563 918.5078,80.625 Q917.9141,81.3125 916.9766,81.7031 Q915.7109,82.2344 914.1953,82.2344 Q912.4141,82.2344 910.9922,81.5 Q909.8359,80.9063 909.0234,79.6406 Q908.2109,78.375 908.2109,76.8906 L908.2109,75.5313 Q908.2109,73.9688 908.9297,72.625 Q909.6641,71.2656 910.9453,70.5313 Q912.2422,69.7969 913.6953,69.7969 Q914.5547,69.7969 915.3047,70 Q916.0703,70.2031 916.7266,70.6094 Z " fill="#000000"/><text fill="#000000" font-family="sans-serif" font-size="20" lengthAdjust="spacing" textLength="44.4629" x="936.5859" y="83.8711">Slots</text><line style="stroke:#181818;stroke-width:0.5;" x1="846" x2="1036.6348" y1="93.2656" y2="93.2656"/><ellipse cx="856" cy="111.3438" fill="none" rx="3" ry="3" style="stroke:#545454;stroke-width:1.0;"/><text fill="#000000" font-family="sans-serif" font-size="20" lengthAdjust="spacing" textLength="95.6055" x="866" y="118.0273">Date: Date</text><ellipse cx="856" cy="136.5" fill="none" rx="3" ry="3" style="stroke:#545454;stroke-width:1.0;"/><text fill="#000000" font-family="sans-serif" font-size="20" lengthAdjust="spacing" textLength="165.6348" x="866" y="143.1836">StartingHour: Date</text><ellipse cx="856" cy="161.6563" fill="none" rx="3" ry="3" style="stroke:#545454;stroke-width:1.0;"/><text fill="#000000" font-family="sans-serif" font-size="20" lengthAdjust="spacing" textLength="132.2949" x="866" y="168.3398">EndHour: Date</text><line style="stroke:#181818;stroke-width:0.5;" x1="846" x2="1036.6348" y1="176.7344" y2="176.7344"/></g><!--class Staff--><g id="elem_Staff"><rect codeLine="17" fill="#F1F1F1" height="227.25" id="Staff" rx="2.5" ry="2.5" style="stroke:#181818;stroke-width:0.5;" width="304.8809" x="884" y="284.6094"/><ellipse cx="1011.374" cy="302.1875" fill="#C2C2C2" rx="12" ry="12" style="stroke:#181818;stroke-width:1.0;"/><path d="M1013.5146,297.1094 Q1013.7021,296.8594 1013.9209,296.7344 Q1014.1396,296.5938 1014.3896,296.5938 Q1014.8271,296.5938 1015.1084,296.9063 Q1015.3896,297.2031 1015.3896,297.9219 L1015.3896,299.625 Q1015.3896,300.3438 1015.1084,300.6563 Q1014.8271,300.9688 1014.3896,300.9688 Q1013.999,300.9688 1013.749,300.7344 Q1013.499,300.5156 1013.3896,299.9063 Q1013.3271,299.4844 1013.1084,299.2656 Q1012.7178,298.8281 1011.999,298.5625 Q1011.2803,298.2969 1010.5615,298.2969 Q1009.6553,298.2969 1008.9053,298.6875 Q1008.1553,299.0781 1007.5771,299.9688 Q1006.999,300.8438 1006.999,302.0469 L1006.999,303.3438 Q1006.999,304.7969 1008.0459,305.7656 Q1009.1084,306.7344 1010.9678,306.7344 Q1012.0771,306.7344 1012.8584,306.4219 Q1013.2959,306.25 1013.8115,305.7344 Q1014.124,305.4219 1014.2959,305.3281 Q1014.4678,305.2344 1014.7021,305.2344 Q1015.0928,305.2344 1015.3896,305.5469 Q1015.7021,305.8438 1015.7021,306.25 Q1015.7021,306.6563 1015.2959,307.125 Q1014.7021,307.8125 1013.7646,308.2031 Q1012.499,308.7344 1010.9834,308.7344 Q1009.2021,308.7344 1007.7803,308 Q1006.624,307.4063 1005.8115,306.1406 Q1004.999,304.875 1004.999,303.3906 L1004.999,302.0313 Q1004.999,300.4688 1005.7178,299.125 Q1006.4521,297.7656 1007.7334,297.0313 Q1009.0303,296.2969 1010.4834,296.2969 Q1011.3428,296.2969 1012.0928,296.5 Q1012.8584,296.7031 1013.5146,297.1094 Z " fill="#000000"/><text fill="#000000" font-family="sans-serif" font-size="20" lengthAdjust="spacing" textLength="41.1328" x="1033.374" y="310.3711">Staff</text><line style="stroke:#181818;stroke-width:0.5;" x1="885" x2="1187.8809" y1="319.7656" y2="319.7656"/><ellipse cx="895" cy="337.8438" fill="none" rx="3" ry="3" style="stroke:#545454;stroke-width:1.0;"/><text fill="#000000" font-family="sans-serif" font-size="20" lengthAdjust="spacing" textLength="155.5859" x="905" y="344.5273">FirstName: String</text><ellipse cx="895" cy="363" fill="none" rx="3" ry="3" style="stroke:#545454;stroke-width:1.0;"/><text fill="#000000" font-family="sans-serif" font-size="20" lengthAdjust="spacing" textLength="154.5117" x="905" y="369.6836">LastName: String</text><ellipse cx="895" cy="388.1563" fill="none" rx="3" ry="3" style="stroke:#545454;stroke-width:1.0;"/><text fill="#000000" font-family="sans-serif" font-size="20" lengthAdjust="spacing" textLength="148.9355" x="905" y="394.8398">FullName: String</text><ellipse cx="895" cy="413.3125" fill="none" rx="3" ry="3" style="stroke:#545454;stroke-width:1.0;"/><text fill="#000000" font-family="sans-serif" font-size="20" lengthAdjust="spacing" textLength="161.2012" x="905" y="419.9961">PhoneNumber: int</text><ellipse cx="895" cy="438.4688" fill="none" rx="3" ry="3" style="stroke:#545454;stroke-width:1.0;"/><text fill="#000000" font-family="sans-serif" font-size="20" lengthAdjust="spacing" textLength="194.5215" x="905" y="445.1523">AvailabilitySlots: Slots</text><line style="stroke:#181818;stroke-width:0.5;" x1="885" x2="1187.8809" y1="453.5469" y2="453.5469"/><ellipse cx="895" cy="471.625" fill="#A6A6A6" rx="3" ry="3" style="stroke:#545454;stroke-width:1.0;"/><text fill="#000000" font-family="sans-serif" font-size="20" lengthAdjust="spacing" textLength="222.3145" x="905" y="478.3086">LicenseNumber(ID): long</text><ellipse cx="895" cy="496.7813" fill="#A6A6A6" rx="3" ry="3" style="stroke:#545454;stroke-width:1.0;"/><text fill="#000000" font-family="sans-serif" font-size="20" lengthAdjust="spacing" textLength="277.8809" x="905" y="503.4648">ContactInformation(ID-FK):long</text></g><!--class ContactInformation--><g id="elem_ContactInformation"><rect codeLine="28" fill="#F1F1F1" height="126.625" id="ContactInformation" rx="2.5" ry="2.5" style="stroke:#181818;stroke-width:0.5;" width="202.9746" x="1073" y="58.1094"/><ellipse cx="1089" cy="75.6875" fill="#C2C2C2" rx="12" ry="12" style="stroke:#181818;stroke-width:1.0;"/><path d="M1091.1406,70.6094 Q1091.3281,70.3594 1091.5469,70.2344 Q1091.7656,70.0938 1092.0156,70.0938 Q1092.4531,70.0938 1092.7344,70.4063 Q1093.0156,70.7031 1093.0156,71.4219 L1093.0156,73.125 Q1093.0156,73.8438 1092.7344,74.1563 Q1092.4531,74.4688 1092.0156,74.4688 Q1091.625,74.4688 1091.375,74.2344 Q1091.125,74.0156 1091.0156,73.4063 Q1090.9531,72.9844 1090.7344,72.7656 Q1090.3438,72.3281 1089.625,72.0625 Q1088.9063,71.7969 1088.1875,71.7969 Q1087.2813,71.7969 1086.5313,72.1875 Q1085.7813,72.5781 1085.2031,73.4688 Q1084.625,74.3438 1084.625,75.5469 L1084.625,76.8438 Q1084.625,78.2969 1085.6719,79.2656 Q1086.7344,80.2344 1088.5938,80.2344 Q1089.7031,80.2344 1090.4844,79.9219 Q1090.9219,79.75 1091.4375,79.2344 Q1091.75,78.9219 1091.9219,78.8281 Q1092.0938,78.7344 1092.3281,78.7344 Q1092.7188,78.7344 1093.0156,79.0469 Q1093.3281,79.3438 1093.3281,79.75 Q1093.3281,80.1563 1092.9219,80.625 Q1092.3281,81.3125 1091.3906,81.7031 Q1090.125,82.2344 1088.6094,82.2344 Q1086.8281,82.2344 1085.4063,81.5 Q1084.25,80.9063 1083.4375,79.6406 Q1082.625,78.375 1082.625,76.8906 L1082.625,75.5313 Q1082.625,73.9688 1083.3438,72.625 Q1084.0781,71.2656 1085.3594,70.5313 Q1086.6563,69.7969 1088.1094,69.7969 Q1088.9688,69.7969 1089.7188,70 Q1090.4844,70.2031 1091.1406,70.6094 Z " fill="#000000"/><text fill="#000000" font-family="sans-serif" font-size="20" lengthAdjust="spacing" textLength="168.9746" x="1104" y="83.8711">ContactInformation</text><line style="stroke:#181818;stroke-width:0.5;" x1="1074" x2="1274.9746" y1="93.2656" y2="93.2656"/><ellipse cx="1084" cy="111.3438" fill="none" rx="3" ry="3" style="stroke:#545454;stroke-width:1.0;"/><text fill="#000000" font-family="sans-serif" font-size="20" lengthAdjust="spacing" textLength="63.3691" x="1094" y="118.0273">ID:long</text><ellipse cx="1084" cy="136.5" fill="none" rx="3" ry="3" style="stroke:#545454;stroke-width:1.0;"/><text fill="#000000" font-family="sans-serif" font-size="20" lengthAdjust="spacing" textLength="113.3691" x="1094" y="143.1836">Email: String</text><ellipse cx="1084" cy="161.6563" fill="none" rx="3" ry="3" style="stroke:#545454;stroke-width:1.0;"/><text fill="#000000" font-family="sans-serif" font-size="20" lengthAdjust="spacing" textLength="161.2012" x="1094" y="168.3398">PhoneNumber: int</text><line style="stroke:#181818;stroke-width:0.5;" x1="1074" x2="1274.9746" y1="176.7344" y2="176.7344"/></g><!--class User--><g id="elem_User"><rect codeLine="35" fill="#F1F1F1" height="151.7813" id="User" rx="2.5" ry="2.5" style="stroke:#181818;stroke-width:0.5;" width="182.6152" x="666" y="322.1094"/><ellipse cx="731.6943" cy="339.6875" fill="#C2C2C2" rx="12" ry="12" style="stroke:#181818;stroke-width:1.0;"/><path d="M733.835,334.6094 Q734.0225,334.3594 734.2412,334.2344 Q734.46,334.0938 734.71,334.0938 Q735.1475,334.0938 735.4287,334.4063 Q735.71,334.7031 735.71,335.4219 L735.71,337.125 Q735.71,337.8438 735.4287,338.1563 Q735.1475,338.4688 734.71,338.4688 Q734.3193,338.4688 734.0693,338.2344 Q733.8193,338.0156 733.71,337.4063 Q733.6475,336.9844 733.4287,336.7656 Q733.0381,336.3281 732.3193,336.0625 Q731.6006,335.7969 730.8818,335.7969 Q729.9756,335.7969 729.2256,336.1875 Q728.4756,336.5781 727.8975,337.4688 Q727.3193,338.3438 727.3193,339.5469 L727.3193,340.8438 Q727.3193,342.2969 728.3662,343.2656 Q729.4287,344.2344 731.2881,344.2344 Q732.3975,344.2344 733.1787,343.9219 Q733.6162,343.75 734.1318,343.2344 Q734.4443,342.9219 734.6162,342.8281 Q734.7881,342.7344 735.0225,342.7344 Q735.4131,342.7344 735.71,343.0469 Q736.0225,343.3438 736.0225,343.75 Q736.0225,344.1563 735.6162,344.625 Q735.0225,345.3125 734.085,345.7031 Q732.8193,346.2344 731.3037,346.2344 Q729.5225,346.2344 728.1006,345.5 Q726.9443,344.9063 726.1318,343.6406 Q725.3193,342.375 725.3193,340.8906 L725.3193,339.5313 Q725.3193,337.9688 726.0381,336.625 Q726.7725,335.2656 728.0537,334.5313 Q729.3506,333.7969 730.8037,333.7969 Q731.6631,333.7969 732.4131,334 Q733.1787,334.2031 733.835,334.6094 Z " fill="#000000"/><text fill="#000000" font-family="sans-serif" font-size="20" lengthAdjust="spacing" textLength="42.2266" x="753.6943" y="347.8711">User</text><line style="stroke:#181818;stroke-width:0.5;" x1="667" x2="847.6152" y1="357.2656" y2="357.2656"/><ellipse cx="677" cy="375.3438" fill="none" rx="3" ry="3" style="stroke:#545454;stroke-width:1.0;"/><text fill="#000000" font-family="sans-serif" font-size="20" lengthAdjust="spacing" textLength="68.9258" x="687" y="382.0273">ID: long</text><ellipse cx="677" cy="400.5" fill="none" rx="3" ry="3" style="stroke:#545454;stroke-width:1.0;"/><text fill="#000000" font-family="sans-serif" font-size="20" lengthAdjust="spacing" textLength="155.6152" x="687" y="407.1836">Username: String</text><ellipse cx="677" cy="425.6563" fill="none" rx="3" ry="3" style="stroke:#545454;stroke-width:1.0;"/><text fill="#000000" font-family="sans-serif" font-size="20" lengthAdjust="spacing" textLength="104.4922" x="687" y="432.3398">Role: String</text><ellipse cx="677" cy="450.8125" fill="none" rx="3" ry="3" style="stroke:#545454;stroke-width:1.0;"/><text fill="#000000" font-family="sans-serif" font-size="20" lengthAdjust="spacing" textLength="113.3691" x="687" y="457.4961">Email: String</text><line style="stroke:#181818;stroke-width:0.5;" x1="667" x2="847.6152" y1="465.8906" y2="465.8906"/></g><!--class OperationType--><g id="elem_OperationType"><rect codeLine="42" fill="#F1F1F1" height="151.7813" id="OperationType" rx="2.5" ry="2.5" style="stroke:#181818;stroke-width:0.5;" width="250.4375" x="1311.5" y="45.6094"/><ellipse cx="1366.0713" cy="63.1875" fill="#C2C2C2" rx="12" ry="12" style="stroke:#181818;stroke-width:1.0;"/><path d="M1368.2119,58.1094 Q1368.3994,57.8594 1368.6182,57.7344 Q1368.8369,57.5938 1369.0869,57.5938 Q1369.5244,57.5938 1369.8057,57.9063 Q1370.0869,58.2031 1370.0869,58.9219 L1370.0869,60.625 Q1370.0869,61.3438 1369.8057,61.6563 Q1369.5244,61.9688 1369.0869,61.9688 Q1368.6963,61.9688 1368.4463,61.7344 Q1368.1963,61.5156 1368.0869,60.9063 Q1368.0244,60.4844 1367.8057,60.2656 Q1367.415,59.8281 1366.6963,59.5625 Q1365.9775,59.2969 1365.2588,59.2969 Q1364.3525,59.2969 1363.6025,59.6875 Q1362.8525,60.0781 1362.2744,60.9688 Q1361.6963,61.8438 1361.6963,63.0469 L1361.6963,64.3438 Q1361.6963,65.7969 1362.7432,66.7656 Q1363.8057,67.7344 1365.665,67.7344 Q1366.7744,67.7344 1367.5557,67.4219 Q1367.9932,67.25 1368.5088,66.7344 Q1368.8213,66.4219 1368.9932,66.3281 Q1369.165,66.2344 1369.3994,66.2344 Q1369.79,66.2344 1370.0869,66.5469 Q1370.3994,66.8438 1370.3994,67.25 Q1370.3994,67.6563 1369.9932,68.125 Q1369.3994,68.8125 1368.4619,69.2031 Q1367.1963,69.7344 1365.6807,69.7344 Q1363.8994,69.7344 1362.4775,69 Q1361.3213,68.4063 1360.5088,67.1406 Q1359.6963,65.875 1359.6963,64.3906 L1359.6963,63.0313 Q1359.6963,61.4688 1360.415,60.125 Q1361.1494,58.7656 1362.4307,58.0313 Q1363.7275,57.2969 1365.1807,57.2969 Q1366.04,57.2969 1366.79,57.5 Q1367.5557,57.7031 1368.2119,58.1094 Z " fill="#000000"/><text fill="#000000" font-family="sans-serif" font-size="20" lengthAdjust="spacing" textLength="132.2949" x="1388.0713" y="71.3711">OperationType</text><line style="stroke:#181818;stroke-width:0.5;" x1="1312.5" x2="1560.9375" y1="80.7656" y2="80.7656"/><ellipse cx="1322.5" cy="98.8438" fill="none" rx="3" ry="3" style="stroke:#545454;stroke-width:1.0;"/><text fill="#000000" font-family="sans-serif" font-size="20" lengthAdjust="spacing" textLength="63.3691" x="1332.5" y="105.5273">ID:long</text><ellipse cx="1322.5" cy="124" fill="none" rx="3" ry="3" style="stroke:#545454;stroke-width:1.0;"/><text fill="#000000" font-family="sans-serif" font-size="20" lengthAdjust="spacing" textLength="111.1523" x="1332.5" y="130.6836">Name:String</text><ellipse cx="1322.5" cy="149.1563" fill="none" rx="3" ry="3" style="stroke:#545454;stroke-width:1.0;"/><text fill="#000000" font-family="sans-serif" font-size="20" lengthAdjust="spacing" textLength="93.3789" x="1332.5" y="155.8398">Staff: Staff</text><ellipse cx="1322.5" cy="174.3125" fill="none" rx="3" ry="3" style="stroke:#545454;stroke-width:1.0;"/><text fill="#000000" font-family="sans-serif" font-size="20" lengthAdjust="spacing" textLength="223.4375" x="1332.5" y="180.9961">EstimatedDuration : Date</text><line style="stroke:#181818;stroke-width:0.5;" x1="1312.5" x2="1560.9375" y1="189.3906" y2="189.3906"/></g><!--class SessionManager--><g id="elem_SessionManager"><rect codeLine="52" fill="#F1F1F1" height="101.4688" id="SessionManager" rx="2.5" ry="2.5" style="stroke:#181818;stroke-width:0.5;" width="562.8203" x="7" y="704.6094"/><ellipse cx="208.8662" cy="722.1875" fill="#C2C2C2" rx="12" ry="12" style="stroke:#181818;stroke-width:1.0;"/><path d="M211.0068,717.1094 Q211.1943,716.8594 211.4131,716.7344 Q211.6318,716.5938 211.8818,716.5938 Q212.3193,716.5938 212.6006,716.9063 Q212.8818,717.2031 212.8818,717.9219 L212.8818,719.625 Q212.8818,720.3438 212.6006,720.6563 Q212.3193,720.9688 211.8818,720.9688 Q211.4912,720.9688 211.2412,720.7344 Q210.9912,720.5156 210.8818,719.9063 Q210.8193,719.4844 210.6006,719.2656 Q210.21,718.8281 209.4912,718.5625 Q208.7725,718.2969 208.0537,718.2969 Q207.1475,718.2969 206.3975,718.6875 Q205.6475,719.0781 205.0693,719.9688 Q204.4912,720.8438 204.4912,722.0469 L204.4912,723.3438 Q204.4912,724.7969 205.5381,725.7656 Q206.6006,726.7344 208.46,726.7344 Q209.5693,726.7344 210.3506,726.4219 Q210.7881,726.25 211.3037,725.7344 Q211.6162,725.4219 211.7881,725.3281 Q211.96,725.2344 212.1943,725.2344 Q212.585,725.2344 212.8818,725.5469 Q213.1943,725.8438 213.1943,726.25 Q213.1943,726.6563 212.7881,727.125 Q212.1943,727.8125 211.2568,728.2031 Q209.9912,728.7344 208.4756,728.7344 Q206.6943,728.7344 205.2725,728 Q204.1162,727.4063 203.3037,726.1406 Q202.4912,724.875 202.4912,723.3906 L202.4912,722.0313 Q202.4912,720.4688 203.21,719.125 Q203.9443,717.7656 205.2256,717.0313 Q206.5225,716.2969 207.9756,716.2969 Q208.835,716.2969 209.585,716.5 Q210.3506,716.7031 211.0068,717.1094 Z " fill="#000000"/><text fill="#000000" font-family="sans-serif" font-size="20" lengthAdjust="spacing" textLength="150.0879" x="230.8662" y="730.3711">SessionManager</text><line style="stroke:#181818;stroke-width:0.5;" x1="8" x2="568.8203" y1="739.7656" y2="739.7656"/><line style="stroke:#181818;stroke-width:0.5;" x1="8" x2="568.8203" y1="747.7656" y2="747.7656"/><ellipse cx="18" cy="765.8438" fill="#A6A6A6" rx="3" ry="3" style="stroke:#545454;stroke-width:1.0;"/><text fill="#000000" font-family="sans-serif" font-size="20" lengthAdjust="spacing" textLength="535.8203" x="28" y="772.5273">CreateSession(SessionToken token, Admin admin): Session</text><ellipse cx="18" cy="791" fill="#A6A6A6" rx="3" ry="3" style="stroke:#545454;stroke-width:1.0;"/><text fill="#000000" font-family="sans-serif" font-size="20" lengthAdjust="spacing" textLength="217.8906" x="28" y="797.6836">InvalidateSession(): void</text></g><!--class Session--><g id="elem_Session"><rect codeLine="57" fill="#F1F1F1" height="151.7813" id="Session" rx="2.5" ry="2.5" style="stroke:#181818;stroke-width:0.5;" width="214.8516" x="291" y="1049.6094"/><ellipse cx="358.3496" cy="1067.1875" fill="#C2C2C2" rx="12" ry="12" style="stroke:#181818;stroke-width:1.0;"/><path d="M360.4902,1062.1094 Q360.6777,1061.8594 360.8965,1061.7344 Q361.1152,1061.5938 361.3652,1061.5938 Q361.8027,1061.5938 362.084,1061.9063 Q362.3652,1062.2031 362.3652,1062.9219 L362.3652,1064.625 Q362.3652,1065.3438 362.084,1065.6563 Q361.8027,1065.9688 361.3652,1065.9688 Q360.9746,1065.9688 360.7246,1065.7344 Q360.4746,1065.5156 360.3652,1064.9063 Q360.3027,1064.4844 360.084,1064.2656 Q359.6934,1063.8281 358.9746,1063.5625 Q358.2559,1063.2969 357.5371,1063.2969 Q356.6309,1063.2969 355.8809,1063.6875 Q355.1309,1064.0781 354.5527,1064.9688 Q353.9746,1065.8438 353.9746,1067.0469 L353.9746,1068.3438 Q353.9746,1069.7969 355.0215,1070.7656 Q356.084,1071.7344 357.9434,1071.7344 Q359.0527,1071.7344 359.834,1071.4219 Q360.2715,1071.25 360.7871,1070.7344 Q361.0996,1070.4219 361.2715,1070.3281 Q361.4434,1070.2344 361.6777,1070.2344 Q362.0684,1070.2344 362.3652,1070.5469 Q362.6777,1070.8438 362.6777,1071.25 Q362.6777,1071.6563 362.2715,1072.125 Q361.6777,1072.8125 360.7402,1073.2031 Q359.4746,1073.7344 357.959,1073.7344 Q356.1777,1073.7344 354.7559,1073 Q353.5996,1072.4063 352.7871,1071.1406 Q351.9746,1069.875 351.9746,1068.3906 L351.9746,1067.0313 Q351.9746,1065.4688 352.6934,1064.125 Q353.4277,1062.7656 354.709,1062.0313 Q356.0059,1061.2969 357.459,1061.2969 Q358.3184,1061.2969 359.0684,1061.5 Q359.834,1061.7031 360.4902,1062.1094 Z " fill="#000000"/><text fill="#000000" font-family="sans-serif" font-size="20" lengthAdjust="spacing" textLength="71.1523" x="380.3496" y="1075.3711">Session</text><line style="stroke:#181818;stroke-width:0.5;" x1="292" x2="504.8516" y1="1084.7656" y2="1084.7656"/><ellipse cx="302" cy="1102.8438" fill="none" rx="3" ry="3" style="stroke:#545454;stroke-width:1.0;"/><text fill="#000000" font-family="sans-serif" font-size="20" lengthAdjust="spacing" textLength="151.1719" x="312" y="1109.5273">SessionID: string</text><ellipse cx="302" cy="1128" fill="none" rx="3" ry="3" style="stroke:#545454;stroke-width:1.0;"/><text fill="#000000" font-family="sans-serif" font-size="20" lengthAdjust="spacing" textLength="124.4922" x="312" y="1134.6836">Admin: Admin</text><ellipse cx="302" cy="1153.1563" fill="none" rx="3" ry="3" style="stroke:#545454;stroke-width:1.0;"/><text fill="#000000" font-family="sans-serif" font-size="20" lengthAdjust="spacing" textLength="187.8516" x="312" y="1159.8398">CreatedAt: DateTime</text><ellipse cx="302" cy="1178.3125" fill="none" rx="3" ry="3" style="stroke:#545454;stroke-width:1.0;"/><text fill="#000000" font-family="sans-serif" font-size="20" lengthAdjust="spacing" textLength="183.3887" x="312" y="1184.9961">ExpiresAt: DateTime</text><line style="stroke:#181818;stroke-width:0.5;" x1="292" x2="504.8516" y1="1193.3906" y2="1193.3906"/></g><!--class IAMService--><g id="elem_IAMService"><rect codeLine="63" fill="#F1F1F1" height="76.3125" id="IAMService" rx="2.5" ry="2.5" style="stroke:#181818;stroke-width:0.5;" width="528.3574" x="344.5" y="598.6094"/><ellipse cx="553.0557" cy="616.1875" fill="#C2C2C2" rx="12" ry="12" style="stroke:#181818;stroke-width:1.0;"/><path d="M555.1963,611.1094 Q555.3838,610.8594 555.6025,610.7344 Q555.8213,610.5938 556.0713,610.5938 Q556.5088,610.5938 556.79,610.9063 Q557.0713,611.2031 557.0713,611.9219 L557.0713,613.625 Q557.0713,614.3438 556.79,614.6563 Q556.5088,614.9688 556.0713,614.9688 Q555.6807,614.9688 555.4307,614.7344 Q555.1807,614.5156 555.0713,613.9063 Q555.0088,613.4844 554.79,613.2656 Q554.3994,612.8281 553.6807,612.5625 Q552.9619,612.2969 552.2432,612.2969 Q551.3369,612.2969 550.5869,612.6875 Q549.8369,613.0781 549.2588,613.9688 Q548.6807,614.8438 548.6807,616.0469 L548.6807,617.3438 Q548.6807,618.7969 549.7275,619.7656 Q550.79,620.7344 552.6494,620.7344 Q553.7588,620.7344 554.54,620.4219 Q554.9775,620.25 555.4932,619.7344 Q555.8057,619.4219 555.9775,619.3281 Q556.1494,619.2344 556.3838,619.2344 Q556.7744,619.2344 557.0713,619.5469 Q557.3838,619.8438 557.3838,620.25 Q557.3838,620.6563 556.9775,621.125 Q556.3838,621.8125 555.4463,622.2031 Q554.1807,622.7344 552.665,622.7344 Q550.8838,622.7344 549.4619,622 Q548.3057,621.4063 547.4932,620.1406 Q546.6807,618.875 546.6807,617.3906 L546.6807,616.0313 Q546.6807,614.4688 547.3994,613.125 Q548.1338,611.7656 549.415,611.0313 Q550.7119,610.2969 552.165,610.2969 Q553.0244,610.2969 553.7744,610.5 Q554.54,610.7031 555.1963,611.1094 Z " fill="#000000"/><text fill="#000000" font-family="sans-serif" font-size="20" lengthAdjust="spacing" textLength="102.2461" x="575.0557" y="624.3711">IAMService</text><line style="stroke:#181818;stroke-width:0.5;" x1="345.5" x2="871.8574" y1="633.7656" y2="633.7656"/><line style="stroke:#181818;stroke-width:0.5;" x1="345.5" x2="871.8574" y1="641.7656" y2="641.7656"/><ellipse cx="355.5" cy="659.8438" fill="#A6A6A6" rx="3" ry="3" style="stroke:#545454;stroke-width:1.0;"/><text fill="#000000" font-family="sans-serif" font-size="20" lengthAdjust="spacing" textLength="501.3574" x="365.5" y="666.5273">Authenticate(IAMCredentials credentials): SessionToken</text></g><!--class SessionToken--><g id="elem_SessionToken"><rect codeLine="69" fill="#F1F1F1" height="126.625" id="SessionToken" rx="2.5" ry="2.5" style="stroke:#181818;stroke-width:0.5;" width="213.7383" x="447.5" y="835.6094"/><ellipse cx="487.35" cy="853.1875" fill="#C2C2C2" rx="12" ry="12" style="stroke:#181818;stroke-width:1.0;"/><path d="M489.4906,848.1094 Q489.6781,847.8594 489.8969,847.7344 Q490.1156,847.5938 490.3656,847.5938 Q490.8031,847.5938 491.0844,847.9063 Q491.3656,848.2031 491.3656,848.9219 L491.3656,850.625 Q491.3656,851.3438 491.0844,851.6563 Q490.8031,851.9688 490.3656,851.9688 Q489.975,851.9688 489.725,851.7344 Q489.475,851.5156 489.3656,850.9063 Q489.3031,850.4844 489.0844,850.2656 Q488.6938,849.8281 487.975,849.5625 Q487.2563,849.2969 486.5375,849.2969 Q485.6313,849.2969 484.8813,849.6875 Q484.1313,850.0781 483.5531,850.9688 Q482.975,851.8438 482.975,853.0469 L482.975,854.3438 Q482.975,855.7969 484.0219,856.7656 Q485.0844,857.7344 486.9438,857.7344 Q488.0531,857.7344 488.8344,857.4219 Q489.2719,857.25 489.7875,856.7344 Q490.1,856.4219 490.2719,856.3281 Q490.4438,856.2344 490.6781,856.2344 Q491.0688,856.2344 491.3656,856.5469 Q491.6781,856.8438 491.6781,857.25 Q491.6781,857.6563 491.2719,858.125 Q490.6781,858.8125 489.7406,859.2031 Q488.475,859.7344 486.9594,859.7344 Q485.1781,859.7344 483.7563,859 Q482.6,858.4063 481.7875,857.1406 Q480.975,855.875 480.975,854.3906 L480.975,853.0313 Q480.975,851.4688 481.6938,850.125 Q482.4281,848.7656 483.7094,848.0313 Q485.0063,847.2969 486.4594,847.2969 Q487.3188,847.2969 488.0688,847.5 Q488.8344,847.7031 489.4906,848.1094 Z " fill="#000000"/><text fill="#000000" font-family="sans-serif" font-size="20" lengthAdjust="spacing" textLength="126.7383" x="507.65" y="861.3711">SessionToken</text><line style="stroke:#181818;stroke-width:0.5;" x1="448.5" x2="660.2383" y1="870.7656" y2="870.7656"/><ellipse cx="458.5" cy="888.8438" fill="none" rx="3" ry="3" style="stroke:#545454;stroke-width:1.0;"/><text fill="#000000" font-family="sans-serif" font-size="20" lengthAdjust="spacing" textLength="115.6055" x="468.5" y="895.5273">Token: string</text><ellipse cx="458.5" cy="914" fill="none" rx="3" ry="3" style="stroke:#545454;stroke-width:1.0;"/><text fill="#000000" font-family="sans-serif" font-size="20" lengthAdjust="spacing" textLength="186.7383" x="468.5" y="920.6836">Expiration: DateTime</text><line style="stroke:#181818;stroke-width:0.5;" x1="448.5" x2="660.2383" y1="929.0781" y2="929.0781"/><ellipse cx="458.5" cy="947.1563" fill="#A6A6A6" rx="3" ry="3" style="stroke:#545454;stroke-width:1.0;"/><text fill="#000000" font-family="sans-serif" font-size="20" lengthAdjust="spacing" textLength="122.2754" x="468.5" y="953.8398">IsValid(): bool</text></g><!--class OperationTypeController--><g id="elem_OperationTypeController"><rect codeLine="75" fill="#F1F1F1" height="76.3125" id="OperationTypeController" rx="2.5" ry="2.5" style="stroke:#181818;stroke-width:0.5;" width="252.9941" x="1597" y="83.6094"/><ellipse cx="1613" cy="101.1875" fill="#C2C2C2" rx="12" ry="12" style="stroke:#181818;stroke-width:1.0;"/><path d="M1615.1406,96.1094 Q1615.3281,95.8594 1615.5469,95.7344 Q1615.7656,95.5938 1616.0156,95.5938 Q1616.4531,95.5938 1616.7344,95.9063 Q1617.0156,96.2031 1617.0156,96.9219 L1617.0156,98.625 Q1617.0156,99.3438 1616.7344,99.6563 Q1616.4531,99.9688 1616.0156,99.9688 Q1615.625,99.9688 1615.375,99.7344 Q1615.125,99.5156 1615.0156,98.9063 Q1614.9531,98.4844 1614.7344,98.2656 Q1614.3438,97.8281 1613.625,97.5625 Q1612.9063,97.2969 1612.1875,97.2969 Q1611.2813,97.2969 1610.5313,97.6875 Q1609.7813,98.0781 1609.2031,98.9688 Q1608.625,99.8438 1608.625,101.0469 L1608.625,102.3438 Q1608.625,103.7969 1609.6719,104.7656 Q1610.7344,105.7344 1612.5938,105.7344 Q1613.7031,105.7344 1614.4844,105.4219 Q1614.9219,105.25 1615.4375,104.7344 Q1615.75,104.4219 1615.9219,104.3281 Q1616.0938,104.2344 1616.3281,104.2344 Q1616.7188,104.2344 1617.0156,104.5469 Q1617.3281,104.8438 1617.3281,105.25 Q1617.3281,105.6563 1616.9219,106.125 Q1616.3281,106.8125 1615.3906,107.2031 Q1614.125,107.7344 1612.6094,107.7344 Q1610.8281,107.7344 1609.4063,107 Q1608.25,106.4063 1607.4375,105.1406 Q1606.625,103.875 1606.625,102.3906 L1606.625,101.0313 Q1606.625,99.4688 1607.3438,98.125 Q1608.0781,96.7656 1609.3594,96.0313 Q1610.6563,95.2969 1612.1094,95.2969 Q1612.9688,95.2969 1613.7188,95.5 Q1614.4844,95.7031 1615.1406,96.1094 Z " fill="#000000"/><text fill="#000000" font-family="sans-serif" font-size="20" lengthAdjust="spacing" textLength="218.9941" x="1628" y="109.3711">OperationTypeController</text><line style="stroke:#181818;stroke-width:0.5;" x1="1598" x2="1848.9941" y1="118.7656" y2="118.7656"/><text fill="#000000" font-family="sans-serif" font-size="20" lengthAdjust="spacing" textLength="11.6797" x="1603" y="143.5273">+</text><line style="stroke:#181818;stroke-width:0.5;" x1="1598" x2="1848.9941" y1="151.9219" y2="151.9219"/></g><!--class OperationTypeService--><g id="elem_OperationTypeService"><rect codeLine="79" fill="#F1F1F1" height="51.1563" id="OperationTypeService" rx="2.5" ry="2.5" style="stroke:#181818;stroke-width:0.5;" width="232.9844" x="1320" y="372.6094"/><ellipse cx="1336" cy="390.1875" fill="#C2C2C2" rx="12" ry="12" style="stroke:#181818;stroke-width:1.0;"/><path d="M1338.1406,385.1094 Q1338.3281,384.8594 1338.5469,384.7344 Q1338.7656,384.5938 1339.0156,384.5938 Q1339.4531,384.5938 1339.7344,384.9063 Q1340.0156,385.2031 1340.0156,385.9219 L1340.0156,387.625 Q1340.0156,388.3438 1339.7344,388.6563 Q1339.4531,388.9688 1339.0156,388.9688 Q1338.625,388.9688 1338.375,388.7344 Q1338.125,388.5156 1338.0156,387.9063 Q1337.9531,387.4844 1337.7344,387.2656 Q1337.3438,386.8281 1336.625,386.5625 Q1335.9063,386.2969 1335.1875,386.2969 Q1334.2813,386.2969 1333.5313,386.6875 Q1332.7813,387.0781 1332.2031,387.9688 Q1331.625,388.8438 1331.625,390.0469 L1331.625,391.3438 Q1331.625,392.7969 1332.6719,393.7656 Q1333.7344,394.7344 1335.5938,394.7344 Q1336.7031,394.7344 1337.4844,394.4219 Q1337.9219,394.25 1338.4375,393.7344 Q1338.75,393.4219 1338.9219,393.3281 Q1339.0938,393.2344 1339.3281,393.2344 Q1339.7188,393.2344 1340.0156,393.5469 Q1340.3281,393.8438 1340.3281,394.25 Q1340.3281,394.6563 1339.9219,395.125 Q1339.3281,395.8125 1338.3906,396.2031 Q1337.125,396.7344 1335.6094,396.7344 Q1333.8281,396.7344 1332.4063,396 Q1331.25,395.4063 1330.4375,394.1406 Q1329.625,392.875 1329.625,391.3906 L1329.625,390.0313 Q1329.625,388.4688 1330.3438,387.125 Q1331.0781,385.7656 1332.3594,385.0313 Q1333.6563,384.2969 1335.1094,384.2969 Q1335.9688,384.2969 1336.7188,384.5 Q1337.4844,384.7031 1338.1406,385.1094 Z " fill="#000000"/><text fill="#000000" font-family="sans-serif" font-size="20" lengthAdjust="spacing" textLength="198.9844" x="1351" y="398.3711">OperationTypeService</text><line style="stroke:#181818;stroke-width:0.5;" x1="1321" x2="1551.9844" y1="407.7656" y2="407.7656"/><line style="stroke:#181818;stroke-width:0.5;" x1="1321" x2="1551.9844" y1="415.7656" y2="415.7656"/></g><!--class OperationTypeRepository--><g id="elem_OperationTypeRepository"><rect codeLine="82" fill="#F1F1F1" height="51.1563" id="OperationTypeRepository" rx="2.5" ry="2.5" style="stroke:#181818;stroke-width:0.5;" width="261.8906" x="1588.5" y="372.6094"/><ellipse cx="1604.5" cy="390.1875" fill="#C2C2C2" rx="12" ry="12" style="stroke:#181818;stroke-width:1.0;"/><path d="M1606.6406,385.1094 Q1606.8281,384.8594 1607.0469,384.7344 Q1607.2656,384.5938 1607.5156,384.5938 Q1607.9531,384.5938 1608.2344,384.9063 Q1608.5156,385.2031 1608.5156,385.9219 L1608.5156,387.625 Q1608.5156,388.3438 1608.2344,388.6563 Q1607.9531,388.9688 1607.5156,388.9688 Q1607.125,388.9688 1606.875,388.7344 Q1606.625,388.5156 1606.5156,387.9063 Q1606.4531,387.4844 1606.2344,387.2656 Q1605.8438,386.8281 1605.125,386.5625 Q1604.4063,386.2969 1603.6875,386.2969 Q1602.7813,386.2969 1602.0313,386.6875 Q1601.2813,387.0781 1600.7031,387.9688 Q1600.125,388.8438 1600.125,390.0469 L1600.125,391.3438 Q1600.125,392.7969 1601.1719,393.7656 Q1602.2344,394.7344 1604.0938,394.7344 Q1605.2031,394.7344 1605.9844,394.4219 Q1606.4219,394.25 1606.9375,393.7344 Q1607.25,393.4219 1607.4219,393.3281 Q1607.5938,393.2344 1607.8281,393.2344 Q1608.2188,393.2344 1608.5156,393.5469 Q1608.8281,393.8438 1608.8281,394.25 Q1608.8281,394.6563 1608.4219,395.125 Q1607.8281,395.8125 1606.8906,396.2031 Q1605.625,396.7344 1604.1094,396.7344 Q1602.3281,396.7344 1600.9063,396 Q1599.75,395.4063 1598.9375,394.1406 Q1598.125,392.875 1598.125,391.3906 L1598.125,390.0313 Q1598.125,388.4688 1598.8438,387.125 Q1599.5781,385.7656 1600.8594,385.0313 Q1602.1563,384.2969 1603.6094,384.2969 Q1604.4688,384.2969 1605.2188,384.5 Q1605.9844,384.7031 1606.6406,385.1094 Z " fill="#000000"/><text fill="#000000" font-family="sans-serif" font-size="20" lengthAdjust="spacing" textLength="227.8906" x="1619.5" y="398.3711">OperationTypeRepository</text><line style="stroke:#181818;stroke-width:0.5;" x1="1589.5" x2="1849.3906" y1="407.7656" y2="407.7656"/><line style="stroke:#181818;stroke-width:0.5;" x1="1589.5" x2="1849.3906" y1="415.7656" y2="415.7656"/></g><!--class StaffController--><g id="elem_StaffController"><rect fill="#F1F1F1" height="51.1563" id="StaffController" rx="2.5" ry="2.5" style="stroke:#181818;stroke-width:0.5;" width="161.832" x="934.5" y="611.1094"/><ellipse cx="950.5" cy="628.6875" fill="#C2C2C2" rx="12" ry="12" style="stroke:#181818;stroke-width:1.0;"/><path d="M952.6406,623.6094 Q952.8281,623.3594 953.0469,623.2344 Q953.2656,623.0938 953.5156,623.0938 Q953.9531,623.0938 954.2344,623.4063 Q954.5156,623.7031 954.5156,624.4219 L954.5156,626.125 Q954.5156,626.8438 954.2344,627.1563 Q953.9531,627.4688 953.5156,627.4688 Q953.125,627.4688 952.875,627.2344 Q952.625,627.0156 952.5156,626.4063 Q952.4531,625.9844 952.2344,625.7656 Q951.8438,625.3281 951.125,625.0625 Q950.4063,624.7969 949.6875,624.7969 Q948.7813,624.7969 948.0313,625.1875 Q947.2813,625.5781 946.7031,626.4688 Q946.125,627.3438 946.125,628.5469 L946.125,629.8438 Q946.125,631.2969 947.1719,632.2656 Q948.2344,633.2344 950.0938,633.2344 Q951.2031,633.2344 951.9844,632.9219 Q952.4219,632.75 952.9375,632.2344 Q953.25,631.9219 953.4219,631.8281 Q953.5938,631.7344 953.8281,631.7344 Q954.2188,631.7344 954.5156,632.0469 Q954.8281,632.3438 954.8281,632.75 Q954.8281,633.1563 954.4219,633.625 Q953.8281,634.3125 952.8906,634.7031 Q951.625,635.2344 950.1094,635.2344 Q948.3281,635.2344 946.9063,634.5 Q945.75,633.9063 944.9375,632.6406 Q944.125,631.375 944.125,629.8906 L944.125,628.5313 Q944.125,626.9688 944.8438,625.625 Q945.5781,624.2656 946.8594,623.5313 Q948.1563,622.7969 949.6094,622.7969 Q950.4688,622.7969 951.2188,623 Q951.9844,623.2031 952.6406,623.6094 Z " fill="#000000"/><text fill="#000000" font-family="sans-serif" font-size="20" lengthAdjust="spacing" textLength="127.832" x="965.5" y="636.8711">StaffController</text><line style="stroke:#181818;stroke-width:0.5;" x1="935.5" x2="1095.332" y1="646.2656" y2="646.2656"/><line style="stroke:#181818;stroke-width:0.5;" x1="935.5" x2="1095.332" y1="654.2656" y2="654.2656"/></g><!--class StaffService--><g id="elem_StaffService"><rect fill="#F1F1F1" height="51.1563" id="StaffService" rx="2.5" ry="2.5" style="stroke:#181818;stroke-width:0.5;" width="141.8223" x="944.5" y="873.6094"/><ellipse cx="960.5" cy="891.1875" fill="#C2C2C2" rx="12" ry="12" style="stroke:#181818;stroke-width:1.0;"/><path d="M962.6406,886.1094 Q962.8281,885.8594 963.0469,885.7344 Q963.2656,885.5938 963.5156,885.5938 Q963.9531,885.5938 964.2344,885.9063 Q964.5156,886.2031 964.5156,886.9219 L964.5156,888.625 Q964.5156,889.3438 964.2344,889.6563 Q963.9531,889.9688 963.5156,889.9688 Q963.125,889.9688 962.875,889.7344 Q962.625,889.5156 962.5156,888.9063 Q962.4531,888.4844 962.2344,888.2656 Q961.8438,887.8281 961.125,887.5625 Q960.4063,887.2969 959.6875,887.2969 Q958.7813,887.2969 958.0313,887.6875 Q957.2813,888.0781 956.7031,888.9688 Q956.125,889.8438 956.125,891.0469 L956.125,892.3438 Q956.125,893.7969 957.1719,894.7656 Q958.2344,895.7344 960.0938,895.7344 Q961.2031,895.7344 961.9844,895.4219 Q962.4219,895.25 962.9375,894.7344 Q963.25,894.4219 963.4219,894.3281 Q963.5938,894.2344 963.8281,894.2344 Q964.2188,894.2344 964.5156,894.5469 Q964.8281,894.8438 964.8281,895.25 Q964.8281,895.6563 964.4219,896.125 Q963.8281,896.8125 962.8906,897.2031 Q961.625,897.7344 960.1094,897.7344 Q958.3281,897.7344 956.9063,897 Q955.75,896.4063 954.9375,895.1406 Q954.125,893.875 954.125,892.3906 L954.125,891.0313 Q954.125,889.4688 954.8438,888.125 Q955.5781,886.7656 956.8594,886.0313 Q958.1563,885.2969 959.6094,885.2969 Q960.4688,885.2969 961.2188,885.5 Q961.9844,885.7031 962.6406,886.1094 Z " fill="#000000"/><text fill="#000000" font-family="sans-serif" font-size="20" lengthAdjust="spacing" textLength="107.8223" x="975.5" y="899.3711">StaffService</text><line style="stroke:#181818;stroke-width:0.5;" x1="945.5" x2="1085.3223" y1="908.7656" y2="908.7656"/><line style="stroke:#181818;stroke-width:0.5;" x1="945.5" x2="1085.3223" y1="916.7656" y2="916.7656"/></g><!--class StaffRepository--><g id="elem_StaffRepository"><rect fill="#F1F1F1" height="51.1563" id="StaffRepository" rx="2.5" ry="2.5" style="stroke:#181818;stroke-width:0.5;" width="170.7285" x="930" y="1100.1094"/><ellipse cx="946" cy="1117.6875" fill="#C2C2C2" rx="12" ry="12" style="stroke:#181818;stroke-width:1.0;"/><path d="M948.1406,1112.6094 Q948.3281,1112.3594 948.5469,1112.2344 Q948.7656,1112.0938 949.0156,1112.0938 Q949.4531,1112.0938 949.7344,1112.4063 Q950.0156,1112.7031 950.0156,1113.4219 L950.0156,1115.125 Q950.0156,1115.8438 949.7344,1116.1563 Q949.4531,1116.4688 949.0156,1116.4688 Q948.625,1116.4688 948.375,1116.2344 Q948.125,1116.0156 948.0156,1115.4063 Q947.9531,1114.9844 947.7344,1114.7656 Q947.3438,1114.3281 946.625,1114.0625 Q945.9063,1113.7969 945.1875,1113.7969 Q944.2813,1113.7969 943.5313,1114.1875 Q942.7813,1114.5781 942.2031,1115.4688 Q941.625,1116.3438 941.625,1117.5469 L941.625,1118.8438 Q941.625,1120.2969 942.6719,1121.2656 Q943.7344,1122.2344 945.5938,1122.2344 Q946.7031,1122.2344 947.4844,1121.9219 Q947.9219,1121.75 948.4375,1121.2344 Q948.75,1120.9219 948.9219,1120.8281 Q949.0938,1120.7344 949.3281,1120.7344 Q949.7188,1120.7344 950.0156,1121.0469 Q950.3281,1121.3438 950.3281,1121.75 Q950.3281,1122.1563 949.9219,1122.625 Q949.3281,1123.3125 948.3906,1123.7031 Q947.125,1124.2344 945.6094,1124.2344 Q943.8281,1124.2344 942.4063,1123.5 Q941.25,1122.9063 940.4375,1121.6406 Q939.625,1120.375 939.625,1118.8906 L939.625,1117.5313 Q939.625,1115.9688 940.3438,1114.625 Q941.0781,1113.2656 942.3594,1112.5313 Q943.6563,1111.7969 945.1094,1111.7969 Q945.9688,1111.7969 946.7188,1112 Q947.4844,1112.2031 948.1406,1112.6094 Z " fill="#000000"/><text fill="#000000" font-family="sans-serif" font-size="20" lengthAdjust="spacing" textLength="136.7285" x="961" y="1125.8711">StaffRepository</text><line style="stroke:#181818;stroke-width:0.5;" x1="931" x2="1099.7285" y1="1135.2656" y2="1135.2656"/><line style="stroke:#181818;stroke-width:0.5;" x1="931" x2="1099.7285" y1="1143.2656" y2="1143.2656"/></g><!--link Slots to Staff--><g id="link_Slots_Staff"><path codeLine="86" d="M963.18,185.2394 C973.36,214.6694 983.8576,245.0094 995.5976,278.9294 " fill="none" id="Slots-to-Staff" style="stroke:#181818;stroke-width:1.0;"/><polygon fill="#181818" points="997.56,284.5994,998.3963,274.7861,995.9246,279.8744,990.8364,277.4027,997.56,284.5994" style="stroke:#181818;stroke-width:1.0;"/><text fill="#000000" font-family="sans-serif" font-size="20" lengthAdjust="spacing" textLength="42.2461" x="987.5" y="249.3711">uses</text></g><!--link ContactInformation to Staff--><g id="link_ContactInformation_Staff"><path codeLine="87" d="M1143.01,185.2394 C1128.22,214.6694 1112.8047,245.3185 1095.7547,279.2385 " fill="none" id="ContactInformation-to-Staff" style="stroke:#181818;stroke-width:1.0;"/><polygon fill="#181818" points="1093.06,284.5994,1100.6759,278.3545,1095.3055,280.132,1093.5281,274.7616,1093.06,284.5994" style="stroke:#181818;stroke-width:1.0;"/><text fill="#000000" font-family="sans-serif" font-size="20" lengthAdjust="spacing" textLength="32.2461" x="1119.5" y="249.3711">has</text></g><!--link Admin to User--><g id="link_Admin_User"><path codeLine="88" d="M631.19,398.1094 C642.7,398.1094 636.21,398.1094 647.73,398.1094 " fill="none" id="Admin-to-User" style="stroke:#181818;stroke-width:1.0;"/><polygon fill="none" points="665.73,398.1094,647.73,392.1094,647.73,404.1094,665.73,398.1094" style="stroke:#181818;stroke-width:1.0;"/></g><!--link Admin to SessionManager--><g id="link_Admin_SessionManager"><path codeLine="89" d="M539.89,421.6594 C481.24,453.0594 380.53,515.6094 326.5,598.6094 C305.88,630.2894 297.2329,666.242 292.9229,698.572 " fill="none" id="Admin-to-SessionManager" style="stroke:#181818;stroke-width:1.0;"/><polygon fill="#181818" points="292.13,704.5194,297.2842,696.1269,292.7907,699.5632,289.3544,695.0697,292.13,704.5194" style="stroke:#181818;stroke-width:1.0;"/><text fill="#000000" font-family="sans-serif" font-size="20" lengthAdjust="spacing" textLength="42.2461" x="371.5" y="563.3711">uses</text></g><!--link IAMService to SessionToken--><g id="link_IAMService_SessionToken"><path codeLine="90" d="M600.82,674.6594 C592.14,716.5194 579.099,779.4745 568.679,829.6945 " fill="none" id="IAMService-to-SessionToken" style="stroke:#181818;stroke-width:1.0;"/><polygon fill="#181818" points="567.46,835.5694,573.205,827.5697,568.4758,830.6736,565.3719,825.9444,567.46,835.5694" style="stroke:#181818;stroke-width:1.0;"/><text fill="#000000" font-family="sans-serif" font-size="20" lengthAdjust="spacing" textLength="62.2461" x="595.5" y="763.3711">returns</text></g><!--link SessionManager to Session--><g id="link_SessionManager_Session"><path codeLine="91" d="M303.34,805.8094 C322.04,868.4794 352.664,971.06 374.384,1043.83 " fill="none" id="SessionManager-to-Session" style="stroke:#181818;stroke-width:1.0;"/><polygon fill="#181818" points="376.1,1049.5794,377.3589,1039.8113,374.67,1044.7882,369.693,1042.0994,376.1,1049.5794" style="stroke:#181818;stroke-width:1.0;"/><text fill="#000000" font-family="sans-serif" font-size="20" lengthAdjust="spacing" textLength="65.5859" x="349.5" y="907.3711">creates</text></g><!--link Admin to IAMService--><g id="link_Admin_IAMService"><path codeLine="92" d="M587.92,423.9694 C591.97,465.5994 599.559,543.6476 604.299,592.3676 " fill="none" id="Admin-to-IAMService" style="stroke:#181818;stroke-width:1.0;"/><polygon fill="#181818" points="604.88,598.3394,607.9897,588.9943,604.3958,593.3629,600.0273,589.769,604.88,598.3394" style="stroke:#181818;stroke-width:1.0;"/><text fill="#000000" font-family="sans-serif" font-size="20" lengthAdjust="spacing" textLength="160.0977" x="603.5" y="563.3711">authenticates with</text></g><!--link Admin to StaffController--><g id="link_Admin_StaffController"><path codeLine="93" d="M592.73,423.6594 C601.62,449.4994 619.25,489.4294 648.5,511.6094 C693.68,545.8694 718.39,524.6794 772.5,541.6094 C837.26,561.8694 904.0135,588.3469 952.7835,608.7169 " fill="none" id="Admin-to-StaffController" style="stroke:#181818;stroke-width:1.0;"/><polygon fill="#181818" points="958.32,611.0294,951.5569,603.8697,953.7063,609.1023,948.4737,611.2517,958.32,611.0294" style="stroke:#181818;stroke-width:1.0;"/><text fill="#000000" font-family="sans-serif" font-size="20" lengthAdjust="spacing" textLength="141.1914" x="848.5" y="563.3711">inserts data into</text></g><!--link StaffController to StaffService--><g id="link_StaffController_StaffService"><path codeLine="94" d="M1015.5,662.1194 C1015.5,711.7694 1015.5,817.7194 1015.5,867.4794 " fill="none" id="StaffController-to-StaffService" style="stroke:#181818;stroke-width:1.0;"/><polygon fill="#181818" points="1015.5,873.4794,1019.5,864.4794,1015.5,868.4794,1011.5,864.4794,1015.5,873.4794" style="stroke:#181818;stroke-width:1.0;"/><text fill="#000000" font-family="sans-serif" font-size="20" lengthAdjust="spacing" textLength="113.3984" x="1016.5" y="763.3711">deletes  staff</text></g><!--link Staff to StaffController--><g id="link_Staff_StaffController"><path codeLine="95" d="M1026.49,511.8194 C1023.2,548.9394 1020.3726,580.8131 1018.2426,604.7131 " fill="none" id="Staff-to-StaffController" style="stroke:#181818;stroke-width:1.0;"/><polygon fill="#181818" points="1017.71,610.6894,1022.4931,602.08,1018.1538,605.7091,1014.5247,601.3698,1017.71,610.6894" style="stroke:#181818;stroke-width:1.0;"/><text fill="#000000" font-family="sans-serif" font-size="20" lengthAdjust="spacing" textLength="42.2461" x="1025.5" y="563.3711">uses</text></g><!--link StaffService to StaffRepository--><g id="link_StaffService_StaffRepository"><path codeLine="96" d="M1015.5,924.9894 C1015.5,968.2594 1015.5,1050.8494 1015.5,1093.9594 " fill="none" id="StaffService-to-StaffRepository" style="stroke:#181818;stroke-width:1.0;"/><polygon fill="#181818" points="1015.5,1099.9594,1019.5,1090.9594,1015.5,1094.9594,1011.5,1090.9594,1015.5,1099.9594" style="stroke:#181818;stroke-width:1.0;"/><text fill="#000000" font-family="sans-serif" font-size="20" lengthAdjust="spacing" textLength="107.8418" x="1016.5" y="1014.3711">deletes staff</text></g><!--link SessionToken to Session--><g id="link_SessionToken_Session"><path codeLine="97" d="M511.05,962.6494 C492.38,989.4994 473.8454,1016.1932 454.2854,1044.3232 " fill="none" id="SessionToken-to-Session" style="stroke:#181818;stroke-width:1.0;"/><polygon fill="#181818" points="450.86,1049.2494,459.2821,1044.1437,453.7145,1045.1443,452.7139,1039.5766,450.86,1049.2494" style="stroke:#181818;stroke-width:1.0;"/><text fill="#000000" font-family="sans-serif" font-size="20" lengthAdjust="spacing" textLength="63.3496" x="487.5" y="1014.3711">verifies</text></g><!--SRC=[TLNDJXin4BxxAUPMK0bKFUu1AI94ZLfeHMZlPjSX5bvxvPbDIYbINwElroVf-6TP9u4SDXdFvs_ccvyDFcZRIIzRu-e7rK2ZLh8tD7UMblgNWeyVnBirKOVLsLbdfAM-DQUrQyzg8n4dZPRtV5a877YWTTRLQ-zQ1UHxLNXmBHktrVOULjAW4e8q6GKNWGbcYGacC4MG5gPDg-q9B63BGO4Sr5v9KY31gYqWoTKAEkzMsgWJG0UqbiJecg_Afc5JjU4MVyFQOQT9cdz__Y9uXwJygH1HG0hp9CHpjfV64Ju9uC_x6SUh83oJlIJfYTF_v7fVdb_QfZXw7gYN8STCDTSUwLgspBSapnpf-8jyxNJU6_CALjVAehhksplbZnQpumgC6vmNt2zPqyAkd6ybQMSPCPb_Fgv6pBUri_bw1TfIEfrkf3RoJXjDZr5ybMeWHY67v5dLObRGNxPCj9loGKIcp9pVKVcHfL0I7FP0_8qpUoUxuLvo_Tef7rEyVUpKQsd6mfP4iKrLwbQcHjAiKpMpFd51RctCV-YkGcJNbRJoNdd8eIxYa6RVKVw-TG_AyZ3oyoGD78yeFxc36P7pj1jfT5CGC6BZT5FCL78CuR8PAeY5f1YZIg7Al9ef9IMtkXrczsUdlS8Tnx0BY-dLKlaDpzqGRzhpFbdIDKEFsCsqJR1vdSD-3hz7OL7wAsLB9SciqTXL4DEAjTzFU84_Gf52QUwSCszqFeoiTyQy3DaRk57VY-eT_utg76fo_Z51HDoDoUGyZWlFHOyAnU62Z8YrH14RCVbz7cOx6S20_H7AP4NL2r0gM0LUKUyjYhsx1P91wLM9HQY2j09PT15XgsbT9XNI7ii7ON4vRKBWmPHXYvtOmmnYSuIA_qIC2jJfDPtW0sYyLaMvvSq1CrPzvCfKPJLsHM-KrolDZFy1]--></g></svg>