<svg xmlns="http://www.w3.org/2000/svg" xmlns:xlink="http://www.w3.org/1999/xlink" contentStyleType="text/css" height="1234px" preserveAspectRatio="none" style="width:1293px;height:1234px;background:#FFFFFF;" version="1.1" viewBox="0 0 1293 1234" width="1293px" zoomAndPan="magnify"><title>Class Diagram - As an Admin, I want to create a new staff profile, so that I can add them to the hospital&#8217;s roster.</title><defs/><g><text fill="#000000" font-family="sans-serif" font-size="14" font-weight="bold" lengthAdjust="spacing" textLength="742.1504" x="268.9121" y="24.5332">Class Diagram - As an Admin, I want to create a new staff profile, so that I can add them to the hospital&#8217;s roster.</text><!--class Admin--><g id="elem_Admin"><rect codeLine="8" fill="#F1F1F1" height="51.1563" id="Admin" rx="2.5" ry="2.5" style="stroke:#181818;stroke-width:0.5;" width="90.6895" x="563" y="347.6094"/><ellipse cx="579" cy="365.1875" fill="#C2C2C2" rx="12" ry="12" style="stroke:#181818;stroke-width:1.0;"/><path d="M581.1406,360.1094 Q581.3281,359.8594 581.5469,359.7344 Q581.7656,359.5938 582.0156,359.5938 Q582.4531,359.5938 582.7344,359.9063 Q583.0156,360.2031 583.0156,360.9219 L583.0156,362.625 Q583.0156,363.3438 582.7344,363.6563 Q582.4531,363.9688 582.0156,363.9688 Q581.625,363.9688 581.375,363.7344 Q581.125,363.5156 581.0156,362.9063 Q580.9531,362.4844 580.7344,362.2656 Q580.3438,361.8281 579.625,361.5625 Q578.9063,361.2969 578.1875,361.2969 Q577.2813,361.2969 576.5313,361.6875 Q575.7813,362.0781 575.2031,362.9688 Q574.625,363.8438 574.625,365.0469 L574.625,366.3438 Q574.625,367.7969 575.6719,368.7656 Q576.7344,369.7344 578.5938,369.7344 Q579.7031,369.7344 580.4844,369.4219 Q580.9219,369.25 581.4375,368.7344 Q581.75,368.4219 581.9219,368.3281 Q582.0938,368.2344 582.3281,368.2344 Q582.7188,368.2344 583.0156,368.5469 Q583.3281,368.8438 583.3281,369.25 Q583.3281,369.6563 582.9219,370.125 Q582.3281,370.8125 581.3906,371.2031 Q580.125,371.7344 578.6094,371.7344 Q576.8281,371.7344 575.4063,371 Q574.25,370.4063 573.4375,369.1406 Q572.625,367.875 572.625,366.3906 L572.625,365.0313 Q572.625,363.4688 573.3438,362.125 Q574.0781,360.7656 575.3594,360.0313 Q576.6563,359.2969 578.1094,359.2969 Q578.9688,359.2969 579.7188,359.5 Q580.4844,359.7031 581.1406,360.1094 Z " fill="#000000"/><text fill="#000000" font-family="sans-serif" font-size="20" lengthAdjust="spacing" textLength="56.6895" x="594" y="373.3711">Admin</text><line style="stroke:#181818;stroke-width:0.5;" x1="564" x2="652.6895" y1="382.7656" y2="382.7656"/><line style="stroke:#181818;stroke-width:0.5;" x1="564" x2="652.6895" y1="390.7656" y2="390.7656"/></g><!--class User--><g id="elem_User"><rect codeLine="12" fill="#F1F1F1" height="151.7813" id="User" rx="2.5" ry="2.5" style="stroke:#181818;stroke-width:0.5;" width="182.6152" x="689" y="297.1094"/><ellipse cx="754.6943" cy="314.6875" fill="#C2C2C2" rx="12" ry="12" style="stroke:#181818;stroke-width:1.0;"/><path d="M756.835,309.6094 Q757.0225,309.3594 757.2412,309.2344 Q757.46,309.0938 757.71,309.0938 Q758.1475,309.0938 758.4287,309.4063 Q758.71,309.7031 758.71,310.4219 L758.71,312.125 Q758.71,312.8438 758.4287,313.1563 Q758.1475,313.4688 757.71,313.4688 Q757.3193,313.4688 757.0693,313.2344 Q756.8193,313.0156 756.71,312.4063 Q756.6475,311.9844 756.4287,311.7656 Q756.0381,311.3281 755.3193,311.0625 Q754.6006,310.7969 753.8818,310.7969 Q752.9756,310.7969 752.2256,311.1875 Q751.4756,311.5781 750.8975,312.4688 Q750.3193,313.3438 750.3193,314.5469 L750.3193,315.8438 Q750.3193,317.2969 751.3662,318.2656 Q752.4287,319.2344 754.2881,319.2344 Q755.3975,319.2344 756.1787,318.9219 Q756.6162,318.75 757.1318,318.2344 Q757.4443,317.9219 757.6162,317.8281 Q757.7881,317.7344 758.0225,317.7344 Q758.4131,317.7344 758.71,318.0469 Q759.0225,318.3438 759.0225,318.75 Q759.0225,319.1563 758.6162,319.625 Q758.0225,320.3125 757.085,320.7031 Q755.8193,321.2344 754.3037,321.2344 Q752.5225,321.2344 751.1006,320.5 Q749.9443,319.9063 749.1318,318.6406 Q748.3193,317.375 748.3193,315.8906 L748.3193,314.5313 Q748.3193,312.9688 749.0381,311.625 Q749.7725,310.2656 751.0537,309.5313 Q752.3506,308.7969 753.8037,308.7969 Q754.6631,308.7969 755.4131,309 Q756.1787,309.2031 756.835,309.6094 Z " fill="#000000"/><text fill="#000000" font-family="sans-serif" font-size="20" lengthAdjust="spacing" textLength="42.2266" x="776.6943" y="322.8711">User</text><line style="stroke:#181818;stroke-width:0.5;" x1="690" x2="870.6152" y1="332.2656" y2="332.2656"/><ellipse cx="700" cy="350.3438" fill="none" rx="3" ry="3" style="stroke:#545454;stroke-width:1.0;"/><text fill="#000000" font-family="sans-serif" font-size="20" lengthAdjust="spacing" textLength="68.9258" x="710" y="357.0273">ID: long</text><ellipse cx="700" cy="375.5" fill="none" rx="3" ry="3" style="stroke:#545454;stroke-width:1.0;"/><text fill="#000000" font-family="sans-serif" font-size="20" lengthAdjust="spacing" textLength="155.6152" x="710" y="382.1836">Username: String</text><ellipse cx="700" cy="400.6563" fill="none" rx="3" ry="3" style="stroke:#545454;stroke-width:1.0;"/><text fill="#000000" font-family="sans-serif" font-size="20" lengthAdjust="spacing" textLength="104.4922" x="710" y="407.3398">Role: String</text><ellipse cx="700" cy="425.8125" fill="none" rx="3" ry="3" style="stroke:#545454;stroke-width:1.0;"/><text fill="#000000" font-family="sans-serif" font-size="20" lengthAdjust="spacing" textLength="113.3691" x="710" y="432.4961">Email: String</text><line style="stroke:#181818;stroke-width:0.5;" x1="690" x2="870.6152" y1="440.8906" y2="440.8906"/></g><!--class Slots--><g id="elem_Slots"><rect codeLine="18" fill="#F1F1F1" height="126.625" id="Slots" rx="2.5" ry="2.5" style="stroke:#181818;stroke-width:0.5;" width="192.6348" x="856" y="45.6094"/><ellipse cx="925.5859" cy="63.1875" fill="#C2C2C2" rx="12" ry="12" style="stroke:#181818;stroke-width:1.0;"/><path d="M927.7266,58.1094 Q927.9141,57.8594 928.1328,57.7344 Q928.3516,57.5938 928.6016,57.5938 Q929.0391,57.5938 929.3203,57.9063 Q929.6016,58.2031 929.6016,58.9219 L929.6016,60.625 Q929.6016,61.3438 929.3203,61.6563 Q929.0391,61.9688 928.6016,61.9688 Q928.2109,61.9688 927.9609,61.7344 Q927.7109,61.5156 927.6016,60.9063 Q927.5391,60.4844 927.3203,60.2656 Q926.9297,59.8281 926.2109,59.5625 Q925.4922,59.2969 924.7734,59.2969 Q923.8672,59.2969 923.1172,59.6875 Q922.3672,60.0781 921.7891,60.9688 Q921.2109,61.8438 921.2109,63.0469 L921.2109,64.3438 Q921.2109,65.7969 922.2578,66.7656 Q923.3203,67.7344 925.1797,67.7344 Q926.2891,67.7344 927.0703,67.4219 Q927.5078,67.25 928.0234,66.7344 Q928.3359,66.4219 928.5078,66.3281 Q928.6797,66.2344 928.9141,66.2344 Q929.3047,66.2344 929.6016,66.5469 Q929.9141,66.8438 929.9141,67.25 Q929.9141,67.6563 929.5078,68.125 Q928.9141,68.8125 927.9766,69.2031 Q926.7109,69.7344 925.1953,69.7344 Q923.4141,69.7344 921.9922,69 Q920.8359,68.4063 920.0234,67.1406 Q919.2109,65.875 919.2109,64.3906 L919.2109,63.0313 Q919.2109,61.4688 919.9297,60.125 Q920.6641,58.7656 921.9453,58.0313 Q923.2422,57.2969 924.6953,57.2969 Q925.5547,57.2969 926.3047,57.5 Q927.0703,57.7031 927.7266,58.1094 Z " fill="#000000"/><text fill="#000000" font-family="sans-serif" font-size="20" lengthAdjust="spacing" textLength="44.4629" x="947.5859" y="71.3711">Slots</text><line style="stroke:#181818;stroke-width:0.5;" x1="857" x2="1047.6348" y1="80.7656" y2="80.7656"/><ellipse cx="867" cy="98.8438" fill="none" rx="3" ry="3" style="stroke:#545454;stroke-width:1.0;"/><text fill="#000000" font-family="sans-serif" font-size="20" lengthAdjust="spacing" textLength="95.6055" x="877" y="105.5273">Date: Date</text><ellipse cx="867" cy="124" fill="none" rx="3" ry="3" style="stroke:#545454;stroke-width:1.0;"/><text fill="#000000" font-family="sans-serif" font-size="20" lengthAdjust="spacing" textLength="165.6348" x="877" y="130.6836">StartingHour: Date</text><ellipse cx="867" cy="149.1563" fill="none" rx="3" ry="3" style="stroke:#545454;stroke-width:1.0;"/><text fill="#000000" font-family="sans-serif" font-size="20" lengthAdjust="spacing" textLength="132.2949" x="877" y="155.8398">EndHour: Date</text><line style="stroke:#181818;stroke-width:0.5;" x1="857" x2="1047.6348" y1="164.2344" y2="164.2344"/></g><!--class Staff--><g id="elem_Staff"><rect codeLine="24" fill="#F1F1F1" height="227.25" id="Staff" rx="2.5" ry="2.5" style="stroke:#181818;stroke-width:0.5;" width="304.8809" x="916" y="259.6094"/><ellipse cx="1043.374" cy="277.1875" fill="#C2C2C2" rx="12" ry="12" style="stroke:#181818;stroke-width:1.0;"/><path d="M1045.5146,272.1094 Q1045.7021,271.8594 1045.9209,271.7344 Q1046.1396,271.5938 1046.3896,271.5938 Q1046.8271,271.5938 1047.1084,271.9063 Q1047.3896,272.2031 1047.3896,272.9219 L1047.3896,274.625 Q1047.3896,275.3438 1047.1084,275.6563 Q1046.8271,275.9688 1046.3896,275.9688 Q1045.999,275.9688 1045.749,275.7344 Q1045.499,275.5156 1045.3896,274.9063 Q1045.3271,274.4844 1045.1084,274.2656 Q1044.7178,273.8281 1043.999,273.5625 Q1043.2803,273.2969 1042.5615,273.2969 Q1041.6553,273.2969 1040.9053,273.6875 Q1040.1553,274.0781 1039.5771,274.9688 Q1038.999,275.8438 1038.999,277.0469 L1038.999,278.3438 Q1038.999,279.7969 1040.0459,280.7656 Q1041.1084,281.7344 1042.9678,281.7344 Q1044.0771,281.7344 1044.8584,281.4219 Q1045.2959,281.25 1045.8115,280.7344 Q1046.124,280.4219 1046.2959,280.3281 Q1046.4678,280.2344 1046.7021,280.2344 Q1047.0928,280.2344 1047.3896,280.5469 Q1047.7021,280.8438 1047.7021,281.25 Q1047.7021,281.6563 1047.2959,282.125 Q1046.7021,282.8125 1045.7646,283.2031 Q1044.499,283.7344 1042.9834,283.7344 Q1041.2021,283.7344 1039.7803,283 Q1038.624,282.4063 1037.8115,281.1406 Q1036.999,279.875 1036.999,278.3906 L1036.999,277.0313 Q1036.999,275.4688 1037.7178,274.125 Q1038.4521,272.7656 1039.7334,272.0313 Q1041.0303,271.2969 1042.4834,271.2969 Q1043.3428,271.2969 1044.0928,271.5 Q1044.8584,271.7031 1045.5146,272.1094 Z " fill="#000000"/><text fill="#000000" font-family="sans-serif" font-size="20" lengthAdjust="spacing" textLength="41.1328" x="1065.374" y="285.3711">Staff</text><line style="stroke:#181818;stroke-width:0.5;" x1="917" x2="1219.8809" y1="294.7656" y2="294.7656"/><ellipse cx="927" cy="312.8438" fill="none" rx="3" ry="3" style="stroke:#545454;stroke-width:1.0;"/><text fill="#000000" font-family="sans-serif" font-size="20" lengthAdjust="spacing" textLength="155.5859" x="937" y="319.5273">FirstName: String</text><ellipse cx="927" cy="338" fill="none" rx="3" ry="3" style="stroke:#545454;stroke-width:1.0;"/><text fill="#000000" font-family="sans-serif" font-size="20" lengthAdjust="spacing" textLength="154.5117" x="937" y="344.6836">LastName: String</text><ellipse cx="927" cy="363.1563" fill="none" rx="3" ry="3" style="stroke:#545454;stroke-width:1.0;"/><text fill="#000000" font-family="sans-serif" font-size="20" lengthAdjust="spacing" textLength="148.9355" x="937" y="369.8398">FullName: String</text><ellipse cx="927" cy="388.3125" fill="none" rx="3" ry="3" style="stroke:#545454;stroke-width:1.0;"/><text fill="#000000" font-family="sans-serif" font-size="20" lengthAdjust="spacing" textLength="161.2012" x="937" y="394.9961">PhoneNumber: int</text><ellipse cx="927" cy="413.4688" fill="none" rx="3" ry="3" style="stroke:#545454;stroke-width:1.0;"/><text fill="#000000" font-family="sans-serif" font-size="20" lengthAdjust="spacing" textLength="194.5215" x="937" y="420.1523">AvailabilitySlots: Slots</text><line style="stroke:#181818;stroke-width:0.5;" x1="917" x2="1219.8809" y1="428.5469" y2="428.5469"/><ellipse cx="927" cy="446.625" fill="#A6A6A6" rx="3" ry="3" style="stroke:#545454;stroke-width:1.0;"/><text fill="#000000" font-family="sans-serif" font-size="20" lengthAdjust="spacing" textLength="222.3145" x="937" y="453.3086">LicenseNumber(ID): long</text><ellipse cx="927" cy="471.7813" fill="#A6A6A6" rx="3" ry="3" style="stroke:#545454;stroke-width:1.0;"/><text fill="#000000" font-family="sans-serif" font-size="20" lengthAdjust="spacing" textLength="277.8809" x="937" y="478.4648">ContactInformation(ID-FK):long</text></g><!--class ContactInformation--><g id="elem_ContactInformation"><rect codeLine="35" fill="#F1F1F1" height="126.625" id="ContactInformation" rx="2.5" ry="2.5" style="stroke:#181818;stroke-width:0.5;" width="202.9746" x="1084" y="45.6094"/><ellipse cx="1100" cy="63.1875" fill="#C2C2C2" rx="12" ry="12" style="stroke:#181818;stroke-width:1.0;"/><path d="M1102.1406,58.1094 Q1102.3281,57.8594 1102.5469,57.7344 Q1102.7656,57.5938 1103.0156,57.5938 Q1103.4531,57.5938 1103.7344,57.9063 Q1104.0156,58.2031 1104.0156,58.9219 L1104.0156,60.625 Q1104.0156,61.3438 1103.7344,61.6563 Q1103.4531,61.9688 1103.0156,61.9688 Q1102.625,61.9688 1102.375,61.7344 Q1102.125,61.5156 1102.0156,60.9063 Q1101.9531,60.4844 1101.7344,60.2656 Q1101.3438,59.8281 1100.625,59.5625 Q1099.9063,59.2969 1099.1875,59.2969 Q1098.2813,59.2969 1097.5313,59.6875 Q1096.7813,60.0781 1096.2031,60.9688 Q1095.625,61.8438 1095.625,63.0469 L1095.625,64.3438 Q1095.625,65.7969 1096.6719,66.7656 Q1097.7344,67.7344 1099.5938,67.7344 Q1100.7031,67.7344 1101.4844,67.4219 Q1101.9219,67.25 1102.4375,66.7344 Q1102.75,66.4219 1102.9219,66.3281 Q1103.0938,66.2344 1103.3281,66.2344 Q1103.7188,66.2344 1104.0156,66.5469 Q1104.3281,66.8438 1104.3281,67.25 Q1104.3281,67.6563 1103.9219,68.125 Q1103.3281,68.8125 1102.3906,69.2031 Q1101.125,69.7344 1099.6094,69.7344 Q1097.8281,69.7344 1096.4063,69 Q1095.25,68.4063 1094.4375,67.1406 Q1093.625,65.875 1093.625,64.3906 L1093.625,63.0313 Q1093.625,61.4688 1094.3438,60.125 Q1095.0781,58.7656 1096.3594,58.0313 Q1097.6563,57.2969 1099.1094,57.2969 Q1099.9688,57.2969 1100.7188,57.5 Q1101.4844,57.7031 1102.1406,58.1094 Z " fill="#000000"/><text fill="#000000" font-family="sans-serif" font-size="20" lengthAdjust="spacing" textLength="168.9746" x="1115" y="71.3711">ContactInformation</text><line style="stroke:#181818;stroke-width:0.5;" x1="1085" x2="1285.9746" y1="80.7656" y2="80.7656"/><ellipse cx="1095" cy="98.8438" fill="none" rx="3" ry="3" style="stroke:#545454;stroke-width:1.0;"/><text fill="#000000" font-family="sans-serif" font-size="20" lengthAdjust="spacing" textLength="63.3691" x="1105" y="105.5273">ID:long</text><ellipse cx="1095" cy="124" fill="none" rx="3" ry="3" style="stroke:#545454;stroke-width:1.0;"/><text fill="#000000" font-family="sans-serif" font-size="20" lengthAdjust="spacing" textLength="113.3691" x="1105" y="130.6836">Email: String</text><ellipse cx="1095" cy="149.1563" fill="none" rx="3" ry="3" style="stroke:#545454;stroke-width:1.0;"/><text fill="#000000" font-family="sans-serif" font-size="20" lengthAdjust="spacing" textLength="161.2012" x="1105" y="155.8398">PhoneNumber: int</text><line style="stroke:#181818;stroke-width:0.5;" x1="1085" x2="1285.9746" y1="164.2344" y2="164.2344"/></g><!--class SessionManager--><g id="elem_SessionManager"><rect codeLine="40" fill="#F1F1F1" height="101.4688" id="SessionManager" rx="2.5" ry="2.5" style="stroke:#181818;stroke-width:0.5;" width="562.8203" x="7" y="730.6094"/><ellipse cx="208.8662" cy="748.1875" fill="#C2C2C2" rx="12" ry="12" style="stroke:#181818;stroke-width:1.0;"/><path d="M211.0068,743.1094 Q211.1943,742.8594 211.4131,742.7344 Q211.6318,742.5938 211.8818,742.5938 Q212.3193,742.5938 212.6006,742.9063 Q212.8818,743.2031 212.8818,743.9219 L212.8818,745.625 Q212.8818,746.3438 212.6006,746.6563 Q212.3193,746.9688 211.8818,746.9688 Q211.4912,746.9688 211.2412,746.7344 Q210.9912,746.5156 210.8818,745.9063 Q210.8193,745.4844 210.6006,745.2656 Q210.21,744.8281 209.4912,744.5625 Q208.7725,744.2969 208.0537,744.2969 Q207.1475,744.2969 206.3975,744.6875 Q205.6475,745.0781 205.0693,745.9688 Q204.4912,746.8438 204.4912,748.0469 L204.4912,749.3438 Q204.4912,750.7969 205.5381,751.7656 Q206.6006,752.7344 208.46,752.7344 Q209.5693,752.7344 210.3506,752.4219 Q210.7881,752.25 211.3037,751.7344 Q211.6162,751.4219 211.7881,751.3281 Q211.96,751.2344 212.1943,751.2344 Q212.585,751.2344 212.8818,751.5469 Q213.1943,751.8438 213.1943,752.25 Q213.1943,752.6563 212.7881,753.125 Q212.1943,753.8125 211.2568,754.2031 Q209.9912,754.7344 208.4756,754.7344 Q206.6943,754.7344 205.2725,754 Q204.1162,753.4063 203.3037,752.1406 Q202.4912,750.875 202.4912,749.3906 L202.4912,748.0313 Q202.4912,746.4688 203.21,745.125 Q203.9443,743.7656 205.2256,743.0313 Q206.5225,742.2969 207.9756,742.2969 Q208.835,742.2969 209.585,742.5 Q210.3506,742.7031 211.0068,743.1094 Z " fill="#000000"/><text fill="#000000" font-family="sans-serif" font-size="20" lengthAdjust="spacing" textLength="150.0879" x="230.8662" y="756.3711">SessionManager</text><line style="stroke:#181818;stroke-width:0.5;" x1="8" x2="568.8203" y1="765.7656" y2="765.7656"/><line style="stroke:#181818;stroke-width:0.5;" x1="8" x2="568.8203" y1="773.7656" y2="773.7656"/><ellipse cx="18" cy="791.8438" fill="#A6A6A6" rx="3" ry="3" style="stroke:#545454;stroke-width:1.0;"/><text fill="#000000" font-family="sans-serif" font-size="20" lengthAdjust="spacing" textLength="535.8203" x="28" y="798.5273">CreateSession(SessionToken token, Admin admin): Session</text><ellipse cx="18" cy="817" fill="#A6A6A6" rx="3" ry="3" style="stroke:#545454;stroke-width:1.0;"/><text fill="#000000" font-family="sans-serif" font-size="20" lengthAdjust="spacing" textLength="217.8906" x="28" y="823.6836">InvalidateSession(): void</text></g><!--class Session--><g id="elem_Session"><rect codeLine="45" fill="#F1F1F1" height="151.7813" id="Session" rx="2.5" ry="2.5" style="stroke:#181818;stroke-width:0.5;" width="214.8516" x="291" y="1075.6094"/><ellipse cx="358.3496" cy="1093.1875" fill="#C2C2C2" rx="12" ry="12" style="stroke:#181818;stroke-width:1.0;"/><path d="M360.4902,1088.1094 Q360.6777,1087.8594 360.8965,1087.7344 Q361.1152,1087.5938 361.3652,1087.5938 Q361.8027,1087.5938 362.084,1087.9063 Q362.3652,1088.2031 362.3652,1088.9219 L362.3652,1090.625 Q362.3652,1091.3438 362.084,1091.6563 Q361.8027,1091.9688 361.3652,1091.9688 Q360.9746,1091.9688 360.7246,1091.7344 Q360.4746,1091.5156 360.3652,1090.9063 Q360.3027,1090.4844 360.084,1090.2656 Q359.6934,1089.8281 358.9746,1089.5625 Q358.2559,1089.2969 357.5371,1089.2969 Q356.6309,1089.2969 355.8809,1089.6875 Q355.1309,1090.0781 354.5527,1090.9688 Q353.9746,1091.8438 353.9746,1093.0469 L353.9746,1094.3438 Q353.9746,1095.7969 355.0215,1096.7656 Q356.084,1097.7344 357.9434,1097.7344 Q359.0527,1097.7344 359.834,1097.4219 Q360.2715,1097.25 360.7871,1096.7344 Q361.0996,1096.4219 361.2715,1096.3281 Q361.4434,1096.2344 361.6777,1096.2344 Q362.0684,1096.2344 362.3652,1096.5469 Q362.6777,1096.8438 362.6777,1097.25 Q362.6777,1097.6563 362.2715,1098.125 Q361.6777,1098.8125 360.7402,1099.2031 Q359.4746,1099.7344 357.959,1099.7344 Q356.1777,1099.7344 354.7559,1099 Q353.5996,1098.4063 352.7871,1097.1406 Q351.9746,1095.875 351.9746,1094.3906 L351.9746,1093.0313 Q351.9746,1091.4688 352.6934,1090.125 Q353.4277,1088.7656 354.709,1088.0313 Q356.0059,1087.2969 357.459,1087.2969 Q358.3184,1087.2969 359.0684,1087.5 Q359.834,1087.7031 360.4902,1088.1094 Z " fill="#000000"/><text fill="#000000" font-family="sans-serif" font-size="20" lengthAdjust="spacing" textLength="71.1523" x="380.3496" y="1101.3711">Session</text><line style="stroke:#181818;stroke-width:0.5;" x1="292" x2="504.8516" y1="1110.7656" y2="1110.7656"/><ellipse cx="302" cy="1128.8438" fill="none" rx="3" ry="3" style="stroke:#545454;stroke-width:1.0;"/><text fill="#000000" font-family="sans-serif" font-size="20" lengthAdjust="spacing" textLength="151.1719" x="312" y="1135.5273">SessionID: string</text><ellipse cx="302" cy="1154" fill="none" rx="3" ry="3" style="stroke:#545454;stroke-width:1.0;"/><text fill="#000000" font-family="sans-serif" font-size="20" lengthAdjust="spacing" textLength="124.4922" x="312" y="1160.6836">Admin: Admin</text><ellipse cx="302" cy="1179.1563" fill="none" rx="3" ry="3" style="stroke:#545454;stroke-width:1.0;"/><text fill="#000000" font-family="sans-serif" font-size="20" lengthAdjust="spacing" textLength="187.8516" x="312" y="1185.8398">CreatedAt: DateTime</text><ellipse cx="302" cy="1204.3125" fill="none" rx="3" ry="3" style="stroke:#545454;stroke-width:1.0;"/><text fill="#000000" font-family="sans-serif" font-size="20" lengthAdjust="spacing" textLength="183.3887" x="312" y="1210.9961">ExpiresAt: DateTime</text><line style="stroke:#181818;stroke-width:0.5;" x1="292" x2="504.8516" y1="1219.3906" y2="1219.3906"/></g><!--class IAMService--><g id="elem_IAMService"><rect codeLine="51" fill="#F1F1F1" height="76.3125" id="IAMService" rx="2.5" ry="2.5" style="stroke:#181818;stroke-width:0.5;" width="528.3574" x="344.5" y="599.1094"/><ellipse cx="553.0557" cy="616.6875" fill="#C2C2C2" rx="12" ry="12" style="stroke:#181818;stroke-width:1.0;"/><path d="M555.1963,611.6094 Q555.3838,611.3594 555.6025,611.2344 Q555.8213,611.0938 556.0713,611.0938 Q556.5088,611.0938 556.79,611.4063 Q557.0713,611.7031 557.0713,612.4219 L557.0713,614.125 Q557.0713,614.8438 556.79,615.1563 Q556.5088,615.4688 556.0713,615.4688 Q555.6807,615.4688 555.4307,615.2344 Q555.1807,615.0156 555.0713,614.4063 Q555.0088,613.9844 554.79,613.7656 Q554.3994,613.3281 553.6807,613.0625 Q552.9619,612.7969 552.2432,612.7969 Q551.3369,612.7969 550.5869,613.1875 Q549.8369,613.5781 549.2588,614.4688 Q548.6807,615.3438 548.6807,616.5469 L548.6807,617.8438 Q548.6807,619.2969 549.7275,620.2656 Q550.79,621.2344 552.6494,621.2344 Q553.7588,621.2344 554.54,620.9219 Q554.9775,620.75 555.4932,620.2344 Q555.8057,619.9219 555.9775,619.8281 Q556.1494,619.7344 556.3838,619.7344 Q556.7744,619.7344 557.0713,620.0469 Q557.3838,620.3438 557.3838,620.75 Q557.3838,621.1563 556.9775,621.625 Q556.3838,622.3125 555.4463,622.7031 Q554.1807,623.2344 552.665,623.2344 Q550.8838,623.2344 549.4619,622.5 Q548.3057,621.9063 547.4932,620.6406 Q546.6807,619.375 546.6807,617.8906 L546.6807,616.5313 Q546.6807,614.9688 547.3994,613.625 Q548.1338,612.2656 549.415,611.5313 Q550.7119,610.7969 552.165,610.7969 Q553.0244,610.7969 553.7744,611 Q554.54,611.2031 555.1963,611.6094 Z " fill="#000000"/><text fill="#000000" font-family="sans-serif" font-size="20" lengthAdjust="spacing" textLength="102.2461" x="575.0557" y="624.8711">IAMService</text><line style="stroke:#181818;stroke-width:0.5;" x1="345.5" x2="871.8574" y1="634.2656" y2="634.2656"/><line style="stroke:#181818;stroke-width:0.5;" x1="345.5" x2="871.8574" y1="642.2656" y2="642.2656"/><ellipse cx="355.5" cy="660.3438" fill="#A6A6A6" rx="3" ry="3" style="stroke:#545454;stroke-width:1.0;"/><text fill="#000000" font-family="sans-serif" font-size="20" lengthAdjust="spacing" textLength="501.3574" x="365.5" y="667.0273">Authenticate(IAMCredentials credentials): SessionToken</text></g><!--class SessionToken--><g id="elem_SessionToken"><rect codeLine="57" fill="#F1F1F1" height="126.625" id="SessionToken" rx="2.5" ry="2.5" style="stroke:#181818;stroke-width:0.5;" width="213.7383" x="447.5" y="861.6094"/><ellipse cx="487.35" cy="879.1875" fill="#C2C2C2" rx="12" ry="12" style="stroke:#181818;stroke-width:1.0;"/><path d="M489.4906,874.1094 Q489.6781,873.8594 489.8969,873.7344 Q490.1156,873.5938 490.3656,873.5938 Q490.8031,873.5938 491.0844,873.9063 Q491.3656,874.2031 491.3656,874.9219 L491.3656,876.625 Q491.3656,877.3438 491.0844,877.6563 Q490.8031,877.9688 490.3656,877.9688 Q489.975,877.9688 489.725,877.7344 Q489.475,877.5156 489.3656,876.9063 Q489.3031,876.4844 489.0844,876.2656 Q488.6938,875.8281 487.975,875.5625 Q487.2563,875.2969 486.5375,875.2969 Q485.6313,875.2969 484.8813,875.6875 Q484.1313,876.0781 483.5531,876.9688 Q482.975,877.8438 482.975,879.0469 L482.975,880.3438 Q482.975,881.7969 484.0219,882.7656 Q485.0844,883.7344 486.9438,883.7344 Q488.0531,883.7344 488.8344,883.4219 Q489.2719,883.25 489.7875,882.7344 Q490.1,882.4219 490.2719,882.3281 Q490.4438,882.2344 490.6781,882.2344 Q491.0688,882.2344 491.3656,882.5469 Q491.6781,882.8438 491.6781,883.25 Q491.6781,883.6563 491.2719,884.125 Q490.6781,884.8125 489.7406,885.2031 Q488.475,885.7344 486.9594,885.7344 Q485.1781,885.7344 483.7563,885 Q482.6,884.4063 481.7875,883.1406 Q480.975,881.875 480.975,880.3906 L480.975,879.0313 Q480.975,877.4688 481.6938,876.125 Q482.4281,874.7656 483.7094,874.0313 Q485.0063,873.2969 486.4594,873.2969 Q487.3188,873.2969 488.0688,873.5 Q488.8344,873.7031 489.4906,874.1094 Z " fill="#000000"/><text fill="#000000" font-family="sans-serif" font-size="20" lengthAdjust="spacing" textLength="126.7383" x="507.65" y="887.3711">SessionToken</text><line style="stroke:#181818;stroke-width:0.5;" x1="448.5" x2="660.2383" y1="896.7656" y2="896.7656"/><ellipse cx="458.5" cy="914.8438" fill="none" rx="3" ry="3" style="stroke:#545454;stroke-width:1.0;"/><text fill="#000000" font-family="sans-serif" font-size="20" lengthAdjust="spacing" textLength="115.6055" x="468.5" y="921.5273">Token: string</text><ellipse cx="458.5" cy="940" fill="none" rx="3" ry="3" style="stroke:#545454;stroke-width:1.0;"/><text fill="#000000" font-family="sans-serif" font-size="20" lengthAdjust="spacing" textLength="186.7383" x="468.5" y="946.6836">Expiration: DateTime</text><line style="stroke:#181818;stroke-width:0.5;" x1="448.5" x2="660.2383" y1="955.0781" y2="955.0781"/><ellipse cx="458.5" cy="973.1563" fill="#A6A6A6" rx="3" ry="3" style="stroke:#545454;stroke-width:1.0;"/><text fill="#000000" font-family="sans-serif" font-size="20" lengthAdjust="spacing" textLength="122.2754" x="468.5" y="979.8398">IsValid(): bool</text></g><!--class StaffController--><g id="elem_StaffController"><rect codeLine="63" fill="#F1F1F1" height="126.625" id="StaffController" rx="2.5" ry="2.5" style="stroke:#181818;stroke-width:0.5;" width="321.5508" x="907.5" y="573.6094"/><ellipse cx="999.8594" cy="591.1875" fill="#C2C2C2" rx="12" ry="12" style="stroke:#181818;stroke-width:1.0;"/><path d="M1002,586.1094 Q1002.1875,585.8594 1002.4063,585.7344 Q1002.625,585.5938 1002.875,585.5938 Q1003.3125,585.5938 1003.5938,585.9063 Q1003.875,586.2031 1003.875,586.9219 L1003.875,588.625 Q1003.875,589.3438 1003.5938,589.6563 Q1003.3125,589.9688 1002.875,589.9688 Q1002.4844,589.9688 1002.2344,589.7344 Q1001.9844,589.5156 1001.875,588.9063 Q1001.8125,588.4844 1001.5938,588.2656 Q1001.2031,587.8281 1000.4844,587.5625 Q999.7656,587.2969 999.0469,587.2969 Q998.1406,587.2969 997.3906,587.6875 Q996.6406,588.0781 996.0625,588.9688 Q995.4844,589.8438 995.4844,591.0469 L995.4844,592.3438 Q995.4844,593.7969 996.5313,594.7656 Q997.5938,595.7344 999.4531,595.7344 Q1000.5625,595.7344 1001.3438,595.4219 Q1001.7813,595.25 1002.2969,594.7344 Q1002.6094,594.4219 1002.7813,594.3281 Q1002.9531,594.2344 1003.1875,594.2344 Q1003.5781,594.2344 1003.875,594.5469 Q1004.1875,594.8438 1004.1875,595.25 Q1004.1875,595.6563 1003.7813,596.125 Q1003.1875,596.8125 1002.25,597.2031 Q1000.9844,597.7344 999.4688,597.7344 Q997.6875,597.7344 996.2656,597 Q995.1094,596.4063 994.2969,595.1406 Q993.4844,593.875 993.4844,592.3906 L993.4844,591.0313 Q993.4844,589.4688 994.2031,588.125 Q994.9375,586.7656 996.2188,586.0313 Q997.5156,585.2969 998.9688,585.2969 Q999.8281,585.2969 1000.5781,585.5 Q1001.3438,585.7031 1002,586.1094 Z " fill="#000000"/><text fill="#000000" font-family="sans-serif" font-size="20" lengthAdjust="spacing" textLength="127.832" x="1021.8594" y="599.3711">StaffController</text><line style="stroke:#181818;stroke-width:0.5;" x1="908.5" x2="1228.0508" y1="608.7656" y2="608.7656"/><line style="stroke:#181818;stroke-width:0.5;" x1="908.5" x2="1228.0508" y1="616.7656" y2="616.7656"/><ellipse cx="918.5" cy="634.8438" fill="#A6A6A6" rx="3" ry="3" style="stroke:#545454;stroke-width:1.0;"/><text fill="#000000" font-family="sans-serif" font-size="20" lengthAdjust="spacing" textLength="204.5313" x="928.5" y="641.5273">FetchStaffbyID(long id)</text><ellipse cx="918.5" cy="660" fill="#A6A6A6" rx="3" ry="3" style="stroke:#545454;stroke-width:1.0;"/><text fill="#000000" font-family="sans-serif" font-size="20" lengthAdjust="spacing" textLength="241.25" x="928.5" y="666.6836">changeStaffInfo(Staff Staff)</text><ellipse cx="918.5" cy="685.1563" fill="#A6A6A6" rx="3" ry="3" style="stroke:#545454;stroke-width:1.0;"/><text fill="#000000" font-family="sans-serif" font-size="20" lengthAdjust="spacing" textLength="294.5508" x="928.5" y="691.8398">notifyEmailChanges(Email email)</text></g><!--class StaffService--><g id="elem_StaffService"><rect codeLine="69" fill="#F1F1F1" height="101.4688" id="StaffService" rx="2.5" ry="2.5" style="stroke:#181818;stroke-width:0.5;" width="283.7773" x="926.5" y="874.6094"/><ellipse cx="1009.9775" cy="892.1875" fill="#C2C2C2" rx="12" ry="12" style="stroke:#181818;stroke-width:1.0;"/><path d="M1012.1182,887.1094 Q1012.3057,886.8594 1012.5244,886.7344 Q1012.7432,886.5938 1012.9932,886.5938 Q1013.4307,886.5938 1013.7119,886.9063 Q1013.9932,887.2031 1013.9932,887.9219 L1013.9932,889.625 Q1013.9932,890.3438 1013.7119,890.6563 Q1013.4307,890.9688 1012.9932,890.9688 Q1012.6025,890.9688 1012.3525,890.7344 Q1012.1025,890.5156 1011.9932,889.9063 Q1011.9307,889.4844 1011.7119,889.2656 Q1011.3213,888.8281 1010.6025,888.5625 Q1009.8838,888.2969 1009.165,888.2969 Q1008.2588,888.2969 1007.5088,888.6875 Q1006.7588,889.0781 1006.1807,889.9688 Q1005.6025,890.8438 1005.6025,892.0469 L1005.6025,893.3438 Q1005.6025,894.7969 1006.6494,895.7656 Q1007.7119,896.7344 1009.5713,896.7344 Q1010.6807,896.7344 1011.4619,896.4219 Q1011.8994,896.25 1012.415,895.7344 Q1012.7275,895.4219 1012.8994,895.3281 Q1013.0713,895.2344 1013.3057,895.2344 Q1013.6963,895.2344 1013.9932,895.5469 Q1014.3057,895.8438 1014.3057,896.25 Q1014.3057,896.6563 1013.8994,897.125 Q1013.3057,897.8125 1012.3682,898.2031 Q1011.1025,898.7344 1009.5869,898.7344 Q1007.8057,898.7344 1006.3838,898 Q1005.2275,897.4063 1004.415,896.1406 Q1003.6025,894.875 1003.6025,893.3906 L1003.6025,892.0313 Q1003.6025,890.4688 1004.3213,889.125 Q1005.0557,887.7656 1006.3369,887.0313 Q1007.6338,886.2969 1009.0869,886.2969 Q1009.9463,886.2969 1010.6963,886.5 Q1011.4619,886.7031 1012.1182,887.1094 Z " fill="#000000"/><text fill="#000000" font-family="sans-serif" font-size="20" lengthAdjust="spacing" textLength="107.8223" x="1031.9775" y="900.3711">StaffService</text><line style="stroke:#181818;stroke-width:0.5;" x1="927.5" x2="1209.2773" y1="909.7656" y2="909.7656"/><line style="stroke:#181818;stroke-width:0.5;" x1="927.5" x2="1209.2773" y1="917.7656" y2="917.7656"/><ellipse cx="937.5" cy="935.8438" fill="#A6A6A6" rx="3" ry="3" style="stroke:#545454;stroke-width:1.0;"/><text fill="#000000" font-family="sans-serif" font-size="20" lengthAdjust="spacing" textLength="256.7773" x="947.5" y="942.5273">FetchStaffbyID(long id): Staff</text><ellipse cx="937.5" cy="961" fill="#A6A6A6" rx="3" ry="3" style="stroke:#545454;stroke-width:1.0;"/><text fill="#000000" font-family="sans-serif" font-size="20" lengthAdjust="spacing" textLength="203.4473" x="947.5" y="967.6836">updateStaff(Staff Staff)</text></g><!--class StaffRepository--><g id="elem_StaffRepository"><rect codeLine="73" fill="#F1F1F1" height="101.4688" id="StaffRepository" rx="2.5" ry="2.5" style="stroke:#181818;stroke-width:0.5;" width="231.5313" x="952.5" y="1101.1094"/><ellipse cx="995.8612" cy="1118.6875" fill="#C2C2C2" rx="12" ry="12" style="stroke:#181818;stroke-width:1.0;"/><path d="M998.0019,1113.6094 Q998.1894,1113.3594 998.4081,1113.2344 Q998.6269,1113.0938 998.8769,1113.0938 Q999.3144,1113.0938 999.5956,1113.4063 Q999.8769,1113.7031 999.8769,1114.4219 L999.8769,1116.125 Q999.8769,1116.8438 999.5956,1117.1563 Q999.3144,1117.4688 998.8769,1117.4688 Q998.4862,1117.4688 998.2362,1117.2344 Q997.9862,1117.0156 997.8769,1116.4063 Q997.8144,1115.9844 997.5956,1115.7656 Q997.205,1115.3281 996.4862,1115.0625 Q995.7675,1114.7969 995.0487,1114.7969 Q994.1425,1114.7969 993.3925,1115.1875 Q992.6425,1115.5781 992.0644,1116.4688 Q991.4862,1117.3438 991.4862,1118.5469 L991.4862,1119.8438 Q991.4862,1121.2969 992.5331,1122.2656 Q993.5956,1123.2344 995.455,1123.2344 Q996.5644,1123.2344 997.3456,1122.9219 Q997.7831,1122.75 998.2987,1122.2344 Q998.6112,1121.9219 998.7831,1121.8281 Q998.955,1121.7344 999.1894,1121.7344 Q999.58,1121.7344 999.8769,1122.0469 Q1000.1894,1122.3438 1000.1894,1122.75 Q1000.1894,1123.1563 999.7831,1123.625 Q999.1894,1124.3125 998.2519,1124.7031 Q996.9862,1125.2344 995.4706,1125.2344 Q993.6894,1125.2344 992.2675,1124.5 Q991.1112,1123.9063 990.2987,1122.6406 Q989.4862,1121.375 989.4862,1119.8906 L989.4862,1118.5313 Q989.4862,1116.9688 990.205,1115.625 Q990.9394,1114.2656 992.2206,1113.5313 Q993.5175,1112.7969 994.9706,1112.7969 Q995.83,1112.7969 996.58,1113 Q997.3456,1113.2031 998.0019,1113.6094 Z " fill="#000000"/><text fill="#000000" font-family="sans-serif" font-size="20" lengthAdjust="spacing" textLength="136.7285" x="1016.9415" y="1126.8711">StaffRepository</text><line style="stroke:#181818;stroke-width:0.5;" x1="953.5" x2="1183.0313" y1="1136.2656" y2="1136.2656"/><line style="stroke:#181818;stroke-width:0.5;" x1="953.5" x2="1183.0313" y1="1144.2656" y2="1144.2656"/><ellipse cx="963.5" cy="1162.3438" fill="#A6A6A6" rx="3" ry="3" style="stroke:#545454;stroke-width:1.0;"/><text fill="#000000" font-family="sans-serif" font-size="20" lengthAdjust="spacing" textLength="204.5313" x="973.5" y="1169.0273">FetchStaffbyID(long id)</text><ellipse cx="963.5" cy="1187.5" fill="#A6A6A6" rx="3" ry="3" style="stroke:#545454;stroke-width:1.0;"/><text fill="#000000" font-family="sans-serif" font-size="20" lengthAdjust="spacing" textLength="203.4473" x="973.5" y="1194.1836">updateStaff(Staff Staff)</text></g><!--link Slots to Staff--><g id="link_Slots_Staff"><path codeLine="78" d="M980.28,172.8694 C991.78,198.8294 1003.0406,224.2632 1016.1706,253.9132 " fill="none" id="Slots-to-Staff" style="stroke:#181818;stroke-width:1.0;"/><polygon fill="#181818" points="1018.6,259.3994,1018.6133,249.5505,1016.5755,254.8276,1011.2984,252.7898,1018.6,259.3994" style="stroke:#181818;stroke-width:1.0;"/><text fill="#000000" font-family="sans-serif" font-size="20" lengthAdjust="spacing" textLength="42.2461" x="1005.5" y="224.3711">uses</text></g><!--link ContactInformation to Staff--><g id="link_ContactInformation_Staff"><path codeLine="79" d="M1157.48,172.8694 C1145.88,198.8294 1134.5164,224.2708 1121.2764,253.9208 " fill="none" id="ContactInformation-to-Staff" style="stroke:#181818;stroke-width:1.0;"/><polygon fill="#181818" points="1118.83,259.3994,1126.152,252.8124,1120.8687,254.8339,1118.8472,249.5505,1118.83,259.3994" style="stroke:#181818;stroke-width:1.0;"/><text fill="#000000" font-family="sans-serif" font-size="20" lengthAdjust="spacing" textLength="32.2461" x="1141.5" y="224.3711">has</text></g><!--link Admin to User--><g id="link_Admin_User"><path codeLine="80" d="M654.19,373.1094 C665.7,373.1094 659.21,373.1094 670.73,373.1094 " fill="none" id="Admin-to-User" style="stroke:#181818;stroke-width:1.0;"/><polygon fill="none" points="688.73,373.1094,670.73,367.1094,670.73,379.1094,688.73,373.1094" style="stroke:#181818;stroke-width:1.0;"/></g><!--link Admin to SessionManager--><g id="link_Admin_SessionManager"><path codeLine="81" d="M563,392.8494 C499.14,421.6494 384.3,483.1494 326.5,573.6094 C296.28,620.9194 288.8302,680.0318 287.5702,724.4218 " fill="none" id="Admin-to-SessionManager" style="stroke:#181818;stroke-width:1.0;"/><polygon fill="#181818" points="287.4,730.4194,291.6537,721.5365,287.5419,725.4214,283.657,721.3095,287.4,730.4194" style="stroke:#181818;stroke-width:1.0;"/><text fill="#000000" font-family="sans-serif" font-size="20" lengthAdjust="spacing" textLength="42.2461" x="374.5" y="538.3711">uses</text></g><!--link IAMService to SessionToken--><g id="link_IAMService_SessionToken"><path codeLine="82" d="M601.5,675.2094 C592.59,722.3594 578.2037,798.5736 567.4437,855.5336 " fill="none" id="IAMService-to-SessionToken" style="stroke:#181818;stroke-width:1.0;"/><polygon fill="#181818" points="566.33,861.4294,571.9311,853.3283,567.2581,856.5163,564.0701,851.8433,566.33,861.4294" style="stroke:#181818;stroke-width:1.0;"/><text fill="#000000" font-family="sans-serif" font-size="20" lengthAdjust="spacing" textLength="62.2461" x="592.5" y="789.3711">returns</text></g><!--link SessionManager to Session--><g id="link_SessionManager_Session"><path codeLine="83" d="M303.34,831.8094 C322.04,894.4794 352.664,997.06 374.384,1069.83 " fill="none" id="SessionManager-to-Session" style="stroke:#181818;stroke-width:1.0;"/><polygon fill="#181818" points="376.1,1075.5794,377.3589,1065.8113,374.67,1070.7882,369.693,1068.0994,376.1,1075.5794" style="stroke:#181818;stroke-width:1.0;"/><text fill="#000000" font-family="sans-serif" font-size="20" lengthAdjust="spacing" textLength="65.5859" x="349.5" y="933.3711">creates</text></g><!--link Admin to IAMService--><g id="link_Admin_IAMService"><path codeLine="84" d="M608.5,398.7594 C608.5,444.8694 608.5,538.4294 608.5,592.7994 " fill="none" id="Admin-to-IAMService" style="stroke:#181818;stroke-width:1.0;"/><polygon fill="#181818" points="608.5,598.7994,612.5,589.7994,608.5,593.7994,604.5,589.7994,608.5,598.7994" style="stroke:#181818;stroke-width:1.0;"/><text fill="#000000" font-family="sans-serif" font-size="20" lengthAdjust="spacing" textLength="160.0977" x="609.5" y="538.3711">authenticates with</text></g><!--link Admin to StaffController--><g id="link_Admin_StaffController"><path codeLine="85" d="M616.05,398.9294 C625.13,424.5994 642.83,464.0394 671.5,486.6094 C710.31,517.1594 731.81,500.5094 778.5,516.6094 C827.15,533.3894 873.862,551.7507 920.422,571.1607 " fill="none" id="Admin-to-StaffController" style="stroke:#181818;stroke-width:1.0;"/><polygon fill="#181818" points="925.96,573.4694,919.1921,566.3143,921.345,571.5455,916.1138,573.6983,925.96,573.4694" style="stroke:#181818;stroke-width:1.0;"/><text fill="#000000" font-family="sans-serif" font-size="20" lengthAdjust="spacing" textLength="141.1914" x="852.5" y="538.3711">inserts data into</text></g><!--link StaffController to StaffService--><g id="link_StaffController_StaffService"><path codeLine="86" d="M1068.5,700.8694 C1068.5,752.9994 1068.5,820.1494 1068.5,868.3094 " fill="none" id="StaffController-to-StaffService" style="stroke:#181818;stroke-width:1.0;"/><polygon fill="#181818" points="1068.5,874.3094,1072.5,865.3094,1068.5,869.3094,1064.5,865.3094,1068.5,874.3094" style="stroke:#181818;stroke-width:1.0;"/><text fill="#000000" font-family="sans-serif" font-size="20" lengthAdjust="spacing" textLength="110.0781" x="1069.5" y="789.3711">update  staff</text></g><!--link Staff to StaffController--><g id="link_Staff_StaffController"><path codeLine="87" d="M1068.5,486.7394 C1068.5,516.4194 1068.5,541.3894 1068.5,567.3794 " fill="none" id="Staff-to-StaffController" style="stroke:#181818;stroke-width:1.0;"/><polygon fill="#181818" points="1068.5,573.3794,1072.5,564.3794,1068.5,568.3794,1064.5,564.3794,1068.5,573.3794" style="stroke:#181818;stroke-width:1.0;"/><text fill="#000000" font-family="sans-serif" font-size="20" lengthAdjust="spacing" textLength="42.2461" x="1069.5" y="538.3711">uses</text></g><!--link StaffService to StaffRepository--><g id="link_StaffService_StaffRepository"><path codeLine="88" d="M1068.5,975.6594 C1068.5,1012.8394 1068.5,1057.5494 1068.5,1094.7994 " fill="none" id="StaffService-to-StaffRepository" style="stroke:#181818;stroke-width:1.0;"/><polygon fill="#181818" points="1068.5,1100.7994,1072.5,1091.7994,1068.5,1095.7994,1064.5,1091.7994,1068.5,1100.7994" style="stroke:#181818;stroke-width:1.0;"/><text fill="#000000" font-family="sans-serif" font-size="20" lengthAdjust="spacing" textLength="104.5215" x="1069.5" y="1040.3711">update staff</text></g><!--link SessionToken to Session--><g id="link_SessionToken_Session"><path codeLine="89" d="M511.05,988.6494 C492.38,1015.4994 473.8454,1042.1932 454.2854,1070.3232 " fill="none" id="SessionToken-to-Session" style="stroke:#181818;stroke-width:1.0;"/><polygon fill="#181818" points="450.86,1075.2494,459.2821,1070.1437,453.7145,1071.1443,452.7139,1065.5766,450.86,1075.2494" style="stroke:#181818;stroke-width:1.0;"/><text fill="#000000" font-family="sans-serif" font-size="20" lengthAdjust="spacing" textLength="63.3496" x="487.5" y="1040.3711">verifies</text></g><!--SRC=[ZLJDRjf04BxxAUPMK4DIzUX390H1HMsYAgIzB_Q0LrdlMZjZA4qZzJNwUdsIxeyDYvDMvM2yCzz-Cz_yc1wbReGLjJB58vPGuaQqYXT6yqf-HtZ_BdjJCJUKNrqrIcXkQtLPcFggK89eKagnTPUpZ7eUg8qsHMLDZS2snSH3bIZDNkejR8GYp3AMh11cdWdcaGacC2KG6gPbBVK5B67lWW8RA2mAHX2WSG_4OhE1nfgDL7W1P80hmGvTkAkYBDqHQt_B_KDbg94irE-VlmYi8KPxcML1G0ppb6NFlU4BeNtAmFtUBkSvAAEtyUGTMjIOmugjxAttHWqiDxMGwcXwxcXNoZ1rl7Ed8mV_ZESL2yiE_C6qDhNVw38n7JDSUUqTrK9QuhiNMNqIhraNhLAlO6M1cl2khTTeHylvE1KzStCW2bxgZR6rO6cqGqmM7yVv2VEvChgxdeFK7AtJdIk3M4ib-H34vx46IQbVafyAVw8_h-Vh4OzLHY97SokqsAA5ZcuM9gVpZRh_1_E8sas8Urx4AN1puvvEVeVeSj4xeMIP43Z4piWoQKXqzE6wevyUIf8ECV8OAishd7Biy8Ei-yP_QwH5EdFq4fVJsnNQdMjQ7s_QkY7NB0i77JcteotzsUsONvh-_IGiIFVf3mJ4adIiuN2k8AGL-ZHCU4bVVP5yQTR6gC6i-ZvRezHniHR8HHLSwyDoFlAz1bcEexEeXDvYyFh968MtIDGXj66vEOIvc0KmZS81q3_7W-Y3QlqbTXx14TCseT_US1x-EIM-nyQGP6CFy3-w_a6QXSsOJAwZFOUMaBANwt52L8AoC4cJ7zV-mnGFu0337UZ8ah59GB7ZELZarchA1dSJf0F53p0beHBI74GoXWHxoLMQrFaSW5zRbpOJkA88lyCc6s1wiLq4foCK4EAtFw9xpEbM7jIc5tlCgLr7geufhSMvv1rQkP58Vm00]--></g></svg>