<svg xmlns="http://www.w3.org/2000/svg" xmlns:xlink="http://www.w3.org/1999/xlink" contentStyleType="text/css" height="944px" preserveAspectRatio="none" style="width:1069px;height:944px;background:#FFFFFF;" version="1.1" viewBox="0 0 1069 944" width="1069px" zoomAndPan="magnify"><title>Class Diagram - Patient Login Using External IAM</title><defs/><g><text fill="#000000" font-family="sans-serif" font-size="14" font-weight="bold" lengthAdjust="spacing" textLength="329.8408" x="362.8354" y="24.5332">Class Diagram - Patient Login Using External IAM</text><!--class Patient--><g id="elem_Patient"><rect codeLine="6" fill="#F1F1F1" height="202.0938" id="Patient" rx="2.5" ry="2.5" style="stroke:#181818;stroke-width:0.5;" width="377.1758" x="418.5" y="45.6094"/><ellipse cx="571.4551" cy="63.1875" fill="#C2C2C2" rx="12" ry="12" style="stroke:#181818;stroke-width:1.0;"/><path d="M573.5957,58.1094 Q573.7832,57.8594 574.002,57.7344 Q574.2207,57.5938 574.4707,57.5938 Q574.9082,57.5938 575.1895,57.9063 Q575.4707,58.2031 575.4707,58.9219 L575.4707,60.625 Q575.4707,61.3438 575.1895,61.6563 Q574.9082,61.9688 574.4707,61.9688 Q574.0801,61.9688 573.8301,61.7344 Q573.5801,61.5156 573.4707,60.9063 Q573.4082,60.4844 573.1895,60.2656 Q572.7988,59.8281 572.0801,59.5625 Q571.3613,59.2969 570.6426,59.2969 Q569.7363,59.2969 568.9863,59.6875 Q568.2363,60.0781 567.6582,60.9688 Q567.0801,61.8438 567.0801,63.0469 L567.0801,64.3438 Q567.0801,65.7969 568.127,66.7656 Q569.1895,67.7344 571.0488,67.7344 Q572.1582,67.7344 572.9395,67.4219 Q573.377,67.25 573.8926,66.7344 Q574.2051,66.4219 574.377,66.3281 Q574.5488,66.2344 574.7832,66.2344 Q575.1738,66.2344 575.4707,66.5469 Q575.7832,66.8438 575.7832,67.25 Q575.7832,67.6563 575.377,68.125 Q574.7832,68.8125 573.8457,69.2031 Q572.5801,69.7344 571.0645,69.7344 Q569.2832,69.7344 567.8613,69 Q566.7051,68.4063 565.8926,67.1406 Q565.0801,65.875 565.0801,64.3906 L565.0801,63.0313 Q565.0801,61.4688 565.7988,60.125 Q566.5332,58.7656 567.8145,58.0313 Q569.1113,57.2969 570.5645,57.2969 Q571.4238,57.2969 572.1738,57.5 Q572.9395,57.7031 573.5957,58.1094 Z " fill="#000000"/><text fill="#000000" font-family="sans-serif" font-size="20" lengthAdjust="spacing" textLength="62.2656" x="593.4551" y="71.3711">Patient</text><line style="stroke:#181818;stroke-width:0.5;" x1="419.5" x2="794.6758" y1="80.7656" y2="80.7656"/><ellipse cx="429.5" cy="98.8438" fill="none" rx="3" ry="3" style="stroke:#545454;stroke-width:1.0;"/><text fill="#000000" font-family="sans-serif" font-size="20" lengthAdjust="spacing" textLength="65.6055" x="439.5" y="105.5273">Id: long</text><ellipse cx="429.5" cy="124" fill="none" rx="3" ry="3" style="stroke:#545454;stroke-width:1.0;"/><text fill="#000000" font-family="sans-serif" font-size="20" lengthAdjust="spacing" textLength="113.3691" x="439.5" y="130.6836">Name: string</text><ellipse cx="429.5" cy="149.1563" fill="none" rx="3" ry="3" style="stroke:#545454;stroke-width:1.0;"/><text fill="#000000" font-family="sans-serif" font-size="20" lengthAdjust="spacing" textLength="110.0293" x="439.5" y="155.8398">Email: string</text><ellipse cx="429.5" cy="174.3125" fill="none" rx="3" ry="3" style="stroke:#545454;stroke-width:1.0;"/><text fill="#000000" font-family="sans-serif" font-size="20" lengthAdjust="spacing" textLength="300.1855" x="439.5" y="180.9961">Appointments: List&lt;Appointment&gt;</text><ellipse cx="429.5" cy="199.4688" fill="none" rx="3" ry="3" style="stroke:#545454;stroke-width:1.0;"/><text fill="#000000" font-family="sans-serif" font-size="20" lengthAdjust="spacing" textLength="342.373" x="439.5" y="206.1523">MedicalRecords: List&lt;MedicalRecord&gt;</text><line style="stroke:#181818;stroke-width:0.5;" x1="419.5" x2="794.6758" y1="214.5469" y2="214.5469"/><ellipse cx="429.5" cy="232.625" fill="#A6A6A6" rx="3" ry="3" style="stroke:#545454;stroke-width:1.0;"/><text fill="#000000" font-family="sans-serif" font-size="20" lengthAdjust="spacing" textLength="350.1758" x="439.5" y="239.3086">Login(IAMCredentials credentials): bool</text></g><!--class IAMService--><g id="elem_IAMService"><rect codeLine="15" fill="#F1F1F1" height="76.3125" id="IAMService" rx="2.5" ry="2.5" style="stroke:#181818;stroke-width:0.5;" width="528.3574" x="7" y="334.6094"/><ellipse cx="215.5557" cy="352.1875" fill="#C2C2C2" rx="12" ry="12" style="stroke:#181818;stroke-width:1.0;"/><path d="M217.6963,347.1094 Q217.8838,346.8594 218.1025,346.7344 Q218.3213,346.5938 218.5713,346.5938 Q219.0088,346.5938 219.29,346.9063 Q219.5713,347.2031 219.5713,347.9219 L219.5713,349.625 Q219.5713,350.3438 219.29,350.6563 Q219.0088,350.9688 218.5713,350.9688 Q218.1807,350.9688 217.9307,350.7344 Q217.6807,350.5156 217.5713,349.9063 Q217.5088,349.4844 217.29,349.2656 Q216.8994,348.8281 216.1807,348.5625 Q215.4619,348.2969 214.7432,348.2969 Q213.8369,348.2969 213.0869,348.6875 Q212.3369,349.0781 211.7588,349.9688 Q211.1807,350.8438 211.1807,352.0469 L211.1807,353.3438 Q211.1807,354.7969 212.2275,355.7656 Q213.29,356.7344 215.1494,356.7344 Q216.2588,356.7344 217.04,356.4219 Q217.4775,356.25 217.9932,355.7344 Q218.3057,355.4219 218.4775,355.3281 Q218.6494,355.2344 218.8838,355.2344 Q219.2744,355.2344 219.5713,355.5469 Q219.8838,355.8438 219.8838,356.25 Q219.8838,356.6563 219.4775,357.125 Q218.8838,357.8125 217.9463,358.2031 Q216.6807,358.7344 215.165,358.7344 Q213.3838,358.7344 211.9619,358 Q210.8057,357.4063 209.9932,356.1406 Q209.1807,354.875 209.1807,353.3906 L209.1807,352.0313 Q209.1807,350.4688 209.8994,349.125 Q210.6338,347.7656 211.915,347.0313 Q213.2119,346.2969 214.665,346.2969 Q215.5244,346.2969 216.2744,346.5 Q217.04,346.7031 217.6963,347.1094 Z " fill="#000000"/><text fill="#000000" font-family="sans-serif" font-size="20" lengthAdjust="spacing" textLength="102.2461" x="237.5557" y="360.3711">IAMService</text><line style="stroke:#181818;stroke-width:0.5;" x1="8" x2="534.3574" y1="369.7656" y2="369.7656"/><line style="stroke:#181818;stroke-width:0.5;" x1="8" x2="534.3574" y1="377.7656" y2="377.7656"/><ellipse cx="18" cy="395.8438" fill="#A6A6A6" rx="3" ry="3" style="stroke:#545454;stroke-width:1.0;"/><text fill="#000000" font-family="sans-serif" font-size="20" lengthAdjust="spacing" textLength="501.3574" x="28" y="402.5273">Authenticate(IAMCredentials credentials): SessionToken</text></g><!--class IAMCredentials--><g id="elem_IAMCredentials"><rect codeLine="19" fill="#F1F1F1" height="101.4688" id="IAMCredentials" rx="2.5" ry="2.5" style="stroke:#181818;stroke-width:0.5;" width="174.832" x="830.5" y="96.1094"/><ellipse cx="848.351" cy="113.6875" fill="#C2C2C2" rx="12" ry="12" style="stroke:#181818;stroke-width:1.0;"/><path d="M850.4916,108.6094 Q850.6791,108.3594 850.8979,108.2344 Q851.1166,108.0938 851.3666,108.0938 Q851.8041,108.0938 852.0854,108.4063 Q852.3666,108.7031 852.3666,109.4219 L852.3666,111.125 Q852.3666,111.8438 852.0854,112.1563 Q851.8041,112.4688 851.3666,112.4688 Q850.976,112.4688 850.726,112.2344 Q850.476,112.0156 850.3666,111.4063 Q850.3041,110.9844 850.0854,110.7656 Q849.6947,110.3281 848.976,110.0625 Q848.2572,109.7969 847.5385,109.7969 Q846.6322,109.7969 845.8822,110.1875 Q845.1322,110.5781 844.5541,111.4688 Q843.976,112.3438 843.976,113.5469 L843.976,114.8438 Q843.976,116.2969 845.0229,117.2656 Q846.0854,118.2344 847.9447,118.2344 Q849.0541,118.2344 849.8354,117.9219 Q850.2729,117.75 850.7885,117.2344 Q851.101,116.9219 851.2729,116.8281 Q851.4447,116.7344 851.6791,116.7344 Q852.0697,116.7344 852.3666,117.0469 Q852.6791,117.3438 852.6791,117.75 Q852.6791,118.1563 852.2729,118.625 Q851.6791,119.3125 850.7416,119.7031 Q849.476,120.2344 847.9604,120.2344 Q846.1791,120.2344 844.7572,119.5 Q843.601,118.9063 842.7885,117.6406 Q841.976,116.375 841.976,114.8906 L841.976,113.5313 Q841.976,111.9688 842.6947,110.625 Q843.4291,109.2656 844.7104,108.5313 Q846.0072,107.7969 847.4604,107.7969 Q848.3197,107.7969 849.0697,108 Q849.8354,108.2031 850.4916,108.6094 Z " fill="#000000"/><text fill="#000000" font-family="sans-serif" font-size="20" lengthAdjust="spacing" textLength="136.7188" x="863.7623" y="121.8711">IAMCredentials</text><line style="stroke:#181818;stroke-width:0.5;" x1="831.5" x2="1004.332" y1="131.2656" y2="131.2656"/><ellipse cx="841.5" cy="149.3438" fill="none" rx="3" ry="3" style="stroke:#545454;stroke-width:1.0;"/><text fill="#000000" font-family="sans-serif" font-size="20" lengthAdjust="spacing" textLength="110.0293" x="851.5" y="156.0273">Email: string</text><ellipse cx="841.5" cy="174.5" fill="none" rx="3" ry="3" style="stroke:#545454;stroke-width:1.0;"/><text fill="#000000" font-family="sans-serif" font-size="20" lengthAdjust="spacing" textLength="147.832" x="851.5" y="181.1836">Password: string</text><line style="stroke:#181818;stroke-width:0.5;" x1="831.5" x2="1004.332" y1="189.5781" y2="189.5781"/></g><!--class SessionToken--><g id="elem_SessionToken"><rect codeLine="24" fill="#F1F1F1" height="126.625" id="SessionToken" rx="2.5" ry="2.5" style="stroke:#181818;stroke-width:0.5;" width="213.7383" x="189" y="571.6094"/><ellipse cx="228.85" cy="589.1875" fill="#C2C2C2" rx="12" ry="12" style="stroke:#181818;stroke-width:1.0;"/><path d="M230.9906,584.1094 Q231.1781,583.8594 231.3969,583.7344 Q231.6156,583.5938 231.8656,583.5938 Q232.3031,583.5938 232.5844,583.9063 Q232.8656,584.2031 232.8656,584.9219 L232.8656,586.625 Q232.8656,587.3438 232.5844,587.6563 Q232.3031,587.9688 231.8656,587.9688 Q231.475,587.9688 231.225,587.7344 Q230.975,587.5156 230.8656,586.9063 Q230.8031,586.4844 230.5844,586.2656 Q230.1938,585.8281 229.475,585.5625 Q228.7563,585.2969 228.0375,585.2969 Q227.1313,585.2969 226.3813,585.6875 Q225.6313,586.0781 225.0531,586.9688 Q224.475,587.8438 224.475,589.0469 L224.475,590.3438 Q224.475,591.7969 225.5219,592.7656 Q226.5844,593.7344 228.4438,593.7344 Q229.5531,593.7344 230.3344,593.4219 Q230.7719,593.25 231.2875,592.7344 Q231.6,592.4219 231.7719,592.3281 Q231.9438,592.2344 232.1781,592.2344 Q232.5688,592.2344 232.8656,592.5469 Q233.1781,592.8438 233.1781,593.25 Q233.1781,593.6563 232.7719,594.125 Q232.1781,594.8125 231.2406,595.2031 Q229.975,595.7344 228.4594,595.7344 Q226.6781,595.7344 225.2563,595 Q224.1,594.4063 223.2875,593.1406 Q222.475,591.875 222.475,590.3906 L222.475,589.0313 Q222.475,587.4688 223.1938,586.125 Q223.9281,584.7656 225.2094,584.0313 Q226.5063,583.2969 227.9594,583.2969 Q228.8188,583.2969 229.5688,583.5 Q230.3344,583.7031 230.9906,584.1094 Z " fill="#000000"/><text fill="#000000" font-family="sans-serif" font-size="20" lengthAdjust="spacing" textLength="126.7383" x="249.15" y="597.3711">SessionToken</text><line style="stroke:#181818;stroke-width:0.5;" x1="190" x2="401.7383" y1="606.7656" y2="606.7656"/><ellipse cx="200" cy="624.8438" fill="none" rx="3" ry="3" style="stroke:#545454;stroke-width:1.0;"/><text fill="#000000" font-family="sans-serif" font-size="20" lengthAdjust="spacing" textLength="115.6055" x="210" y="631.5273">Token: string</text><ellipse cx="200" cy="650" fill="none" rx="3" ry="3" style="stroke:#545454;stroke-width:1.0;"/><text fill="#000000" font-family="sans-serif" font-size="20" lengthAdjust="spacing" textLength="186.7383" x="210" y="656.6836">Expiration: DateTime</text><line style="stroke:#181818;stroke-width:0.5;" x1="190" x2="401.7383" y1="665.0781" y2="665.0781"/><ellipse cx="200" cy="683.1563" fill="#A6A6A6" rx="3" ry="3" style="stroke:#545454;stroke-width:1.0;"/><text fill="#000000" font-family="sans-serif" font-size="20" lengthAdjust="spacing" textLength="122.2754" x="210" y="689.8398">IsValid(): bool</text></g><!--class SessionManager--><g id="elem_SessionManager"><rect codeLine="30" fill="#F1F1F1" height="101.4688" id="SessionManager" rx="2.5" ry="2.5" style="stroke:#181818;stroke-width:0.5;" width="573.9727" x="320" y="440.6094"/><ellipse cx="527.4424" cy="458.1875" fill="#C2C2C2" rx="12" ry="12" style="stroke:#181818;stroke-width:1.0;"/><path d="M529.583,453.1094 Q529.7705,452.8594 529.9893,452.7344 Q530.208,452.5938 530.458,452.5938 Q530.8955,452.5938 531.1768,452.9063 Q531.458,453.2031 531.458,453.9219 L531.458,455.625 Q531.458,456.3438 531.1768,456.6563 Q530.8955,456.9688 530.458,456.9688 Q530.0674,456.9688 529.8174,456.7344 Q529.5674,456.5156 529.458,455.9063 Q529.3955,455.4844 529.1768,455.2656 Q528.7861,454.8281 528.0674,454.5625 Q527.3486,454.2969 526.6299,454.2969 Q525.7236,454.2969 524.9736,454.6875 Q524.2236,455.0781 523.6455,455.9688 Q523.0674,456.8438 523.0674,458.0469 L523.0674,459.3438 Q523.0674,460.7969 524.1143,461.7656 Q525.1768,462.7344 527.0361,462.7344 Q528.1455,462.7344 528.9268,462.4219 Q529.3643,462.25 529.8799,461.7344 Q530.1924,461.4219 530.3643,461.3281 Q530.5361,461.2344 530.7705,461.2344 Q531.1611,461.2344 531.458,461.5469 Q531.7705,461.8438 531.7705,462.25 Q531.7705,462.6563 531.3643,463.125 Q530.7705,463.8125 529.833,464.2031 Q528.5674,464.7344 527.0518,464.7344 Q525.2705,464.7344 523.8486,464 Q522.6924,463.4063 521.8799,462.1406 Q521.0674,460.875 521.0674,459.3906 L521.0674,458.0313 Q521.0674,456.4688 521.7861,455.125 Q522.5205,453.7656 523.8018,453.0313 Q525.0986,452.2969 526.5518,452.2969 Q527.4111,452.2969 528.1611,452.5 Q528.9268,452.7031 529.583,453.1094 Z " fill="#000000"/><text fill="#000000" font-family="sans-serif" font-size="20" lengthAdjust="spacing" textLength="150.0879" x="549.4424" y="466.3711">SessionManager</text><line style="stroke:#181818;stroke-width:0.5;" x1="321" x2="892.9727" y1="475.7656" y2="475.7656"/><line style="stroke:#181818;stroke-width:0.5;" x1="321" x2="892.9727" y1="483.7656" y2="483.7656"/><ellipse cx="331" cy="501.8438" fill="#A6A6A6" rx="3" ry="3" style="stroke:#545454;stroke-width:1.0;"/><text fill="#000000" font-family="sans-serif" font-size="20" lengthAdjust="spacing" textLength="546.9727" x="341" y="508.5273">CreateSession(SessionToken token, Patient patient): Session</text><ellipse cx="331" cy="527" fill="#A6A6A6" rx="3" ry="3" style="stroke:#545454;stroke-width:1.0;"/><text fill="#000000" font-family="sans-serif" font-size="20" lengthAdjust="spacing" textLength="217.8906" x="341" y="533.6836">InvalidateSession(): void</text></g><!--class Session--><g id="elem_Session"><rect codeLine="35" fill="#F1F1F1" height="151.7813" id="Session" rx="2.5" ry="2.5" style="stroke:#181818;stroke-width:0.5;" width="214.8516" x="299.5" y="785.6094"/><ellipse cx="366.8496" cy="803.1875" fill="#C2C2C2" rx="12" ry="12" style="stroke:#181818;stroke-width:1.0;"/><path d="M368.9902,798.1094 Q369.1777,797.8594 369.3965,797.7344 Q369.6152,797.5938 369.8652,797.5938 Q370.3027,797.5938 370.584,797.9063 Q370.8652,798.2031 370.8652,798.9219 L370.8652,800.625 Q370.8652,801.3438 370.584,801.6563 Q370.3027,801.9688 369.8652,801.9688 Q369.4746,801.9688 369.2246,801.7344 Q368.9746,801.5156 368.8652,800.9063 Q368.8027,800.4844 368.584,800.2656 Q368.1934,799.8281 367.4746,799.5625 Q366.7559,799.2969 366.0371,799.2969 Q365.1309,799.2969 364.3809,799.6875 Q363.6309,800.0781 363.0527,800.9688 Q362.4746,801.8438 362.4746,803.0469 L362.4746,804.3438 Q362.4746,805.7969 363.5215,806.7656 Q364.584,807.7344 366.4434,807.7344 Q367.5527,807.7344 368.334,807.4219 Q368.7715,807.25 369.2871,806.7344 Q369.5996,806.4219 369.7715,806.3281 Q369.9434,806.2344 370.1777,806.2344 Q370.5684,806.2344 370.8652,806.5469 Q371.1777,806.8438 371.1777,807.25 Q371.1777,807.6563 370.7715,808.125 Q370.1777,808.8125 369.2402,809.2031 Q367.9746,809.7344 366.459,809.7344 Q364.6777,809.7344 363.2559,809 Q362.0996,808.4063 361.2871,807.1406 Q360.4746,805.875 360.4746,804.3906 L360.4746,803.0313 Q360.4746,801.4688 361.1934,800.125 Q361.9277,798.7656 363.209,798.0313 Q364.5059,797.2969 365.959,797.2969 Q366.8184,797.2969 367.5684,797.5 Q368.334,797.7031 368.9902,798.1094 Z " fill="#000000"/><text fill="#000000" font-family="sans-serif" font-size="20" lengthAdjust="spacing" textLength="71.1523" x="388.8496" y="811.3711">Session</text><line style="stroke:#181818;stroke-width:0.5;" x1="300.5" x2="513.3516" y1="820.7656" y2="820.7656"/><ellipse cx="310.5" cy="838.8438" fill="none" rx="3" ry="3" style="stroke:#545454;stroke-width:1.0;"/><text fill="#000000" font-family="sans-serif" font-size="20" lengthAdjust="spacing" textLength="151.1719" x="320.5" y="845.5273">SessionID: string</text><ellipse cx="310.5" cy="864" fill="none" rx="3" ry="3" style="stroke:#545454;stroke-width:1.0;"/><text fill="#000000" font-family="sans-serif" font-size="20" lengthAdjust="spacing" textLength="135.6445" x="320.5" y="870.6836">Patient: Patient</text><ellipse cx="310.5" cy="889.1563" fill="none" rx="3" ry="3" style="stroke:#545454;stroke-width:1.0;"/><text fill="#000000" font-family="sans-serif" font-size="20" lengthAdjust="spacing" textLength="187.8516" x="320.5" y="895.8398">CreatedAt: DateTime</text><ellipse cx="310.5" cy="914.3125" fill="none" rx="3" ry="3" style="stroke:#545454;stroke-width:1.0;"/><text fill="#000000" font-family="sans-serif" font-size="20" lengthAdjust="spacing" textLength="183.3887" x="320.5" y="920.9961">ExpiresAt: DateTime</text><line style="stroke:#181818;stroke-width:0.5;" x1="300.5" x2="513.3516" y1="929.3906" y2="929.3906"/></g><!--class PatientService--><g id="elem_PatientService"><rect codeLine="42" fill="#F1F1F1" height="76.3125" id="PatientService" rx="2.5" ry="2.5" style="stroke:#181818;stroke-width:0.5;" width="327.166" x="715.5" y="334.6094"/><ellipse cx="810.1055" cy="352.1875" fill="#C2C2C2" rx="12" ry="12" style="stroke:#181818;stroke-width:1.0;"/><path d="M812.2461,347.1094 Q812.4336,346.8594 812.6523,346.7344 Q812.8711,346.5938 813.1211,346.5938 Q813.5586,346.5938 813.8398,346.9063 Q814.1211,347.2031 814.1211,347.9219 L814.1211,349.625 Q814.1211,350.3438 813.8398,350.6563 Q813.5586,350.9688 813.1211,350.9688 Q812.7305,350.9688 812.4805,350.7344 Q812.2305,350.5156 812.1211,349.9063 Q812.0586,349.4844 811.8398,349.2656 Q811.4492,348.8281 810.7305,348.5625 Q810.0117,348.2969 809.293,348.2969 Q808.3867,348.2969 807.6367,348.6875 Q806.8867,349.0781 806.3086,349.9688 Q805.7305,350.8438 805.7305,352.0469 L805.7305,353.3438 Q805.7305,354.7969 806.7773,355.7656 Q807.8398,356.7344 809.6992,356.7344 Q810.8086,356.7344 811.5898,356.4219 Q812.0273,356.25 812.543,355.7344 Q812.8555,355.4219 813.0273,355.3281 Q813.1992,355.2344 813.4336,355.2344 Q813.8242,355.2344 814.1211,355.5469 Q814.4336,355.8438 814.4336,356.25 Q814.4336,356.6563 814.0273,357.125 Q813.4336,357.8125 812.4961,358.2031 Q811.2305,358.7344 809.7148,358.7344 Q807.9336,358.7344 806.5117,358 Q805.3555,357.4063 804.543,356.1406 Q803.7305,354.875 803.7305,353.3906 L803.7305,352.0313 Q803.7305,350.4688 804.4492,349.125 Q805.1836,347.7656 806.4648,347.0313 Q807.7617,346.2969 809.2148,346.2969 Q810.0742,346.2969 810.8242,346.5 Q811.5898,346.7031 812.2461,347.1094 Z " fill="#000000"/><text fill="#000000" font-family="sans-serif" font-size="20" lengthAdjust="spacing" textLength="128.9551" x="832.1055" y="360.3711">PatientService</text><line style="stroke:#181818;stroke-width:0.5;" x1="716.5" x2="1041.666" y1="369.7656" y2="369.7656"/><line style="stroke:#181818;stroke-width:0.5;" x1="716.5" x2="1041.666" y1="377.7656" y2="377.7656"/><ellipse cx="726.5" cy="395.8438" fill="#A6A6A6" rx="3" ry="3" style="stroke:#545454;stroke-width:1.0;"/><text fill="#000000" font-family="sans-serif" font-size="20" lengthAdjust="spacing" textLength="300.166" x="736.5" y="402.5273">FetchPatientData(long id): Patient</text></g><!--class PatientRepository--><g id="elem_PatientRepository"><rect codeLine="46" fill="#F1F1F1" height="76.3125" id="PatientRepository" rx="2.5" ry="2.5" style="stroke:#181818;stroke-width:0.5;" width="191.8613" x="838" y="597.1094"/><ellipse cx="854" cy="614.6875" fill="#C2C2C2" rx="12" ry="12" style="stroke:#181818;stroke-width:1.0;"/><path d="M856.1406,609.6094 Q856.3281,609.3594 856.5469,609.2344 Q856.7656,609.0938 857.0156,609.0938 Q857.4531,609.0938 857.7344,609.4063 Q858.0156,609.7031 858.0156,610.4219 L858.0156,612.125 Q858.0156,612.8438 857.7344,613.1563 Q857.4531,613.4688 857.0156,613.4688 Q856.625,613.4688 856.375,613.2344 Q856.125,613.0156 856.0156,612.4063 Q855.9531,611.9844 855.7344,611.7656 Q855.3438,611.3281 854.625,611.0625 Q853.9063,610.7969 853.1875,610.7969 Q852.2813,610.7969 851.5313,611.1875 Q850.7813,611.5781 850.2031,612.4688 Q849.625,613.3438 849.625,614.5469 L849.625,615.8438 Q849.625,617.2969 850.6719,618.2656 Q851.7344,619.2344 853.5938,619.2344 Q854.7031,619.2344 855.4844,618.9219 Q855.9219,618.75 856.4375,618.2344 Q856.75,617.9219 856.9219,617.8281 Q857.0938,617.7344 857.3281,617.7344 Q857.7188,617.7344 858.0156,618.0469 Q858.3281,618.3438 858.3281,618.75 Q858.3281,619.1563 857.9219,619.625 Q857.3281,620.3125 856.3906,620.7031 Q855.125,621.2344 853.6094,621.2344 Q851.8281,621.2344 850.4063,620.5 Q849.25,619.9063 848.4375,618.6406 Q847.625,617.375 847.625,615.8906 L847.625,614.5313 Q847.625,612.9688 848.3438,611.625 Q849.0781,610.2656 850.3594,609.5313 Q851.6563,608.7969 853.1094,608.7969 Q853.9688,608.7969 854.7188,609 Q855.4844,609.2031 856.1406,609.6094 Z " fill="#000000"/><text fill="#000000" font-family="sans-serif" font-size="20" lengthAdjust="spacing" textLength="157.8613" x="869" y="622.8711">PatientRepository</text><line style="stroke:#181818;stroke-width:0.5;" x1="839" x2="1028.8613" y1="632.2656" y2="632.2656"/><line style="stroke:#181818;stroke-width:0.5;" x1="839" x2="1028.8613" y1="640.2656" y2="640.2656"/><ellipse cx="849" cy="658.3438" fill="#A6A6A6" rx="3" ry="3" style="stroke:#545454;stroke-width:1.0;"/><text fill="#000000" font-family="sans-serif" font-size="20" lengthAdjust="spacing" textLength="103.3887" x="859" y="665.0273">getPatient()</text></g><!--link Patient to SessionManager--><g id="link_Patient_SessionManager"><path codeLine="50" d="M607,248.0594 C607,311.2194 607,383.9794 607,434.1694 " fill="none" id="Patient-to-SessionManager" style="stroke:#181818;stroke-width:1.0;"/><polygon fill="#181818" points="607,440.1694,611,431.1694,607,435.1694,603,431.1694,607,440.1694" style="stroke:#181818;stroke-width:1.0;"/><text fill="#000000" font-family="sans-serif" font-size="20" lengthAdjust="spacing" textLength="42.2461" x="608" y="299.3711">uses</text></g><!--link IAMService to SessionToken--><g id="link_IAMService_SessionToken"><path codeLine="51" d="M248.99,410.7494 C244.46,420.1794 240.35,430.5094 238,440.6094 C227.82,484.3294 225.59,498.4694 238,541.6094 C240.91,551.7194 242.4734,556.4862 247.5434,566.0662 " fill="none" id="IAMService-to-SessionToken" style="stroke:#181818;stroke-width:1.0;"/><polygon fill="#181818" points="250.35,571.3694,249.6756,561.5436,248.0112,566.9501,242.6047,565.2857,250.35,571.3694" style="stroke:#181818;stroke-width:1.0;"/><text fill="#000000" font-family="sans-serif" font-size="20" lengthAdjust="spacing" textLength="62.2461" x="239" y="499.3711">returns</text></g><!--link SessionManager to Session--><g id="link_SessionManager_Session"><path codeLine="52" d="M580.03,541.8094 C546.01,604.4794 490.0823,707.5361 450.5823,780.3061 " fill="none" id="SessionManager-to-Session" style="stroke:#181818;stroke-width:1.0;"/><polygon fill="#181818" points="447.72,785.5794,455.529,779.5778,450.1053,781.185,448.498,775.7613,447.72,785.5794" style="stroke:#181818;stroke-width:1.0;"/><text fill="#000000" font-family="sans-serif" font-size="20" lengthAdjust="spacing" textLength="65.5859" x="565" y="643.3711">creates</text></g><!--link Patient to IAMService--><g id="link_Patient_IAMService"><path codeLine="53" d="M447.22,247.6794 C431.86,257.6694 416.58,267.7694 402,277.6094 C374.97,295.8594 350.262,313.4297 326.082,331.0197 " fill="none" id="Patient-to-IAMService" style="stroke:#181818;stroke-width:1.0;"/><polygon fill="#181818" points="321.23,334.5494,330.8611,332.4896,325.2733,331.608,326.1549,326.0203,321.23,334.5494" style="stroke:#181818;stroke-width:1.0;"/><text fill="#000000" font-family="sans-serif" font-size="20" lengthAdjust="spacing" textLength="160.0977" x="403" y="299.3711">authenticates with</text></g><!--link Patient to PatientService--><g id="link_Patient_PatientService"><path codeLine="54" d="M728.68,247.8194 C766.16,278.6894 800.4787,306.9449 829.3387,330.7149 " fill="none" id="Patient-to-PatientService" style="stroke:#181818;stroke-width:1.0;"/><polygon fill="#181818" points="833.97,334.5294,829.566,325.72,830.1105,331.3506,824.48,331.8952,833.97,334.5294" style="stroke:#181818;stroke-width:1.0;"/><text fill="#000000" font-family="sans-serif" font-size="20" lengthAdjust="spacing" textLength="166.7285" x="793" y="299.3711">retrieves data from</text></g><!--link SessionToken to Session--><g id="link_SessionToken_Session"><path codeLine="55" d="M326.92,698.6494 C340.2,725.4994 353.1705,751.741 367.0805,779.871 " fill="none" id="SessionToken-to-Session" style="stroke:#181818;stroke-width:1.0;"/><polygon fill="#181818" points="369.74,785.2494,369.3363,775.4088,367.5237,780.7674,362.1651,778.9549,369.74,785.2494" style="stroke:#181818;stroke-width:1.0;"/><text fill="#000000" font-family="sans-serif" font-size="20" lengthAdjust="spacing" textLength="63.3496" x="356" y="750.3711">verifies</text></g><!--link PatientService to PatientRepository--><g id="link_PatientService_PatientRepository"><path codeLine="56" d="M888.12,410.7694 C890.43,420.4694 892.87,430.9194 895,440.6094 C906.93,494.8294 918.2431,552.0181 925.7731,591.0381 " fill="none" id="PatientService-to-PatientRepository" style="stroke:#181818;stroke-width:1.0;"/><polygon fill="#181818" points="926.91,596.9294,929.1322,587.3345,925.9626,592.02,921.2771,588.8503,926.91,596.9294" style="stroke:#181818;stroke-width:1.0;"/><text fill="#000000" font-family="sans-serif" font-size="20" lengthAdjust="spacing" textLength="144.5117" x="917" y="499.3711">retrieves Patient</text></g><!--SRC=[VLJ1Rjim3BthAtXqi0KOTZI60a7J0W6QeMYwtJM9iOd8aY7AIRUY_pxPiHBPmUP3796Fxv6FWlb0jfLUDiQf0shGk9UT2O_EXXtzGVZwHN22GEEiKxLt3KBm7MOPhgLs9x8LxALX529GC0ZtHZB3ccJLWvRmB0EX3V3aAhBmW_k2XxU0tae3czLM23LK9DoxWFXyskWIZBFL-VHTDbW21qyfyj18CjFGgcqTsT145YxXYJXyoq9tPz0MDIbfNb0vhnDi4Xo1Gxz5RF3Ueuxr58S4TVs_AE6NSqPyf04YT8V-I0hJ3Aikr3rQoO3_PzeXCpdxwWve9unvoVi_9t-Ew5Di_HAzKEJ4YM0upDnyQyd71RWONyTkNwd1SG_yKnhInSsu8_DMMbcXJzontrW-veg9UkX_Fr_st9xVr-57FNlizJAIY3WwqZVAIN8yRjPpJmR-CWdc_UbLcCyvE80yINpCxkPilOyOL3scOeqi-liAf1TNpJd32xQEAJZ_Ev5K6CPSiUZXoPxbycvkSGaT8ulidcMWiySbU0oTjoncjHaoWjJW0a_4CjeIP7Pp6KuKwWbsviUWwWcF4Hit9s4VlnTYqjXK_uYUzdHj89_drgcSFXdx5m00]--></g></svg>