<svg xmlns="http://www.w3.org/2000/svg" xmlns:xlink="http://www.w3.org/1999/xlink" contentStyleType="text/css" height="760px" preserveAspectRatio="none" style="width:1696px;height:760px;background:#FFFFFF;" version="1.1" viewBox="0 0 1696 760" width="1696px" zoomAndPan="magnify"><title>US 5.1.7 - Patient Login Using External IAM</title><defs/><g><text fill="#000000" font-family="sans-serif" font-size="14" font-weight="bold" lengthAdjust="spacing" textLength="287.0479" x="703.7109" y="29.5332">US 5.1.7 - Patient Login Using External IAM</text><rect fill="#FFFFFF" height="523.0313" style="stroke:#181818;stroke-width:1.0;" width="10" x="34.1328" y="138.7656"/><rect fill="#FFFFFF" height="482.875" style="stroke:#181818;stroke-width:1.0;" width="10" x="497.2637" y="169.9219"/><rect fill="#FFFFFF" height="404.5625" style="stroke:#181818;stroke-width:1.0;" width="10" x="716.9668" y="209.0781"/><rect fill="#FFFFFF" height="91.3125" style="stroke:#181818;stroke-width:1.0;" width="10" x="1030.5859" y="248.2344"/><rect fill="#FFFFFF" height="195.7813" style="stroke:#181818;stroke-width:1.0;" width="10" x="1235.7969" y="378.7031"/><rect fill="#FFFFFF" height="117.4688" style="stroke:#181818;stroke-width:1.0;" width="10" x="1432.1309" y="417.8594"/><rect fill="#FFFFFF" height="78.3125" style="stroke:#181818;stroke-width:1.0;" width="10" x="1599.5391" y="417.8594"/><line style="stroke:#181818;stroke-width:0.5;stroke-dasharray:5.0,5.0;" x1="39" x2="39" y1="128.7656" y2="670.7969"/><line style="stroke:#181818;stroke-width:0.5;stroke-dasharray:5.0,5.0;" x1="502.1016" x2="502.1016" y1="128.7656" y2="670.7969"/><line style="stroke:#181818;stroke-width:0.5;stroke-dasharray:5.0,5.0;" x1="721.1494" x2="721.1494" y1="128.7656" y2="670.7969"/><line style="stroke:#181818;stroke-width:0.5;stroke-dasharray:5.0,5.0;" x1="1035.4629" x2="1035.4629" y1="128.7656" y2="670.7969"/><line style="stroke:#181818;stroke-width:0.5;stroke-dasharray:5.0,5.0;" x1="1240.7529" x2="1240.7529" y1="128.7656" y2="670.7969"/><line style="stroke:#181818;stroke-width:0.5;stroke-dasharray:5.0,5.0;" x1="1436.6533" x2="1436.6533" y1="128.7656" y2="670.7969"/><line style="stroke:#181818;stroke-width:0.5;stroke-dasharray:5.0,5.0;" x1="1603.6084" x2="1603.6084" y1="128.7656" y2="670.7969"/><text fill="#000000" font-family="sans-serif" font-size="20" lengthAdjust="spacing" textLength="62.2656" x="5" y="124.3711">Patient</text><ellipse cx="39.1328" cy="52.1094" fill="#E3E3E3" rx="8" ry="8" style="stroke:#181818;stroke-width:0.5;"/><path d="M39.1328,60.1094 L39.1328,87.1094 M26.1328,68.1094 L52.1328,68.1094 M39.1328,87.1094 L26.1328,102.1094 M39.1328,87.1094 L52.1328,102.1094 " fill="none" style="stroke:#181818;stroke-width:0.5;"/><text fill="#000000" font-family="sans-serif" font-size="20" lengthAdjust="spacing" textLength="62.2656" x="5" y="690.5586">Patient</text><ellipse cx="39.1328" cy="703.4531" fill="#E3E3E3" rx="8" ry="8" style="stroke:#181818;stroke-width:0.5;"/><path d="M39.1328,711.4531 L39.1328,738.4531 M26.1328,719.4531 L52.1328,719.4531 M39.1328,738.4531 L26.1328,753.4531 M39.1328,738.4531 L52.1328,753.4531 " fill="none" style="stroke:#181818;stroke-width:0.5;"/><rect fill="#E3E3E3" height="64.3125" rx="2.5" ry="2.5" style="stroke:#181818;stroke-width:0.5;" width="146.3242" x="429.1016" y="63.4531"/><text fill="#000000" font-family="sans-serif" font-size="20" font-style="italic" lengthAdjust="spacing" textLength="132.3242" x="436.1016" y="91.2148">&#171;presentation&#187;</text><text fill="#000000" font-family="sans-serif" font-size="20" lengthAdjust="spacing" textLength="68.9355" x="467.7959" y="116.3711">LoginUI</text><rect fill="#E3E3E3" height="64.3125" rx="2.5" ry="2.5" style="stroke:#181818;stroke-width:0.5;" width="146.3242" x="429.1016" y="669.7969"/><text fill="#000000" font-family="sans-serif" font-size="20" font-style="italic" lengthAdjust="spacing" textLength="132.3242" x="436.1016" y="697.5586">&#171;presentation&#187;</text><text fill="#000000" font-family="sans-serif" font-size="20" lengthAdjust="spacing" textLength="68.9355" x="467.7959" y="722.7148">LoginUI</text><rect fill="#E3E3E3" height="64.3125" rx="2.5" ry="2.5" style="stroke:#181818;stroke-width:0.5;" width="149.6348" x="647.1494" y="63.4531"/><text fill="#000000" font-family="sans-serif" font-size="20" font-style="italic" lengthAdjust="spacing" textLength="117.8711" x="663.0313" y="91.2148">&#171;application&#187;</text><text fill="#000000" font-family="sans-serif" font-size="20" lengthAdjust="spacing" textLength="135.6348" x="654.1494" y="116.3711">LoginController</text><rect fill="#E3E3E3" height="64.3125" rx="2.5" ry="2.5" style="stroke:#181818;stroke-width:0.5;" width="149.6348" x="647.1494" y="669.7969"/><text fill="#000000" font-family="sans-serif" font-size="20" font-style="italic" lengthAdjust="spacing" textLength="117.8711" x="663.0313" y="697.5586">&#171;application&#187;</text><text fill="#000000" font-family="sans-serif" font-size="20" lengthAdjust="spacing" textLength="135.6348" x="654.1494" y="722.7148">LoginController</text><rect fill="#E3E3E3" height="64.3125" rx="2.5" ry="2.5" style="stroke:#181818;stroke-width:0.5;" width="116.2461" x="977.4629" y="63.4531"/><text fill="#000000" font-family="sans-serif" font-size="20" font-style="italic" lengthAdjust="spacing" textLength="85.5957" x="992.7881" y="91.2148">&#171;service&#187;</text><text fill="#000000" font-family="sans-serif" font-size="20" lengthAdjust="spacing" textLength="102.2461" x="984.4629" y="116.3711">IAMService</text><rect fill="#E3E3E3" height="64.3125" rx="2.5" ry="2.5" style="stroke:#181818;stroke-width:0.5;" width="116.2461" x="977.4629" y="669.7969"/><text fill="#000000" font-family="sans-serif" font-size="20" font-style="italic" lengthAdjust="spacing" textLength="85.5957" x="992.7881" y="697.5586">&#171;service&#187;</text><text fill="#000000" font-family="sans-serif" font-size="20" lengthAdjust="spacing" textLength="102.2461" x="984.4629" y="722.7148">IAMService</text><rect fill="#E3E3E3" height="64.3125" rx="2.5" ry="2.5" style="stroke:#181818;stroke-width:0.5;" width="164.0879" x="1158.7529" y="63.4531"/><text fill="#000000" font-family="sans-serif" font-size="20" font-style="italic" lengthAdjust="spacing" textLength="85.5957" x="1197.999" y="91.2148">&#171;service&#187;</text><text fill="#000000" font-family="sans-serif" font-size="20" lengthAdjust="spacing" textLength="150.0879" x="1165.7529" y="116.3711">SessionManager</text><rect fill="#E3E3E3" height="64.3125" rx="2.5" ry="2.5" style="stroke:#181818;stroke-width:0.5;" width="164.0879" x="1158.7529" y="669.7969"/><text fill="#000000" font-family="sans-serif" font-size="20" font-style="italic" lengthAdjust="spacing" textLength="85.5957" x="1197.999" y="697.5586">&#171;service&#187;</text><text fill="#000000" font-family="sans-serif" font-size="20" lengthAdjust="spacing" textLength="150.0879" x="1165.7529" y="722.7148">SessionManager</text><rect fill="#E3E3E3" height="64.3125" rx="2.5" ry="2.5" style="stroke:#181818;stroke-width:0.5;" width="142.9551" x="1365.6533" y="63.4531"/><text fill="#000000" font-family="sans-serif" font-size="20" font-style="italic" lengthAdjust="spacing" textLength="85.5957" x="1394.333" y="91.2148">&#171;service&#187;</text><text fill="#000000" font-family="sans-serif" font-size="20" lengthAdjust="spacing" textLength="128.9551" x="1372.6533" y="116.3711">PatientService</text><rect fill="#E3E3E3" height="64.3125" rx="2.5" ry="2.5" style="stroke:#181818;stroke-width:0.5;" width="142.9551" x="1365.6533" y="669.7969"/><text fill="#000000" font-family="sans-serif" font-size="20" font-style="italic" lengthAdjust="spacing" textLength="85.5957" x="1394.333" y="697.5586">&#171;service&#187;</text><text fill="#000000" font-family="sans-serif" font-size="20" lengthAdjust="spacing" textLength="128.9551" x="1372.6533" y="722.7148">PatientService</text><rect fill="#E3E3E3" height="64.3125" rx="2.5" ry="2.5" style="stroke:#181818;stroke-width:0.5;" width="171.8613" x="1518.6084" y="63.4531"/><text fill="#000000" font-family="sans-serif" font-size="20" font-style="italic" lengthAdjust="spacing" textLength="85.5957" x="1561.7412" y="91.2148">&#171;service&#187;</text><text fill="#000000" font-family="sans-serif" font-size="20" lengthAdjust="spacing" textLength="157.8613" x="1525.6084" y="116.3711">PatientRepository</text><rect fill="#E3E3E3" height="64.3125" rx="2.5" ry="2.5" style="stroke:#181818;stroke-width:0.5;" width="171.8613" x="1518.6084" y="669.7969"/><text fill="#000000" font-family="sans-serif" font-size="20" font-style="italic" lengthAdjust="spacing" textLength="85.5957" x="1561.7412" y="697.5586">&#171;service&#187;</text><text fill="#000000" font-family="sans-serif" font-size="20" lengthAdjust="spacing" textLength="157.8613" x="1525.6084" y="722.7148">PatientRepository</text><rect fill="#FFFFFF" height="523.0313" style="stroke:#181818;stroke-width:1.0;" width="10" x="34.1328" y="138.7656"/><rect fill="#FFFFFF" height="482.875" style="stroke:#181818;stroke-width:1.0;" width="10" x="497.2637" y="169.9219"/><rect fill="#FFFFFF" height="404.5625" style="stroke:#181818;stroke-width:1.0;" width="10" x="716.9668" y="209.0781"/><rect fill="#FFFFFF" height="91.3125" style="stroke:#181818;stroke-width:1.0;" width="10" x="1030.5859" y="248.2344"/><rect fill="#FFFFFF" height="195.7813" style="stroke:#181818;stroke-width:1.0;" width="10" x="1235.7969" y="378.7031"/><rect fill="#FFFFFF" height="117.4688" style="stroke:#181818;stroke-width:1.0;" width="10" x="1432.1309" y="417.8594"/><rect fill="#FFFFFF" height="78.3125" style="stroke:#181818;stroke-width:1.0;" width="10" x="1599.5391" y="417.8594"/><polygon fill="#181818" points="485.2637,165.9219,495.2637,169.9219,485.2637,173.9219,489.2637,169.9219" style="stroke:#181818;stroke-width:1.0;"/><line style="stroke:#181818;stroke-width:1.0;" x1="44.1328" x2="491.2637" y1="169.9219" y2="169.9219"/><text fill="#000000" font-family="sans-serif" font-size="20" lengthAdjust="spacing" textLength="307.9297" x="51.1328" y="163.5273">asks to login using IAM credentials</text><polygon fill="#181818" points="704.9668,205.0781,714.9668,209.0781,704.9668,213.0781,708.9668,209.0781" style="stroke:#181818;stroke-width:1.0;"/><line style="stroke:#181818;stroke-width:1.0;" x1="507.2637" x2="710.9668" y1="209.0781" y2="209.0781"/><text fill="#000000" font-family="sans-serif" font-size="20" lengthAdjust="spacing" textLength="120.0684" x="514.2637" y="202.6836">initiateLogin()</text><polygon fill="#181818" points="1018.5859,244.2344,1028.5859,248.2344,1018.5859,252.2344,1022.5859,248.2344" style="stroke:#181818;stroke-width:1.0;"/><line style="stroke:#181818;stroke-width:1.0;" x1="726.9668" x2="1024.5859" y1="248.2344" y2="248.2344"/><text fill="#000000" font-family="sans-serif" font-size="20" lengthAdjust="spacing" textLength="284.6191" x="733.9668" y="241.8398">authenticate(patient credentials)</text><line style="stroke:#181818;stroke-width:1.0;" x1="1040.5859" x2="1082.5859" y1="287.3906" y2="287.3906"/><line style="stroke:#181818;stroke-width:1.0;" x1="1082.5859" x2="1082.5859" y1="287.3906" y2="300.3906"/><line style="stroke:#181818;stroke-width:1.0;" x1="1041.5859" x2="1082.5859" y1="300.3906" y2="300.3906"/><polygon fill="#181818" points="1051.5859,296.3906,1041.5859,300.3906,1051.5859,304.3906,1047.5859,300.3906" style="stroke:#181818;stroke-width:1.0;"/><text fill="#000000" font-family="sans-serif" font-size="20" lengthAdjust="spacing" textLength="171.2109" x="1047.5859" y="280.9961">validate credentials</text><polygon fill="#181818" points="737.9668,335.5469,727.9668,339.5469,737.9668,343.5469,733.9668,339.5469" style="stroke:#181818;stroke-width:1.0;"/><line style="stroke:#181818;stroke-width:1.0;stroke-dasharray:2.0,2.0;" x1="731.9668" x2="1034.5859" y1="339.5469" y2="339.5469"/><text fill="#000000" font-family="sans-serif" font-size="20" lengthAdjust="spacing" textLength="180.0977" x="743.9668" y="333.1523">return session token</text><polygon fill="#181818" points="1223.7969,374.7031,1233.7969,378.7031,1223.7969,382.7031,1227.7969,378.7031" style="stroke:#181818;stroke-width:1.0;"/><line style="stroke:#181818;stroke-width:1.0;" x1="726.9668" x2="1229.7969" y1="378.7031" y2="378.7031"/><text fill="#000000" font-family="sans-serif" font-size="20" lengthAdjust="spacing" textLength="188.9844" x="733.9668" y="372.3086">createSession(token)</text><polygon fill="#181818" points="1420.1309,413.8594,1430.1309,417.8594,1420.1309,421.8594,1424.1309,417.8594" style="stroke:#181818;stroke-width:1.0;"/><line style="stroke:#181818;stroke-width:1.0;" x1="1245.7969" x2="1426.1309" y1="417.8594" y2="417.8594"/><text fill="#000000" font-family="sans-serif" font-size="20" lengthAdjust="spacing" textLength="161.1914" x="1252.7969" y="411.4648">fetchPatientData()</text><polygon fill="#181818" points="1587.5391,453.0156,1597.5391,457.0156,1587.5391,461.0156,1591.5391,457.0156" style="stroke:#181818;stroke-width:1.0;"/><line style="stroke:#181818;stroke-width:1.0;" x1="1442.1309" x2="1593.5391" y1="457.0156" y2="457.0156"/><text fill="#000000" font-family="sans-serif" font-size="20" lengthAdjust="spacing" textLength="103.3887" x="1449.1309" y="450.6211">getPatient()</text><polygon fill="#181818" points="1453.1309,492.1719,1443.1309,496.1719,1453.1309,500.1719,1449.1309,496.1719" style="stroke:#181818;stroke-width:1.0;"/><line style="stroke:#181818;stroke-width:1.0;" x1="1447.1309" x2="1603.5391" y1="496.1719" y2="496.1719"/><text fill="#000000" font-family="sans-serif" font-size="20" lengthAdjust="spacing" textLength="127.832" x="1459.1309" y="489.7773">returnPatient()</text><polygon fill="#181818" points="1256.7969,531.3281,1246.7969,535.3281,1256.7969,539.3281,1252.7969,535.3281" style="stroke:#181818;stroke-width:1.0;"/><line style="stroke:#181818;stroke-width:1.0;stroke-dasharray:2.0,2.0;" x1="1250.7969" x2="1436.1309" y1="535.3281" y2="535.3281"/><text fill="#000000" font-family="sans-serif" font-size="20" lengthAdjust="spacing" textLength="162.334" x="1262.7969" y="528.9336">return patient data</text><polygon fill="#181818" points="737.9668,570.4844,727.9668,574.4844,737.9668,578.4844,733.9668,574.4844" style="stroke:#181818;stroke-width:1.0;"/><line style="stroke:#181818;stroke-width:1.0;stroke-dasharray:2.0,2.0;" x1="731.9668" x2="1239.7969" y1="574.4844" y2="574.4844"/><text fill="#000000" font-family="sans-serif" font-size="20" lengthAdjust="spacing" textLength="291.2891" x="743.9668" y="568.0898">session created with patient data</text><polygon fill="#181818" points="518.2637,609.6406,508.2637,613.6406,518.2637,617.6406,514.2637,613.6406" style="stroke:#181818;stroke-width:1.0;"/><line style="stroke:#181818;stroke-width:1.0;stroke-dasharray:2.0,2.0;" x1="512.2637" x2="720.9668" y1="613.6406" y2="613.6406"/><text fill="#000000" font-family="sans-serif" font-size="20" lengthAdjust="spacing" textLength="185.7031" x="524.2637" y="607.2461">patient authenticated</text><polygon fill="#181818" points="55.1328,648.7969,45.1328,652.7969,55.1328,656.7969,51.1328,652.7969" style="stroke:#181818;stroke-width:1.0;"/><line style="stroke:#181818;stroke-width:1.0;stroke-dasharray:2.0,2.0;" x1="49.1328" x2="501.2637" y1="652.7969" y2="652.7969"/><text fill="#000000" font-family="sans-serif" font-size="20" lengthAdjust="spacing" textLength="429.1309" x="61.1328" y="646.4023">show patient dashboard (appointments, records)</text><!--SRC=[bLJHYjim47ptLonvIg5tj8LIC4UWN5i8t44vDn-WsXjRH96Cj4bw_Vgk5CcMVMwF-ithcTdLpChk87Klh3WgKn-mWGRtugJecz5KoTy87zuLBa7WQBIfEskE26HFc7tfHNqGBLRqh10irYHqgtA0wqHZBbAti1VAOL6G98RkAlXu-_xs4zp0Tq4IDS63QQM6dVFOhxy8hHOAjfyVYqBKP2oi8d05mYLImKr8rh8NBB0A2hjj0EosS7VNMtICOgpHcyq2-9wFQurIQ0Ff_iVJ0zD4tojPBx9udWhjMTOO2FpAU7UjpB4LEiSIZqApGzS6iVHtJZnNtcDQUfNwXBrnaWrxpjbZTIBWhPLdGJWOMW0_APARZVUnP9s30pAWGaId494_UcsnOPpaP0DlKDjjhqB-OGNM2TQM8BLaE65mV_rc00rCZnkvWSLitup7E57dst4qkExZZDaC2t9XVo1xlD8WU1PADXusFyW4FKvlaKvMWuifaZcW7l0DBdTDPqZPbxuRe-BxEgWiZ1w_J-P96YmtMuiIzaXr5wjV18dCtOdkbFXFpBWr4zYizJXCjcKbj4YnF9la9NZfE5UlbnKog_zlqaaCCSsqIBm8ufKkSy-6ECOLIRjnpRY1YwHkkKKcdwAUxKowVecUxtzJp3J6Y-CltEYedwapbsm6r_qqmZQmvl-SaPgEN7Pl_T_Rs2PUeaoOx_8V]--></g></svg>