<svg xmlns="http://www.w3.org/2000/svg" xmlns:xlink="http://www.w3.org/1999/xlink" contentStyleType="text/css" height="1208px" preserveAspectRatio="none" style="width:1263px;height:1208px;background:#FFFFFF;" version="1.1" viewBox="0 0 1263 1208" width="1263px" zoomAndPan="magnify"><title>Class Diagram - As an Admin, I want to create a new staff profile, so that I can add them to the hospital&#8217;s roster.</title><defs/><g><text fill="#000000" font-family="sans-serif" font-size="14" font-weight="bold" lengthAdjust="spacing" textLength="742.1504" x="253.9121" y="24.5332">Class Diagram - As an Admin, I want to create a new staff profile, so that I can add them to the hospital&#8217;s roster.</text><!--class Admin--><g id="elem_Admin"><rect codeLine="8" fill="#F1F1F1" height="51.1563" id="Admin" rx="2.5" ry="2.5" style="stroke:#181818;stroke-width:0.5;" width="90.6895" x="542" y="347.6094"/><ellipse cx="558" cy="365.1875" fill="#C2C2C2" rx="12" ry="12" style="stroke:#181818;stroke-width:1.0;"/><path d="M560.1406,360.1094 Q560.3281,359.8594 560.5469,359.7344 Q560.7656,359.5938 561.0156,359.5938 Q561.4531,359.5938 561.7344,359.9063 Q562.0156,360.2031 562.0156,360.9219 L562.0156,362.625 Q562.0156,363.3438 561.7344,363.6563 Q561.4531,363.9688 561.0156,363.9688 Q560.625,363.9688 560.375,363.7344 Q560.125,363.5156 560.0156,362.9063 Q559.9531,362.4844 559.7344,362.2656 Q559.3438,361.8281 558.625,361.5625 Q557.9063,361.2969 557.1875,361.2969 Q556.2813,361.2969 555.5313,361.6875 Q554.7813,362.0781 554.2031,362.9688 Q553.625,363.8438 553.625,365.0469 L553.625,366.3438 Q553.625,367.7969 554.6719,368.7656 Q555.7344,369.7344 557.5938,369.7344 Q558.7031,369.7344 559.4844,369.4219 Q559.9219,369.25 560.4375,368.7344 Q560.75,368.4219 560.9219,368.3281 Q561.0938,368.2344 561.3281,368.2344 Q561.7188,368.2344 562.0156,368.5469 Q562.3281,368.8438 562.3281,369.25 Q562.3281,369.6563 561.9219,370.125 Q561.3281,370.8125 560.3906,371.2031 Q559.125,371.7344 557.6094,371.7344 Q555.8281,371.7344 554.4063,371 Q553.25,370.4063 552.4375,369.1406 Q551.625,367.875 551.625,366.3906 L551.625,365.0313 Q551.625,363.4688 552.3438,362.125 Q553.0781,360.7656 554.3594,360.0313 Q555.6563,359.2969 557.1094,359.2969 Q557.9688,359.2969 558.7188,359.5 Q559.4844,359.7031 560.1406,360.1094 Z " fill="#000000"/><text fill="#000000" font-family="sans-serif" font-size="20" lengthAdjust="spacing" textLength="56.6895" x="573" y="373.3711">Admin</text><line style="stroke:#181818;stroke-width:0.5;" x1="543" x2="631.6895" y1="382.7656" y2="382.7656"/><line style="stroke:#181818;stroke-width:0.5;" x1="543" x2="631.6895" y1="390.7656" y2="390.7656"/></g><!--class User--><g id="elem_User"><rect codeLine="12" fill="#F1F1F1" height="151.7813" id="User" rx="2.5" ry="2.5" style="stroke:#181818;stroke-width:0.5;" width="182.6152" x="668" y="297.1094"/><ellipse cx="733.6943" cy="314.6875" fill="#C2C2C2" rx="12" ry="12" style="stroke:#181818;stroke-width:1.0;"/><path d="M735.835,309.6094 Q736.0225,309.3594 736.2412,309.2344 Q736.46,309.0938 736.71,309.0938 Q737.1475,309.0938 737.4287,309.4063 Q737.71,309.7031 737.71,310.4219 L737.71,312.125 Q737.71,312.8438 737.4287,313.1563 Q737.1475,313.4688 736.71,313.4688 Q736.3193,313.4688 736.0693,313.2344 Q735.8193,313.0156 735.71,312.4063 Q735.6475,311.9844 735.4287,311.7656 Q735.0381,311.3281 734.3193,311.0625 Q733.6006,310.7969 732.8818,310.7969 Q731.9756,310.7969 731.2256,311.1875 Q730.4756,311.5781 729.8975,312.4688 Q729.3193,313.3438 729.3193,314.5469 L729.3193,315.8438 Q729.3193,317.2969 730.3662,318.2656 Q731.4287,319.2344 733.2881,319.2344 Q734.3975,319.2344 735.1787,318.9219 Q735.6162,318.75 736.1318,318.2344 Q736.4443,317.9219 736.6162,317.8281 Q736.7881,317.7344 737.0225,317.7344 Q737.4131,317.7344 737.71,318.0469 Q738.0225,318.3438 738.0225,318.75 Q738.0225,319.1563 737.6162,319.625 Q737.0225,320.3125 736.085,320.7031 Q734.8193,321.2344 733.3037,321.2344 Q731.5225,321.2344 730.1006,320.5 Q728.9443,319.9063 728.1318,318.6406 Q727.3193,317.375 727.3193,315.8906 L727.3193,314.5313 Q727.3193,312.9688 728.0381,311.625 Q728.7725,310.2656 730.0537,309.5313 Q731.3506,308.7969 732.8037,308.7969 Q733.6631,308.7969 734.4131,309 Q735.1787,309.2031 735.835,309.6094 Z " fill="#000000"/><text fill="#000000" font-family="sans-serif" font-size="20" lengthAdjust="spacing" textLength="42.2266" x="755.6943" y="322.8711">User</text><line style="stroke:#181818;stroke-width:0.5;" x1="669" x2="849.6152" y1="332.2656" y2="332.2656"/><ellipse cx="679" cy="350.3438" fill="none" rx="3" ry="3" style="stroke:#545454;stroke-width:1.0;"/><text fill="#000000" font-family="sans-serif" font-size="20" lengthAdjust="spacing" textLength="68.9258" x="689" y="357.0273">ID: long</text><ellipse cx="679" cy="375.5" fill="none" rx="3" ry="3" style="stroke:#545454;stroke-width:1.0;"/><text fill="#000000" font-family="sans-serif" font-size="20" lengthAdjust="spacing" textLength="155.6152" x="689" y="382.1836">Username: String</text><ellipse cx="679" cy="400.6563" fill="none" rx="3" ry="3" style="stroke:#545454;stroke-width:1.0;"/><text fill="#000000" font-family="sans-serif" font-size="20" lengthAdjust="spacing" textLength="104.4922" x="689" y="407.3398">Role: String</text><ellipse cx="679" cy="425.8125" fill="none" rx="3" ry="3" style="stroke:#545454;stroke-width:1.0;"/><text fill="#000000" font-family="sans-serif" font-size="20" lengthAdjust="spacing" textLength="113.3691" x="689" y="432.4961">Email: String</text><line style="stroke:#181818;stroke-width:0.5;" x1="669" x2="849.6152" y1="440.8906" y2="440.8906"/></g><!--class Slots--><g id="elem_Slots"><rect codeLine="18" fill="#F1F1F1" height="126.625" id="Slots" rx="2.5" ry="2.5" style="stroke:#181818;stroke-width:0.5;" width="192.6348" x="826" y="45.6094"/><ellipse cx="895.5859" cy="63.1875" fill="#C2C2C2" rx="12" ry="12" style="stroke:#181818;stroke-width:1.0;"/><path d="M897.7266,58.1094 Q897.9141,57.8594 898.1328,57.7344 Q898.3516,57.5938 898.6016,57.5938 Q899.0391,57.5938 899.3203,57.9063 Q899.6016,58.2031 899.6016,58.9219 L899.6016,60.625 Q899.6016,61.3438 899.3203,61.6563 Q899.0391,61.9688 898.6016,61.9688 Q898.2109,61.9688 897.9609,61.7344 Q897.7109,61.5156 897.6016,60.9063 Q897.5391,60.4844 897.3203,60.2656 Q896.9297,59.8281 896.2109,59.5625 Q895.4922,59.2969 894.7734,59.2969 Q893.8672,59.2969 893.1172,59.6875 Q892.3672,60.0781 891.7891,60.9688 Q891.2109,61.8438 891.2109,63.0469 L891.2109,64.3438 Q891.2109,65.7969 892.2578,66.7656 Q893.3203,67.7344 895.1797,67.7344 Q896.2891,67.7344 897.0703,67.4219 Q897.5078,67.25 898.0234,66.7344 Q898.3359,66.4219 898.5078,66.3281 Q898.6797,66.2344 898.9141,66.2344 Q899.3047,66.2344 899.6016,66.5469 Q899.9141,66.8438 899.9141,67.25 Q899.9141,67.6563 899.5078,68.125 Q898.9141,68.8125 897.9766,69.2031 Q896.7109,69.7344 895.1953,69.7344 Q893.4141,69.7344 891.9922,69 Q890.8359,68.4063 890.0234,67.1406 Q889.2109,65.875 889.2109,64.3906 L889.2109,63.0313 Q889.2109,61.4688 889.9297,60.125 Q890.6641,58.7656 891.9453,58.0313 Q893.2422,57.2969 894.6953,57.2969 Q895.5547,57.2969 896.3047,57.5 Q897.0703,57.7031 897.7266,58.1094 Z " fill="#000000"/><text fill="#000000" font-family="sans-serif" font-size="20" lengthAdjust="spacing" textLength="44.4629" x="917.5859" y="71.3711">Slots</text><line style="stroke:#181818;stroke-width:0.5;" x1="827" x2="1017.6348" y1="80.7656" y2="80.7656"/><ellipse cx="837" cy="98.8438" fill="none" rx="3" ry="3" style="stroke:#545454;stroke-width:1.0;"/><text fill="#000000" font-family="sans-serif" font-size="20" lengthAdjust="spacing" textLength="95.6055" x="847" y="105.5273">Date: Date</text><ellipse cx="837" cy="124" fill="none" rx="3" ry="3" style="stroke:#545454;stroke-width:1.0;"/><text fill="#000000" font-family="sans-serif" font-size="20" lengthAdjust="spacing" textLength="165.6348" x="847" y="130.6836">StartingHour: Date</text><ellipse cx="837" cy="149.1563" fill="none" rx="3" ry="3" style="stroke:#545454;stroke-width:1.0;"/><text fill="#000000" font-family="sans-serif" font-size="20" lengthAdjust="spacing" textLength="132.2949" x="847" y="155.8398">EndHour: Date</text><line style="stroke:#181818;stroke-width:0.5;" x1="827" x2="1017.6348" y1="164.2344" y2="164.2344"/></g><!--class Staff--><g id="elem_Staff"><rect codeLine="24" fill="#F1F1F1" height="227.25" id="Staff" rx="2.5" ry="2.5" style="stroke:#181818;stroke-width:0.5;" width="304.8809" x="886" y="259.6094"/><ellipse cx="1013.374" cy="277.1875" fill="#C2C2C2" rx="12" ry="12" style="stroke:#181818;stroke-width:1.0;"/><path d="M1015.5146,272.1094 Q1015.7021,271.8594 1015.9209,271.7344 Q1016.1396,271.5938 1016.3896,271.5938 Q1016.8271,271.5938 1017.1084,271.9063 Q1017.3896,272.2031 1017.3896,272.9219 L1017.3896,274.625 Q1017.3896,275.3438 1017.1084,275.6563 Q1016.8271,275.9688 1016.3896,275.9688 Q1015.999,275.9688 1015.749,275.7344 Q1015.499,275.5156 1015.3896,274.9063 Q1015.3271,274.4844 1015.1084,274.2656 Q1014.7178,273.8281 1013.999,273.5625 Q1013.2803,273.2969 1012.5615,273.2969 Q1011.6553,273.2969 1010.9053,273.6875 Q1010.1553,274.0781 1009.5771,274.9688 Q1008.999,275.8438 1008.999,277.0469 L1008.999,278.3438 Q1008.999,279.7969 1010.0459,280.7656 Q1011.1084,281.7344 1012.9678,281.7344 Q1014.0771,281.7344 1014.8584,281.4219 Q1015.2959,281.25 1015.8115,280.7344 Q1016.124,280.4219 1016.2959,280.3281 Q1016.4678,280.2344 1016.7021,280.2344 Q1017.0928,280.2344 1017.3896,280.5469 Q1017.7021,280.8438 1017.7021,281.25 Q1017.7021,281.6563 1017.2959,282.125 Q1016.7021,282.8125 1015.7646,283.2031 Q1014.499,283.7344 1012.9834,283.7344 Q1011.2021,283.7344 1009.7803,283 Q1008.624,282.4063 1007.8115,281.1406 Q1006.999,279.875 1006.999,278.3906 L1006.999,277.0313 Q1006.999,275.4688 1007.7178,274.125 Q1008.4521,272.7656 1009.7334,272.0313 Q1011.0303,271.2969 1012.4834,271.2969 Q1013.3428,271.2969 1014.0928,271.5 Q1014.8584,271.7031 1015.5146,272.1094 Z " fill="#000000"/><text fill="#000000" font-family="sans-serif" font-size="20" lengthAdjust="spacing" textLength="41.1328" x="1035.374" y="285.3711">Staff</text><line style="stroke:#181818;stroke-width:0.5;" x1="887" x2="1189.8809" y1="294.7656" y2="294.7656"/><ellipse cx="897" cy="312.8438" fill="none" rx="3" ry="3" style="stroke:#545454;stroke-width:1.0;"/><text fill="#000000" font-family="sans-serif" font-size="20" lengthAdjust="spacing" textLength="155.5859" x="907" y="319.5273">FirstName: String</text><ellipse cx="897" cy="338" fill="none" rx="3" ry="3" style="stroke:#545454;stroke-width:1.0;"/><text fill="#000000" font-family="sans-serif" font-size="20" lengthAdjust="spacing" textLength="154.5117" x="907" y="344.6836">LastName: String</text><ellipse cx="897" cy="363.1563" fill="none" rx="3" ry="3" style="stroke:#545454;stroke-width:1.0;"/><text fill="#000000" font-family="sans-serif" font-size="20" lengthAdjust="spacing" textLength="148.9355" x="907" y="369.8398">FullName: String</text><ellipse cx="897" cy="388.3125" fill="none" rx="3" ry="3" style="stroke:#545454;stroke-width:1.0;"/><text fill="#000000" font-family="sans-serif" font-size="20" lengthAdjust="spacing" textLength="161.2012" x="907" y="394.9961">PhoneNumber: int</text><ellipse cx="897" cy="413.4688" fill="none" rx="3" ry="3" style="stroke:#545454;stroke-width:1.0;"/><text fill="#000000" font-family="sans-serif" font-size="20" lengthAdjust="spacing" textLength="194.5215" x="907" y="420.1523">AvailabilitySlots: Slots</text><line style="stroke:#181818;stroke-width:0.5;" x1="887" x2="1189.8809" y1="428.5469" y2="428.5469"/><ellipse cx="897" cy="446.625" fill="#A6A6A6" rx="3" ry="3" style="stroke:#545454;stroke-width:1.0;"/><text fill="#000000" font-family="sans-serif" font-size="20" lengthAdjust="spacing" textLength="222.3145" x="907" y="453.3086">LicenseNumber(ID): long</text><ellipse cx="897" cy="471.7813" fill="#A6A6A6" rx="3" ry="3" style="stroke:#545454;stroke-width:1.0;"/><text fill="#000000" font-family="sans-serif" font-size="20" lengthAdjust="spacing" textLength="277.8809" x="907" y="478.4648">ContactInformation(ID-FK):long</text></g><!--class ContactInformation--><g id="elem_ContactInformation"><rect codeLine="35" fill="#F1F1F1" height="126.625" id="ContactInformation" rx="2.5" ry="2.5" style="stroke:#181818;stroke-width:0.5;" width="202.9746" x="1054" y="45.6094"/><ellipse cx="1070" cy="63.1875" fill="#C2C2C2" rx="12" ry="12" style="stroke:#181818;stroke-width:1.0;"/><path d="M1072.1406,58.1094 Q1072.3281,57.8594 1072.5469,57.7344 Q1072.7656,57.5938 1073.0156,57.5938 Q1073.4531,57.5938 1073.7344,57.9063 Q1074.0156,58.2031 1074.0156,58.9219 L1074.0156,60.625 Q1074.0156,61.3438 1073.7344,61.6563 Q1073.4531,61.9688 1073.0156,61.9688 Q1072.625,61.9688 1072.375,61.7344 Q1072.125,61.5156 1072.0156,60.9063 Q1071.9531,60.4844 1071.7344,60.2656 Q1071.3438,59.8281 1070.625,59.5625 Q1069.9063,59.2969 1069.1875,59.2969 Q1068.2813,59.2969 1067.5313,59.6875 Q1066.7813,60.0781 1066.2031,60.9688 Q1065.625,61.8438 1065.625,63.0469 L1065.625,64.3438 Q1065.625,65.7969 1066.6719,66.7656 Q1067.7344,67.7344 1069.5938,67.7344 Q1070.7031,67.7344 1071.4844,67.4219 Q1071.9219,67.25 1072.4375,66.7344 Q1072.75,66.4219 1072.9219,66.3281 Q1073.0938,66.2344 1073.3281,66.2344 Q1073.7188,66.2344 1074.0156,66.5469 Q1074.3281,66.8438 1074.3281,67.25 Q1074.3281,67.6563 1073.9219,68.125 Q1073.3281,68.8125 1072.3906,69.2031 Q1071.125,69.7344 1069.6094,69.7344 Q1067.8281,69.7344 1066.4063,69 Q1065.25,68.4063 1064.4375,67.1406 Q1063.625,65.875 1063.625,64.3906 L1063.625,63.0313 Q1063.625,61.4688 1064.3438,60.125 Q1065.0781,58.7656 1066.3594,58.0313 Q1067.6563,57.2969 1069.1094,57.2969 Q1069.9688,57.2969 1070.7188,57.5 Q1071.4844,57.7031 1072.1406,58.1094 Z " fill="#000000"/><text fill="#000000" font-family="sans-serif" font-size="20" lengthAdjust="spacing" textLength="168.9746" x="1085" y="71.3711">ContactInformation</text><line style="stroke:#181818;stroke-width:0.5;" x1="1055" x2="1255.9746" y1="80.7656" y2="80.7656"/><ellipse cx="1065" cy="98.8438" fill="none" rx="3" ry="3" style="stroke:#545454;stroke-width:1.0;"/><text fill="#000000" font-family="sans-serif" font-size="20" lengthAdjust="spacing" textLength="63.3691" x="1075" y="105.5273">ID:long</text><ellipse cx="1065" cy="124" fill="none" rx="3" ry="3" style="stroke:#545454;stroke-width:1.0;"/><text fill="#000000" font-family="sans-serif" font-size="20" lengthAdjust="spacing" textLength="113.3691" x="1075" y="130.6836">Email: String</text><ellipse cx="1065" cy="149.1563" fill="none" rx="3" ry="3" style="stroke:#545454;stroke-width:1.0;"/><text fill="#000000" font-family="sans-serif" font-size="20" lengthAdjust="spacing" textLength="161.2012" x="1075" y="155.8398">PhoneNumber: int</text><line style="stroke:#181818;stroke-width:0.5;" x1="1055" x2="1255.9746" y1="164.2344" y2="164.2344"/></g><!--class SessionManager--><g id="elem_SessionManager"><rect codeLine="40" fill="#F1F1F1" height="101.4688" id="SessionManager" rx="2.5" ry="2.5" style="stroke:#181818;stroke-width:0.5;" width="562.8203" x="7" y="704.6094"/><ellipse cx="208.8662" cy="722.1875" fill="#C2C2C2" rx="12" ry="12" style="stroke:#181818;stroke-width:1.0;"/><path d="M211.0068,717.1094 Q211.1943,716.8594 211.4131,716.7344 Q211.6318,716.5938 211.8818,716.5938 Q212.3193,716.5938 212.6006,716.9063 Q212.8818,717.2031 212.8818,717.9219 L212.8818,719.625 Q212.8818,720.3438 212.6006,720.6563 Q212.3193,720.9688 211.8818,720.9688 Q211.4912,720.9688 211.2412,720.7344 Q210.9912,720.5156 210.8818,719.9063 Q210.8193,719.4844 210.6006,719.2656 Q210.21,718.8281 209.4912,718.5625 Q208.7725,718.2969 208.0537,718.2969 Q207.1475,718.2969 206.3975,718.6875 Q205.6475,719.0781 205.0693,719.9688 Q204.4912,720.8438 204.4912,722.0469 L204.4912,723.3438 Q204.4912,724.7969 205.5381,725.7656 Q206.6006,726.7344 208.46,726.7344 Q209.5693,726.7344 210.3506,726.4219 Q210.7881,726.25 211.3037,725.7344 Q211.6162,725.4219 211.7881,725.3281 Q211.96,725.2344 212.1943,725.2344 Q212.585,725.2344 212.8818,725.5469 Q213.1943,725.8438 213.1943,726.25 Q213.1943,726.6563 212.7881,727.125 Q212.1943,727.8125 211.2568,728.2031 Q209.9912,728.7344 208.4756,728.7344 Q206.6943,728.7344 205.2725,728 Q204.1162,727.4063 203.3037,726.1406 Q202.4912,724.875 202.4912,723.3906 L202.4912,722.0313 Q202.4912,720.4688 203.21,719.125 Q203.9443,717.7656 205.2256,717.0313 Q206.5225,716.2969 207.9756,716.2969 Q208.835,716.2969 209.585,716.5 Q210.3506,716.7031 211.0068,717.1094 Z " fill="#000000"/><text fill="#000000" font-family="sans-serif" font-size="20" lengthAdjust="spacing" textLength="150.0879" x="230.8662" y="730.3711">SessionManager</text><line style="stroke:#181818;stroke-width:0.5;" x1="8" x2="568.8203" y1="739.7656" y2="739.7656"/><line style="stroke:#181818;stroke-width:0.5;" x1="8" x2="568.8203" y1="747.7656" y2="747.7656"/><ellipse cx="18" cy="765.8438" fill="#A6A6A6" rx="3" ry="3" style="stroke:#545454;stroke-width:1.0;"/><text fill="#000000" font-family="sans-serif" font-size="20" lengthAdjust="spacing" textLength="535.8203" x="28" y="772.5273">CreateSession(SessionToken token, Admin admin): Session</text><ellipse cx="18" cy="791" fill="#A6A6A6" rx="3" ry="3" style="stroke:#545454;stroke-width:1.0;"/><text fill="#000000" font-family="sans-serif" font-size="20" lengthAdjust="spacing" textLength="217.8906" x="28" y="797.6836">InvalidateSession(): void</text></g><!--class Session--><g id="elem_Session"><rect codeLine="45" fill="#F1F1F1" height="151.7813" id="Session" rx="2.5" ry="2.5" style="stroke:#181818;stroke-width:0.5;" width="214.8516" x="291" y="1049.6094"/><ellipse cx="358.3496" cy="1067.1875" fill="#C2C2C2" rx="12" ry="12" style="stroke:#181818;stroke-width:1.0;"/><path d="M360.4902,1062.1094 Q360.6777,1061.8594 360.8965,1061.7344 Q361.1152,1061.5938 361.3652,1061.5938 Q361.8027,1061.5938 362.084,1061.9063 Q362.3652,1062.2031 362.3652,1062.9219 L362.3652,1064.625 Q362.3652,1065.3438 362.084,1065.6563 Q361.8027,1065.9688 361.3652,1065.9688 Q360.9746,1065.9688 360.7246,1065.7344 Q360.4746,1065.5156 360.3652,1064.9063 Q360.3027,1064.4844 360.084,1064.2656 Q359.6934,1063.8281 358.9746,1063.5625 Q358.2559,1063.2969 357.5371,1063.2969 Q356.6309,1063.2969 355.8809,1063.6875 Q355.1309,1064.0781 354.5527,1064.9688 Q353.9746,1065.8438 353.9746,1067.0469 L353.9746,1068.3438 Q353.9746,1069.7969 355.0215,1070.7656 Q356.084,1071.7344 357.9434,1071.7344 Q359.0527,1071.7344 359.834,1071.4219 Q360.2715,1071.25 360.7871,1070.7344 Q361.0996,1070.4219 361.2715,1070.3281 Q361.4434,1070.2344 361.6777,1070.2344 Q362.0684,1070.2344 362.3652,1070.5469 Q362.6777,1070.8438 362.6777,1071.25 Q362.6777,1071.6563 362.2715,1072.125 Q361.6777,1072.8125 360.7402,1073.2031 Q359.4746,1073.7344 357.959,1073.7344 Q356.1777,1073.7344 354.7559,1073 Q353.5996,1072.4063 352.7871,1071.1406 Q351.9746,1069.875 351.9746,1068.3906 L351.9746,1067.0313 Q351.9746,1065.4688 352.6934,1064.125 Q353.4277,1062.7656 354.709,1062.0313 Q356.0059,1061.2969 357.459,1061.2969 Q358.3184,1061.2969 359.0684,1061.5 Q359.834,1061.7031 360.4902,1062.1094 Z " fill="#000000"/><text fill="#000000" font-family="sans-serif" font-size="20" lengthAdjust="spacing" textLength="71.1523" x="380.3496" y="1075.3711">Session</text><line style="stroke:#181818;stroke-width:0.5;" x1="292" x2="504.8516" y1="1084.7656" y2="1084.7656"/><ellipse cx="302" cy="1102.8438" fill="none" rx="3" ry="3" style="stroke:#545454;stroke-width:1.0;"/><text fill="#000000" font-family="sans-serif" font-size="20" lengthAdjust="spacing" textLength="151.1719" x="312" y="1109.5273">SessionID: string</text><ellipse cx="302" cy="1128" fill="none" rx="3" ry="3" style="stroke:#545454;stroke-width:1.0;"/><text fill="#000000" font-family="sans-serif" font-size="20" lengthAdjust="spacing" textLength="124.4922" x="312" y="1134.6836">Admin: Admin</text><ellipse cx="302" cy="1153.1563" fill="none" rx="3" ry="3" style="stroke:#545454;stroke-width:1.0;"/><text fill="#000000" font-family="sans-serif" font-size="20" lengthAdjust="spacing" textLength="187.8516" x="312" y="1159.8398">CreatedAt: DateTime</text><ellipse cx="302" cy="1178.3125" fill="none" rx="3" ry="3" style="stroke:#545454;stroke-width:1.0;"/><text fill="#000000" font-family="sans-serif" font-size="20" lengthAdjust="spacing" textLength="183.3887" x="312" y="1184.9961">ExpiresAt: DateTime</text><line style="stroke:#181818;stroke-width:0.5;" x1="292" x2="504.8516" y1="1193.3906" y2="1193.3906"/></g><!--class IAMService--><g id="elem_IAMService"><rect codeLine="51" fill="#F1F1F1" height="76.3125" id="IAMService" rx="2.5" ry="2.5" style="stroke:#181818;stroke-width:0.5;" width="528.3574" x="344.5" y="586.1094"/><ellipse cx="553.0557" cy="603.6875" fill="#C2C2C2" rx="12" ry="12" style="stroke:#181818;stroke-width:1.0;"/><path d="M555.1963,598.6094 Q555.3838,598.3594 555.6025,598.2344 Q555.8213,598.0938 556.0713,598.0938 Q556.5088,598.0938 556.79,598.4063 Q557.0713,598.7031 557.0713,599.4219 L557.0713,601.125 Q557.0713,601.8438 556.79,602.1563 Q556.5088,602.4688 556.0713,602.4688 Q555.6807,602.4688 555.4307,602.2344 Q555.1807,602.0156 555.0713,601.4063 Q555.0088,600.9844 554.79,600.7656 Q554.3994,600.3281 553.6807,600.0625 Q552.9619,599.7969 552.2432,599.7969 Q551.3369,599.7969 550.5869,600.1875 Q549.8369,600.5781 549.2588,601.4688 Q548.6807,602.3438 548.6807,603.5469 L548.6807,604.8438 Q548.6807,606.2969 549.7275,607.2656 Q550.79,608.2344 552.6494,608.2344 Q553.7588,608.2344 554.54,607.9219 Q554.9775,607.75 555.4932,607.2344 Q555.8057,606.9219 555.9775,606.8281 Q556.1494,606.7344 556.3838,606.7344 Q556.7744,606.7344 557.0713,607.0469 Q557.3838,607.3438 557.3838,607.75 Q557.3838,608.1563 556.9775,608.625 Q556.3838,609.3125 555.4463,609.7031 Q554.1807,610.2344 552.665,610.2344 Q550.8838,610.2344 549.4619,609.5 Q548.3057,608.9063 547.4932,607.6406 Q546.6807,606.375 546.6807,604.8906 L546.6807,603.5313 Q546.6807,601.9688 547.3994,600.625 Q548.1338,599.2656 549.415,598.5313 Q550.7119,597.7969 552.165,597.7969 Q553.0244,597.7969 553.7744,598 Q554.54,598.2031 555.1963,598.6094 Z " fill="#000000"/><text fill="#000000" font-family="sans-serif" font-size="20" lengthAdjust="spacing" textLength="102.2461" x="575.0557" y="611.8711">IAMService</text><line style="stroke:#181818;stroke-width:0.5;" x1="345.5" x2="871.8574" y1="621.2656" y2="621.2656"/><line style="stroke:#181818;stroke-width:0.5;" x1="345.5" x2="871.8574" y1="629.2656" y2="629.2656"/><ellipse cx="355.5" cy="647.3438" fill="#A6A6A6" rx="3" ry="3" style="stroke:#545454;stroke-width:1.0;"/><text fill="#000000" font-family="sans-serif" font-size="20" lengthAdjust="spacing" textLength="501.3574" x="365.5" y="654.0273">Authenticate(IAMCredentials credentials): SessionToken</text></g><!--class SessionToken--><g id="elem_SessionToken"><rect codeLine="57" fill="#F1F1F1" height="126.625" id="SessionToken" rx="2.5" ry="2.5" style="stroke:#181818;stroke-width:0.5;" width="213.7383" x="447.5" y="835.6094"/><ellipse cx="487.35" cy="853.1875" fill="#C2C2C2" rx="12" ry="12" style="stroke:#181818;stroke-width:1.0;"/><path d="M489.4906,848.1094 Q489.6781,847.8594 489.8969,847.7344 Q490.1156,847.5938 490.3656,847.5938 Q490.8031,847.5938 491.0844,847.9063 Q491.3656,848.2031 491.3656,848.9219 L491.3656,850.625 Q491.3656,851.3438 491.0844,851.6563 Q490.8031,851.9688 490.3656,851.9688 Q489.975,851.9688 489.725,851.7344 Q489.475,851.5156 489.3656,850.9063 Q489.3031,850.4844 489.0844,850.2656 Q488.6938,849.8281 487.975,849.5625 Q487.2563,849.2969 486.5375,849.2969 Q485.6313,849.2969 484.8813,849.6875 Q484.1313,850.0781 483.5531,850.9688 Q482.975,851.8438 482.975,853.0469 L482.975,854.3438 Q482.975,855.7969 484.0219,856.7656 Q485.0844,857.7344 486.9438,857.7344 Q488.0531,857.7344 488.8344,857.4219 Q489.2719,857.25 489.7875,856.7344 Q490.1,856.4219 490.2719,856.3281 Q490.4438,856.2344 490.6781,856.2344 Q491.0688,856.2344 491.3656,856.5469 Q491.6781,856.8438 491.6781,857.25 Q491.6781,857.6563 491.2719,858.125 Q490.6781,858.8125 489.7406,859.2031 Q488.475,859.7344 486.9594,859.7344 Q485.1781,859.7344 483.7563,859 Q482.6,858.4063 481.7875,857.1406 Q480.975,855.875 480.975,854.3906 L480.975,853.0313 Q480.975,851.4688 481.6938,850.125 Q482.4281,848.7656 483.7094,848.0313 Q485.0063,847.2969 486.4594,847.2969 Q487.3188,847.2969 488.0688,847.5 Q488.8344,847.7031 489.4906,848.1094 Z " fill="#000000"/><text fill="#000000" font-family="sans-serif" font-size="20" lengthAdjust="spacing" textLength="126.7383" x="507.65" y="861.3711">SessionToken</text><line style="stroke:#181818;stroke-width:0.5;" x1="448.5" x2="660.2383" y1="870.7656" y2="870.7656"/><ellipse cx="458.5" cy="888.8438" fill="none" rx="3" ry="3" style="stroke:#545454;stroke-width:1.0;"/><text fill="#000000" font-family="sans-serif" font-size="20" lengthAdjust="spacing" textLength="115.6055" x="468.5" y="895.5273">Token: string</text><ellipse cx="458.5" cy="914" fill="none" rx="3" ry="3" style="stroke:#545454;stroke-width:1.0;"/><text fill="#000000" font-family="sans-serif" font-size="20" lengthAdjust="spacing" textLength="186.7383" x="468.5" y="920.6836">Expiration: DateTime</text><line style="stroke:#181818;stroke-width:0.5;" x1="448.5" x2="660.2383" y1="929.0781" y2="929.0781"/><ellipse cx="458.5" cy="947.1563" fill="#A6A6A6" rx="3" ry="3" style="stroke:#545454;stroke-width:1.0;"/><text fill="#000000" font-family="sans-serif" font-size="20" lengthAdjust="spacing" textLength="122.2754" x="468.5" y="953.8398">IsValid(): bool</text></g><!--class StaffController--><g id="elem_StaffController"><rect codeLine="63" fill="#F1F1F1" height="101.4688" id="StaffController" rx="2.5" ry="2.5" style="stroke:#181818;stroke-width:0.5;" width="231.5313" x="916.5" y="573.6094"/><ellipse cx="963.8646" cy="591.1875" fill="#C2C2C2" rx="12" ry="12" style="stroke:#181818;stroke-width:1.0;"/><path d="M966.0053,586.1094 Q966.1928,585.8594 966.4115,585.7344 Q966.6303,585.5938 966.8803,585.5938 Q967.3178,585.5938 967.599,585.9063 Q967.8803,586.2031 967.8803,586.9219 L967.8803,588.625 Q967.8803,589.3438 967.599,589.6563 Q967.3178,589.9688 966.8803,589.9688 Q966.4896,589.9688 966.2396,589.7344 Q965.9896,589.5156 965.8803,588.9063 Q965.8178,588.4844 965.599,588.2656 Q965.2084,587.8281 964.4896,587.5625 Q963.7709,587.2969 963.0521,587.2969 Q962.1459,587.2969 961.3959,587.6875 Q960.6459,588.0781 960.0678,588.9688 Q959.4896,589.8438 959.4896,591.0469 L959.4896,592.3438 Q959.4896,593.7969 960.5365,594.7656 Q961.599,595.7344 963.4584,595.7344 Q964.5678,595.7344 965.349,595.4219 Q965.7865,595.25 966.3021,594.7344 Q966.6146,594.4219 966.7865,594.3281 Q966.9584,594.2344 967.1928,594.2344 Q967.5834,594.2344 967.8803,594.5469 Q968.1928,594.8438 968.1928,595.25 Q968.1928,595.6563 967.7865,596.125 Q967.1928,596.8125 966.2553,597.2031 Q964.9896,597.7344 963.474,597.7344 Q961.6928,597.7344 960.2709,597 Q959.1146,596.4063 958.3021,595.1406 Q957.4896,593.875 957.4896,592.3906 L957.4896,591.0313 Q957.4896,589.4688 958.2084,588.125 Q958.9428,586.7656 960.224,586.0313 Q961.5209,585.2969 962.974,585.2969 Q963.8334,585.2969 964.5834,585.5 Q965.349,585.7031 966.0053,586.1094 Z " fill="#000000"/><text fill="#000000" font-family="sans-serif" font-size="20" lengthAdjust="spacing" textLength="127.832" x="985.8346" y="599.3711">StaffController</text><line style="stroke:#181818;stroke-width:0.5;" x1="917.5" x2="1147.0313" y1="608.7656" y2="608.7656"/><line style="stroke:#181818;stroke-width:0.5;" x1="917.5" x2="1147.0313" y1="616.7656" y2="616.7656"/><ellipse cx="927.5" cy="634.8438" fill="#A6A6A6" rx="3" ry="3" style="stroke:#545454;stroke-width:1.0;"/><text fill="#000000" font-family="sans-serif" font-size="20" lengthAdjust="spacing" textLength="204.5313" x="937.5" y="641.5273">FetchStaffbyID(long id)</text><ellipse cx="927.5" cy="660" fill="#A6A6A6" rx="3" ry="3" style="stroke:#545454;stroke-width:1.0;"/><text fill="#000000" font-family="sans-serif" font-size="20" lengthAdjust="spacing" textLength="196.7676" x="937.5" y="666.6836">deleteStaff(Staff Staff)</text></g><!--class StaffService--><g id="elem_StaffService"><rect codeLine="68" fill="#F1F1F1" height="101.4688" id="StaffService" rx="2.5" ry="2.5" style="stroke:#181818;stroke-width:0.5;" width="283.7773" x="890.5" y="848.6094"/><ellipse cx="973.9775" cy="866.1875" fill="#C2C2C2" rx="12" ry="12" style="stroke:#181818;stroke-width:1.0;"/><path d="M976.1182,861.1094 Q976.3057,860.8594 976.5244,860.7344 Q976.7432,860.5938 976.9932,860.5938 Q977.4307,860.5938 977.7119,860.9063 Q977.9932,861.2031 977.9932,861.9219 L977.9932,863.625 Q977.9932,864.3438 977.7119,864.6563 Q977.4307,864.9688 976.9932,864.9688 Q976.6025,864.9688 976.3525,864.7344 Q976.1025,864.5156 975.9932,863.9063 Q975.9307,863.4844 975.7119,863.2656 Q975.3213,862.8281 974.6025,862.5625 Q973.8838,862.2969 973.165,862.2969 Q972.2588,862.2969 971.5088,862.6875 Q970.7588,863.0781 970.1807,863.9688 Q969.6025,864.8438 969.6025,866.0469 L969.6025,867.3438 Q969.6025,868.7969 970.6494,869.7656 Q971.7119,870.7344 973.5713,870.7344 Q974.6807,870.7344 975.4619,870.4219 Q975.8994,870.25 976.415,869.7344 Q976.7275,869.4219 976.8994,869.3281 Q977.0713,869.2344 977.3057,869.2344 Q977.6963,869.2344 977.9932,869.5469 Q978.3057,869.8438 978.3057,870.25 Q978.3057,870.6563 977.8994,871.125 Q977.3057,871.8125 976.3682,872.2031 Q975.1025,872.7344 973.5869,872.7344 Q971.8057,872.7344 970.3838,872 Q969.2275,871.4063 968.415,870.1406 Q967.6025,868.875 967.6025,867.3906 L967.6025,866.0313 Q967.6025,864.4688 968.3213,863.125 Q969.0557,861.7656 970.3369,861.0313 Q971.6338,860.2969 973.0869,860.2969 Q973.9463,860.2969 974.6963,860.5 Q975.4619,860.7031 976.1182,861.1094 Z " fill="#000000"/><text fill="#000000" font-family="sans-serif" font-size="20" lengthAdjust="spacing" textLength="107.8223" x="995.9775" y="874.3711">StaffService</text><line style="stroke:#181818;stroke-width:0.5;" x1="891.5" x2="1173.2773" y1="883.7656" y2="883.7656"/><line style="stroke:#181818;stroke-width:0.5;" x1="891.5" x2="1173.2773" y1="891.7656" y2="891.7656"/><ellipse cx="901.5" cy="909.8438" fill="#A6A6A6" rx="3" ry="3" style="stroke:#545454;stroke-width:1.0;"/><text fill="#000000" font-family="sans-serif" font-size="20" lengthAdjust="spacing" textLength="256.7773" x="911.5" y="916.5273">FetchStaffbyID(long id): Staff</text><ellipse cx="901.5" cy="935" fill="#A6A6A6" rx="3" ry="3" style="stroke:#545454;stroke-width:1.0;"/><text fill="#000000" font-family="sans-serif" font-size="20" lengthAdjust="spacing" textLength="196.7676" x="911.5" y="941.6836">deleteStaff(Staff Staff)</text></g><!--class StaffRepository--><g id="elem_StaffRepository"><rect codeLine="72" fill="#F1F1F1" height="101.4688" id="StaffRepository" rx="2.5" ry="2.5" style="stroke:#181818;stroke-width:0.5;" width="231.5313" x="916.5" y="1075.1094"/><ellipse cx="959.8612" cy="1092.6875" fill="#C2C2C2" rx="12" ry="12" style="stroke:#181818;stroke-width:1.0;"/><path d="M962.0019,1087.6094 Q962.1894,1087.3594 962.4081,1087.2344 Q962.6269,1087.0938 962.8769,1087.0938 Q963.3144,1087.0938 963.5956,1087.4063 Q963.8769,1087.7031 963.8769,1088.4219 L963.8769,1090.125 Q963.8769,1090.8438 963.5956,1091.1563 Q963.3144,1091.4688 962.8769,1091.4688 Q962.4862,1091.4688 962.2362,1091.2344 Q961.9862,1091.0156 961.8769,1090.4063 Q961.8144,1089.9844 961.5956,1089.7656 Q961.205,1089.3281 960.4862,1089.0625 Q959.7675,1088.7969 959.0487,1088.7969 Q958.1425,1088.7969 957.3925,1089.1875 Q956.6425,1089.5781 956.0644,1090.4688 Q955.4862,1091.3438 955.4862,1092.5469 L955.4862,1093.8438 Q955.4862,1095.2969 956.5331,1096.2656 Q957.5956,1097.2344 959.455,1097.2344 Q960.5644,1097.2344 961.3456,1096.9219 Q961.7831,1096.75 962.2987,1096.2344 Q962.6112,1095.9219 962.7831,1095.8281 Q962.955,1095.7344 963.1894,1095.7344 Q963.58,1095.7344 963.8769,1096.0469 Q964.1894,1096.3438 964.1894,1096.75 Q964.1894,1097.1563 963.7831,1097.625 Q963.1894,1098.3125 962.2519,1098.7031 Q960.9862,1099.2344 959.4706,1099.2344 Q957.6894,1099.2344 956.2675,1098.5 Q955.1112,1097.9063 954.2987,1096.6406 Q953.4862,1095.375 953.4862,1093.8906 L953.4862,1092.5313 Q953.4862,1090.9688 954.205,1089.625 Q954.9394,1088.2656 956.2206,1087.5313 Q957.5175,1086.7969 958.9706,1086.7969 Q959.83,1086.7969 960.58,1087 Q961.3456,1087.2031 962.0019,1087.6094 Z " fill="#000000"/><text fill="#000000" font-family="sans-serif" font-size="20" lengthAdjust="spacing" textLength="136.7285" x="980.9415" y="1100.8711">StaffRepository</text><line style="stroke:#181818;stroke-width:0.5;" x1="917.5" x2="1147.0313" y1="1110.2656" y2="1110.2656"/><line style="stroke:#181818;stroke-width:0.5;" x1="917.5" x2="1147.0313" y1="1118.2656" y2="1118.2656"/><ellipse cx="927.5" cy="1136.3438" fill="#A6A6A6" rx="3" ry="3" style="stroke:#545454;stroke-width:1.0;"/><text fill="#000000" font-family="sans-serif" font-size="20" lengthAdjust="spacing" textLength="204.5313" x="937.5" y="1143.0273">FetchStaffbyID(long id)</text><ellipse cx="927.5" cy="1161.5" fill="#A6A6A6" rx="3" ry="3" style="stroke:#545454;stroke-width:1.0;"/><text fill="#000000" font-family="sans-serif" font-size="20" lengthAdjust="spacing" textLength="196.7676" x="937.5" y="1168.1836">deleteStaff(Staff Staff)</text></g><!--link Slots to Staff--><g id="link_Slots_Staff"><path codeLine="77" d="M950.28,172.8694 C961.78,198.8294 973.0406,224.2632 986.1706,253.9132 " fill="none" id="Slots-to-Staff" style="stroke:#181818;stroke-width:1.0;"/><polygon fill="#181818" points="988.6,259.3994,988.6133,249.5505,986.5755,254.8276,981.2984,252.7898,988.6,259.3994" style="stroke:#181818;stroke-width:1.0;"/><text fill="#000000" font-family="sans-serif" font-size="20" lengthAdjust="spacing" textLength="42.2461" x="975.5" y="224.3711">uses</text></g><!--link ContactInformation to Staff--><g id="link_ContactInformation_Staff"><path codeLine="78" d="M1127.48,172.8694 C1115.88,198.8294 1104.5164,224.2708 1091.2764,253.9208 " fill="none" id="ContactInformation-to-Staff" style="stroke:#181818;stroke-width:1.0;"/><polygon fill="#181818" points="1088.83,259.3994,1096.152,252.8124,1090.8687,254.8339,1088.8472,249.5505,1088.83,259.3994" style="stroke:#181818;stroke-width:1.0;"/><text fill="#000000" font-family="sans-serif" font-size="20" lengthAdjust="spacing" textLength="32.2461" x="1111.5" y="224.3711">has</text></g><!--link Admin to User--><g id="link_Admin_User"><path codeLine="79" d="M633.19,373.1094 C644.7,373.1094 638.21,373.1094 649.73,373.1094 " fill="none" id="Admin-to-User" style="stroke:#181818;stroke-width:1.0;"/><polygon fill="none" points="667.73,373.1094,649.73,367.1094,649.73,379.1094,667.73,373.1094" style="stroke:#181818;stroke-width:1.0;"/></g><!--link Admin to SessionManager--><g id="link_Admin_SessionManager"><path codeLine="80" d="M541.9,395.8994 C482.46,426.7894 379.83,489.0794 326.5,573.6094 C301.64,613.0194 293.2327,659.958 290.2027,698.298 " fill="none" id="Admin-to-SessionManager" style="stroke:#181818;stroke-width:1.0;"/><polygon fill="#181818" points="289.73,704.2794,294.4266,695.6225,290.1239,699.2949,286.4515,694.9922,289.73,704.2794" style="stroke:#181818;stroke-width:1.0;"/><text fill="#000000" font-family="sans-serif" font-size="20" lengthAdjust="spacing" textLength="42.2461" x="371.5" y="538.3711">uses</text></g><!--link IAMService to SessionToken--><g id="link_IAMService_SessionToken"><path codeLine="81" d="M601.16,662.2094 C592.37,706.6794 578.6542,775.9934 568.0642,829.5334 " fill="none" id="IAMService-to-SessionToken" style="stroke:#181818;stroke-width:1.0;"/><polygon fill="#181818" points="566.9,835.4194,572.5703,827.3666,567.8702,830.5144,564.7224,825.8143,566.9,835.4194" style="stroke:#181818;stroke-width:1.0;"/><text fill="#000000" font-family="sans-serif" font-size="20" lengthAdjust="spacing" textLength="62.2461" x="594.5" y="763.3711">returns</text></g><!--link SessionManager to Session--><g id="link_SessionManager_Session"><path codeLine="82" d="M303.34,805.8094 C322.04,868.4794 352.664,971.06 374.384,1043.83 " fill="none" id="SessionManager-to-Session" style="stroke:#181818;stroke-width:1.0;"/><polygon fill="#181818" points="376.1,1049.5794,377.3589,1039.8113,374.67,1044.7882,369.693,1042.0994,376.1,1049.5794" style="stroke:#181818;stroke-width:1.0;"/><text fill="#000000" font-family="sans-serif" font-size="20" lengthAdjust="spacing" textLength="65.5859" x="349.5" y="907.3711">creates</text></g><!--link Admin to IAMService--><g id="link_Admin_IAMService"><path codeLine="83" d="M589.59,398.8994 C593.29,442.8094 600.5261,528.5106 604.8661,580.0006 " fill="none" id="Admin-to-IAMService" style="stroke:#181818;stroke-width:1.0;"/><polygon fill="#181818" points="605.37,585.9794,608.6,576.6752,604.95,580.997,600.6282,577.3471,605.37,585.9794" style="stroke:#181818;stroke-width:1.0;"/><text fill="#000000" font-family="sans-serif" font-size="20" lengthAdjust="spacing" textLength="160.0977" x="603.5" y="538.3711">authenticates with</text></g><!--link Admin to StaffController--><g id="link_Admin_StaffController"><path codeLine="84" d="M594.74,398.6394 C603.65,424.4594 621.29,464.3694 650.5,486.6094 C694.93,520.4294 719.41,499.3094 772.5,516.6094 C822.36,532.8494 870.6648,551.8901 916.3448,571.2301 " fill="none" id="Admin-to-StaffController" style="stroke:#181818;stroke-width:1.0;"/><polygon fill="#181818" points="921.87,573.5694,915.1417,566.377,917.2657,571.62,912.0227,573.744,921.87,573.5694" style="stroke:#181818;stroke-width:1.0;"/><text fill="#000000" font-family="sans-serif" font-size="20" lengthAdjust="spacing" textLength="141.1914" x="846.5" y="538.3711">inserts data into</text></g><!--link StaffController to StaffService--><g id="link_StaffController_StaffService"><path codeLine="85" d="M1032.5,674.8594 C1032.5,724.0794 1032.5,792.9794 1032.5,842.2394 " fill="none" id="StaffController-to-StaffService" style="stroke:#181818;stroke-width:1.0;"/><polygon fill="#181818" points="1032.5,848.2394,1036.5,839.2394,1032.5,843.2394,1028.5,839.2394,1032.5,848.2394" style="stroke:#181818;stroke-width:1.0;"/><text fill="#000000" font-family="sans-serif" font-size="20" lengthAdjust="spacing" textLength="113.3984" x="1033.5" y="763.3711">deletes  staff</text></g><!--link Staff to StaffController--><g id="link_Staff_StaffController"><path codeLine="86" d="M1035.78,486.9494 C1035.05,517.3194 1034.4344,542.6211 1033.8344,567.5411 " fill="none" id="Staff-to-StaffController" style="stroke:#181818;stroke-width:1.0;"/><polygon fill="#181818" points="1033.69,573.5394,1037.9055,564.6383,1033.8104,568.5408,1029.9078,564.4457,1033.69,573.5394" style="stroke:#181818;stroke-width:1.0;"/><text fill="#000000" font-family="sans-serif" font-size="20" lengthAdjust="spacing" textLength="42.2461" x="1036.5" y="538.3711">uses</text></g><!--link StaffService to StaffRepository--><g id="link_StaffService_StaffRepository"><path codeLine="87" d="M1032.5,949.6594 C1032.5,986.8394 1032.5,1031.5494 1032.5,1068.7994 " fill="none" id="StaffService-to-StaffRepository" style="stroke:#181818;stroke-width:1.0;"/><polygon fill="#181818" points="1032.5,1074.7994,1036.5,1065.7994,1032.5,1069.7994,1028.5,1065.7994,1032.5,1074.7994" style="stroke:#181818;stroke-width:1.0;"/><text fill="#000000" font-family="sans-serif" font-size="20" lengthAdjust="spacing" textLength="107.8418" x="1033.5" y="1014.3711">deletes staff</text></g><!--link SessionToken to Session--><g id="link_SessionToken_Session"><path codeLine="88" d="M511.05,962.6494 C492.38,989.4994 473.8454,1016.1932 454.2854,1044.3232 " fill="none" id="SessionToken-to-Session" style="stroke:#181818;stroke-width:1.0;"/><polygon fill="#181818" points="450.86,1049.2494,459.2821,1044.1437,453.7145,1045.1443,452.7139,1039.5766,450.86,1049.2494" style="stroke:#181818;stroke-width:1.0;"/><text fill="#000000" font-family="sans-serif" font-size="20" lengthAdjust="spacing" textLength="63.3496" x="487.5" y="1014.3711">verifies</text></g><!--SRC=[fLJDRjim3BxxANXRWZNjiACF1OAcmOAjnT1qkois4mkLfK2aatLTWRt6NczFCigo4yNjiCDoa4FouyTVYHwqtIglQkEA1ooXnBLg3C-TvQN-Zl3-NVQcOjvIVd6nDSfoKvlpmjKNXL54arAhZJXd6VKyK3lhYigx6e5zWuc5AbMwlRORM2j3c6MisI1S1IQOHIQOm9H0MPYMjRPdi82z10LsK7XKZA30uXw8rNeDM-_Msk0Pa0Ek50kw45TLbY9Y7Rpa2vMZhMPbVl_yHU0TCVhpB6iBY66UikovLtmXz4yPoE_jOfQ3SNOJfM2mgiOSbknrhxrpPg2vhfKs1zLpHxiqZgdZdKaTEOGpoajMdWNymJK-rL_RCb4TCbo6sZkgkVR4jo-o-gHUqyuROrx1wW8juMrJhz2F5hDnMlILx84gU67NpjUAjRE2cCm_ZlCZvdFbREUUWxOSjTETj46jjD7ys1QVnnuahNv9VcpyaVwqdwz7F7GPYOJcHbcrGGyTtLMxEPrjr7tltGDQsH0vp-8MoDx8AULtY2uNkrD6bmc187PEbyb0eg4FrubXUoX9kesHnr1fNkMKuuJlTTqF_jjMUwGJGr_YOdgpHB-JeVNnfeqikMLT27GaPg4jWontB5oQ_l-niBRqaFwWWDYIZhKLJYjeqshdD4nuGLz3aq9hLiwPmQw6ENjdpE5YpP6BgZMj7XUpKPWrw78SZIKQb6O7wwWz8ybuG3fembyeymZ-9tD2V8TRHvgTVuJ_JRTT-CdaCkfpQ0WfUxdrHqIbA6iNPFBZChmtKG0135Ux8qks8G75GURWaHjlAHlu9aW1nNULab09QGugsIw2lUOgJUfql11kewJD179XLBYQBXjW-cAx23d41XB4Dpt2Uz3HBM_BJJrxp75UHwwEAkt6QT4xz7gjXV4F]--></g></svg>