<svg xmlns="http://www.w3.org/2000/svg" xmlns:xlink="http://www.w3.org/1999/xlink" contentStyleType="text/css" height="265px" preserveAspectRatio="none" style="width:397px;height:265px;background:#FFFFFF;" version="1.1" viewBox="0 0 397 265" width="397px" zoomAndPan="magnify"><defs/><g><line style="stroke:#181818;stroke-width:0.5;stroke-dasharray:5.0,5.0;" x1="33" x2="33" y1="45.1563" y2="221.7813"/><line style="stroke:#181818;stroke-width:0.5;stroke-dasharray:5.0,5.0;" x1="365.5498" x2="365.5498" y1="45.1563" y2="221.7813"/><rect fill="#E2E2F0" height="39.1563" rx="2.5" ry="2.5" style="stroke:#181818;stroke-width:0.5;" width="57.3496" x="5" y="5"/><text fill="#000000" font-family="sans-serif" font-size="20" lengthAdjust="spacing" textLength="43.3496" x="12" y="32.7617">Alice</text><rect fill="#E2E2F0" height="39.1563" rx="2.5" ry="2.5" style="stroke:#181818;stroke-width:0.5;" width="57.3496" x="5" y="220.7813"/><text fill="#000000" font-family="sans-serif" font-size="20" lengthAdjust="spacing" textLength="43.3496" x="12" y="248.543">Alice</text><rect fill="#E2E2F0" height="39.1563" rx="2.5" ry="2.5" style="stroke:#181818;stroke-width:0.5;" width="49.5859" x="341.5498" y="5"/><text fill="#000000" font-family="sans-serif" font-size="20" lengthAdjust="spacing" textLength="35.5859" x="348.5498" y="32.7617">Bob</text><rect fill="#E2E2F0" height="39.1563" rx="2.5" ry="2.5" style="stroke:#181818;stroke-width:0.5;" width="49.5859" x="341.5498" y="220.7813"/><text fill="#000000" font-family="sans-serif" font-size="20" lengthAdjust="spacing" textLength="35.5859" x="348.5498" y="248.543">Bob</text><polygon fill="#181818" points="354.3428,82.3125,364.3428,86.3125,354.3428,90.3125,358.3428,86.3125" style="stroke:#181818;stroke-width:1.0;"/><line style="stroke:#181818;stroke-width:1.0;" x1="33.6748" x2="360.3428" y1="86.3125" y2="86.3125"/><text fill="#000000" font-family="sans-serif" font-size="20" font-weight="bold" lengthAdjust="spacing" textLength="11.123" x="40.6748" y="79.918">1</text><text fill="#000000" font-family="sans-serif" font-size="20" lengthAdjust="spacing" textLength="206.8066" x="55.7979" y="79.918">Authentication Request</text><polygon fill="#181818" points="44.6748,121.4688,34.6748,125.4688,44.6748,129.4688,40.6748,125.4688" style="stroke:#181818;stroke-width:1.0;"/><line style="stroke:#181818;stroke-width:1.0;stroke-dasharray:2.0,2.0;" x1="38.6748" x2="365.3428" y1="125.4688" y2="125.4688"/><text fill="#000000" font-family="sans-serif" font-size="20" font-weight="bold" lengthAdjust="spacing" textLength="11.123" x="50.6748" y="119.0742">2</text><text fill="#000000" font-family="sans-serif" font-size="20" lengthAdjust="spacing" textLength="222.373" x="65.7979" y="119.0742">Authentication Response</text><polygon fill="#181818" points="354.3428,160.625,364.3428,164.625,354.3428,168.625,358.3428,164.625" style="stroke:#181818;stroke-width:1.0;"/><line style="stroke:#181818;stroke-width:1.0;" x1="33.6748" x2="360.3428" y1="164.625" y2="164.625"/><text fill="#000000" font-family="sans-serif" font-size="20" font-weight="bold" lengthAdjust="spacing" textLength="11.123" x="40.6748" y="158.2305">3</text><text fill="#000000" font-family="sans-serif" font-size="20" lengthAdjust="spacing" textLength="280.1953" x="55.7979" y="158.2305">Another authentication Request</text><polygon fill="#181818" points="44.6748,199.7813,34.6748,203.7813,44.6748,207.7813,40.6748,203.7813" style="stroke:#181818;stroke-width:1.0;"/><line style="stroke:#181818;stroke-width:1.0;stroke-dasharray:2.0,2.0;" x1="38.6748" x2="365.3428" y1="203.7813" y2="203.7813"/><text fill="#000000" font-family="sans-serif" font-size="20" font-weight="bold" lengthAdjust="spacing" textLength="11.123" x="50.6748" y="197.3867">4</text><text fill="#000000" font-family="sans-serif" font-size="20" lengthAdjust="spacing" textLength="293.5449" x="65.7979" y="197.3867">another authentication Response</text><!--SRC=[TSmn3i8m38NXFQVmnXIA62k4L0OE02TmKqEZ9dRQE0kd9z2HCh_l_Ndod7316CHDDC103on1hy9wzo-2uy7iHjMKswP90LbB37idiSaq5s97Tl3uh7zZiAXmYJqjndJ1Em9xXelqBNH5HsBr3jKBm-rppMhg1hQQBzvGEGbd-ecnLBS0RaTNVB9srVXFh_4t]--></g></svg>