<svg xmlns="http://www.w3.org/2000/svg" xmlns:xlink="http://www.w3.org/1999/xlink" contentStyleType="text/css" height="1183px" preserveAspectRatio="none" style="width:1261px;height:1183px;background:#FFFFFF;" version="1.1" viewBox="0 0 1261 1183" width="1261px" zoomAndPan="magnify"><title>Class Diagram - As an Admin, I want to create a new staff profile, so that I can add them to the hospital&#8217;s roster.</title><defs/><g><text fill="#000000" font-family="sans-serif" font-size="14" font-weight="bold" lengthAdjust="spacing" textLength="742.1504" x="252.9121" y="24.5332">Class Diagram - As an Admin, I want to create a new staff profile, so that I can add them to the hospital&#8217;s roster.</text><!--class Admin--><g id="elem_Admin"><rect codeLine="8" fill="#F1F1F1" height="51.1563" id="Admin" rx="2.5" ry="2.5" style="stroke:#181818;stroke-width:0.5;" width="90.6895" x="540" y="347.6094"/><ellipse cx="556" cy="365.1875" fill="#C2C2C2" rx="12" ry="12" style="stroke:#181818;stroke-width:1.0;"/><path d="M558.1406,360.1094 Q558.3281,359.8594 558.5469,359.7344 Q558.7656,359.5938 559.0156,359.5938 Q559.4531,359.5938 559.7344,359.9063 Q560.0156,360.2031 560.0156,360.9219 L560.0156,362.625 Q560.0156,363.3438 559.7344,363.6563 Q559.4531,363.9688 559.0156,363.9688 Q558.625,363.9688 558.375,363.7344 Q558.125,363.5156 558.0156,362.9063 Q557.9531,362.4844 557.7344,362.2656 Q557.3438,361.8281 556.625,361.5625 Q555.9063,361.2969 555.1875,361.2969 Q554.2813,361.2969 553.5313,361.6875 Q552.7813,362.0781 552.2031,362.9688 Q551.625,363.8438 551.625,365.0469 L551.625,366.3438 Q551.625,367.7969 552.6719,368.7656 Q553.7344,369.7344 555.5938,369.7344 Q556.7031,369.7344 557.4844,369.4219 Q557.9219,369.25 558.4375,368.7344 Q558.75,368.4219 558.9219,368.3281 Q559.0938,368.2344 559.3281,368.2344 Q559.7188,368.2344 560.0156,368.5469 Q560.3281,368.8438 560.3281,369.25 Q560.3281,369.6563 559.9219,370.125 Q559.3281,370.8125 558.3906,371.2031 Q557.125,371.7344 555.6094,371.7344 Q553.8281,371.7344 552.4063,371 Q551.25,370.4063 550.4375,369.1406 Q549.625,367.875 549.625,366.3906 L549.625,365.0313 Q549.625,363.4688 550.3438,362.125 Q551.0781,360.7656 552.3594,360.0313 Q553.6563,359.2969 555.1094,359.2969 Q555.9688,359.2969 556.7188,359.5 Q557.4844,359.7031 558.1406,360.1094 Z " fill="#000000"/><text fill="#000000" font-family="sans-serif" font-size="20" lengthAdjust="spacing" textLength="56.6895" x="571" y="373.3711">Admin</text><line style="stroke:#181818;stroke-width:0.5;" x1="541" x2="629.6895" y1="382.7656" y2="382.7656"/><line style="stroke:#181818;stroke-width:0.5;" x1="541" x2="629.6895" y1="390.7656" y2="390.7656"/></g><!--class User--><g id="elem_User"><rect codeLine="12" fill="#F1F1F1" height="151.7813" id="User" rx="2.5" ry="2.5" style="stroke:#181818;stroke-width:0.5;" width="182.6152" x="666" y="297.1094"/><ellipse cx="731.6943" cy="314.6875" fill="#C2C2C2" rx="12" ry="12" style="stroke:#181818;stroke-width:1.0;"/><path d="M733.835,309.6094 Q734.0225,309.3594 734.2412,309.2344 Q734.46,309.0938 734.71,309.0938 Q735.1475,309.0938 735.4287,309.4063 Q735.71,309.7031 735.71,310.4219 L735.71,312.125 Q735.71,312.8438 735.4287,313.1563 Q735.1475,313.4688 734.71,313.4688 Q734.3193,313.4688 734.0693,313.2344 Q733.8193,313.0156 733.71,312.4063 Q733.6475,311.9844 733.4287,311.7656 Q733.0381,311.3281 732.3193,311.0625 Q731.6006,310.7969 730.8818,310.7969 Q729.9756,310.7969 729.2256,311.1875 Q728.4756,311.5781 727.8975,312.4688 Q727.3193,313.3438 727.3193,314.5469 L727.3193,315.8438 Q727.3193,317.2969 728.3662,318.2656 Q729.4287,319.2344 731.2881,319.2344 Q732.3975,319.2344 733.1787,318.9219 Q733.6162,318.75 734.1318,318.2344 Q734.4443,317.9219 734.6162,317.8281 Q734.7881,317.7344 735.0225,317.7344 Q735.4131,317.7344 735.71,318.0469 Q736.0225,318.3438 736.0225,318.75 Q736.0225,319.1563 735.6162,319.625 Q735.0225,320.3125 734.085,320.7031 Q732.8193,321.2344 731.3037,321.2344 Q729.5225,321.2344 728.1006,320.5 Q726.9443,319.9063 726.1318,318.6406 Q725.3193,317.375 725.3193,315.8906 L725.3193,314.5313 Q725.3193,312.9688 726.0381,311.625 Q726.7725,310.2656 728.0537,309.5313 Q729.3506,308.7969 730.8037,308.7969 Q731.6631,308.7969 732.4131,309 Q733.1787,309.2031 733.835,309.6094 Z " fill="#000000"/><text fill="#000000" font-family="sans-serif" font-size="20" lengthAdjust="spacing" textLength="42.2266" x="753.6943" y="322.8711">User</text><line style="stroke:#181818;stroke-width:0.5;" x1="667" x2="847.6152" y1="332.2656" y2="332.2656"/><ellipse cx="677" cy="350.3438" fill="none" rx="3" ry="3" style="stroke:#545454;stroke-width:1.0;"/><text fill="#000000" font-family="sans-serif" font-size="20" lengthAdjust="spacing" textLength="68.9258" x="687" y="357.0273">ID: long</text><ellipse cx="677" cy="375.5" fill="none" rx="3" ry="3" style="stroke:#545454;stroke-width:1.0;"/><text fill="#000000" font-family="sans-serif" font-size="20" lengthAdjust="spacing" textLength="155.6152" x="687" y="382.1836">Username: String</text><ellipse cx="677" cy="400.6563" fill="none" rx="3" ry="3" style="stroke:#545454;stroke-width:1.0;"/><text fill="#000000" font-family="sans-serif" font-size="20" lengthAdjust="spacing" textLength="104.4922" x="687" y="407.3398">Role: String</text><ellipse cx="677" cy="425.8125" fill="none" rx="3" ry="3" style="stroke:#545454;stroke-width:1.0;"/><text fill="#000000" font-family="sans-serif" font-size="20" lengthAdjust="spacing" textLength="113.3691" x="687" y="432.4961">Email: String</text><line style="stroke:#181818;stroke-width:0.5;" x1="667" x2="847.6152" y1="440.8906" y2="440.8906"/></g><!--class Slots--><g id="elem_Slots"><rect codeLine="18" fill="#F1F1F1" height="126.625" id="Slots" rx="2.5" ry="2.5" style="stroke:#181818;stroke-width:0.5;" width="192.6348" x="824" y="45.6094"/><ellipse cx="893.5859" cy="63.1875" fill="#C2C2C2" rx="12" ry="12" style="stroke:#181818;stroke-width:1.0;"/><path d="M895.7266,58.1094 Q895.9141,57.8594 896.1328,57.7344 Q896.3516,57.5938 896.6016,57.5938 Q897.0391,57.5938 897.3203,57.9063 Q897.6016,58.2031 897.6016,58.9219 L897.6016,60.625 Q897.6016,61.3438 897.3203,61.6563 Q897.0391,61.9688 896.6016,61.9688 Q896.2109,61.9688 895.9609,61.7344 Q895.7109,61.5156 895.6016,60.9063 Q895.5391,60.4844 895.3203,60.2656 Q894.9297,59.8281 894.2109,59.5625 Q893.4922,59.2969 892.7734,59.2969 Q891.8672,59.2969 891.1172,59.6875 Q890.3672,60.0781 889.7891,60.9688 Q889.2109,61.8438 889.2109,63.0469 L889.2109,64.3438 Q889.2109,65.7969 890.2578,66.7656 Q891.3203,67.7344 893.1797,67.7344 Q894.2891,67.7344 895.0703,67.4219 Q895.5078,67.25 896.0234,66.7344 Q896.3359,66.4219 896.5078,66.3281 Q896.6797,66.2344 896.9141,66.2344 Q897.3047,66.2344 897.6016,66.5469 Q897.9141,66.8438 897.9141,67.25 Q897.9141,67.6563 897.5078,68.125 Q896.9141,68.8125 895.9766,69.2031 Q894.7109,69.7344 893.1953,69.7344 Q891.4141,69.7344 889.9922,69 Q888.8359,68.4063 888.0234,67.1406 Q887.2109,65.875 887.2109,64.3906 L887.2109,63.0313 Q887.2109,61.4688 887.9297,60.125 Q888.6641,58.7656 889.9453,58.0313 Q891.2422,57.2969 892.6953,57.2969 Q893.5547,57.2969 894.3047,57.5 Q895.0703,57.7031 895.7266,58.1094 Z " fill="#000000"/><text fill="#000000" font-family="sans-serif" font-size="20" lengthAdjust="spacing" textLength="44.4629" x="915.5859" y="71.3711">Slots</text><line style="stroke:#181818;stroke-width:0.5;" x1="825" x2="1015.6348" y1="80.7656" y2="80.7656"/><ellipse cx="835" cy="98.8438" fill="none" rx="3" ry="3" style="stroke:#545454;stroke-width:1.0;"/><text fill="#000000" font-family="sans-serif" font-size="20" lengthAdjust="spacing" textLength="95.6055" x="845" y="105.5273">Date: Date</text><ellipse cx="835" cy="124" fill="none" rx="3" ry="3" style="stroke:#545454;stroke-width:1.0;"/><text fill="#000000" font-family="sans-serif" font-size="20" lengthAdjust="spacing" textLength="165.6348" x="845" y="130.6836">StartingHour: Date</text><ellipse cx="835" cy="149.1563" fill="none" rx="3" ry="3" style="stroke:#545454;stroke-width:1.0;"/><text fill="#000000" font-family="sans-serif" font-size="20" lengthAdjust="spacing" textLength="132.2949" x="845" y="155.8398">EndHour: Date</text><line style="stroke:#181818;stroke-width:0.5;" x1="825" x2="1015.6348" y1="164.2344" y2="164.2344"/></g><!--class Staff--><g id="elem_Staff"><rect codeLine="24" fill="#F1F1F1" height="227.25" id="Staff" rx="2.5" ry="2.5" style="stroke:#181818;stroke-width:0.5;" width="304.8809" x="884" y="259.6094"/><ellipse cx="1011.374" cy="277.1875" fill="#C2C2C2" rx="12" ry="12" style="stroke:#181818;stroke-width:1.0;"/><path d="M1013.5146,272.1094 Q1013.7021,271.8594 1013.9209,271.7344 Q1014.1396,271.5938 1014.3896,271.5938 Q1014.8271,271.5938 1015.1084,271.9063 Q1015.3896,272.2031 1015.3896,272.9219 L1015.3896,274.625 Q1015.3896,275.3438 1015.1084,275.6563 Q1014.8271,275.9688 1014.3896,275.9688 Q1013.999,275.9688 1013.749,275.7344 Q1013.499,275.5156 1013.3896,274.9063 Q1013.3271,274.4844 1013.1084,274.2656 Q1012.7178,273.8281 1011.999,273.5625 Q1011.2803,273.2969 1010.5615,273.2969 Q1009.6553,273.2969 1008.9053,273.6875 Q1008.1553,274.0781 1007.5771,274.9688 Q1006.999,275.8438 1006.999,277.0469 L1006.999,278.3438 Q1006.999,279.7969 1008.0459,280.7656 Q1009.1084,281.7344 1010.9678,281.7344 Q1012.0771,281.7344 1012.8584,281.4219 Q1013.2959,281.25 1013.8115,280.7344 Q1014.124,280.4219 1014.2959,280.3281 Q1014.4678,280.2344 1014.7021,280.2344 Q1015.0928,280.2344 1015.3896,280.5469 Q1015.7021,280.8438 1015.7021,281.25 Q1015.7021,281.6563 1015.2959,282.125 Q1014.7021,282.8125 1013.7646,283.2031 Q1012.499,283.7344 1010.9834,283.7344 Q1009.2021,283.7344 1007.7803,283 Q1006.624,282.4063 1005.8115,281.1406 Q1004.999,279.875 1004.999,278.3906 L1004.999,277.0313 Q1004.999,275.4688 1005.7178,274.125 Q1006.4521,272.7656 1007.7334,272.0313 Q1009.0303,271.2969 1010.4834,271.2969 Q1011.3428,271.2969 1012.0928,271.5 Q1012.8584,271.7031 1013.5146,272.1094 Z " fill="#000000"/><text fill="#000000" font-family="sans-serif" font-size="20" lengthAdjust="spacing" textLength="41.1328" x="1033.374" y="285.3711">Staff</text><line style="stroke:#181818;stroke-width:0.5;" x1="885" x2="1187.8809" y1="294.7656" y2="294.7656"/><ellipse cx="895" cy="312.8438" fill="none" rx="3" ry="3" style="stroke:#545454;stroke-width:1.0;"/><text fill="#000000" font-family="sans-serif" font-size="20" lengthAdjust="spacing" textLength="155.5859" x="905" y="319.5273">FirstName: String</text><ellipse cx="895" cy="338" fill="none" rx="3" ry="3" style="stroke:#545454;stroke-width:1.0;"/><text fill="#000000" font-family="sans-serif" font-size="20" lengthAdjust="spacing" textLength="154.5117" x="905" y="344.6836">LastName: String</text><ellipse cx="895" cy="363.1563" fill="none" rx="3" ry="3" style="stroke:#545454;stroke-width:1.0;"/><text fill="#000000" font-family="sans-serif" font-size="20" lengthAdjust="spacing" textLength="148.9355" x="905" y="369.8398">FullName: String</text><ellipse cx="895" cy="388.3125" fill="none" rx="3" ry="3" style="stroke:#545454;stroke-width:1.0;"/><text fill="#000000" font-family="sans-serif" font-size="20" lengthAdjust="spacing" textLength="161.2012" x="905" y="394.9961">PhoneNumber: int</text><ellipse cx="895" cy="413.4688" fill="none" rx="3" ry="3" style="stroke:#545454;stroke-width:1.0;"/><text fill="#000000" font-family="sans-serif" font-size="20" lengthAdjust="spacing" textLength="194.5215" x="905" y="420.1523">AvailabilitySlots: Slots</text><line style="stroke:#181818;stroke-width:0.5;" x1="885" x2="1187.8809" y1="428.5469" y2="428.5469"/><ellipse cx="895" cy="446.625" fill="#A6A6A6" rx="3" ry="3" style="stroke:#545454;stroke-width:1.0;"/><text fill="#000000" font-family="sans-serif" font-size="20" lengthAdjust="spacing" textLength="222.3145" x="905" y="453.3086">LicenseNumber(ID): long</text><ellipse cx="895" cy="471.7813" fill="#A6A6A6" rx="3" ry="3" style="stroke:#545454;stroke-width:1.0;"/><text fill="#000000" font-family="sans-serif" font-size="20" lengthAdjust="spacing" textLength="277.8809" x="905" y="478.4648">ContactInformation(ID-FK):long</text></g><!--class ContactInformation--><g id="elem_ContactInformation"><rect codeLine="35" fill="#F1F1F1" height="126.625" id="ContactInformation" rx="2.5" ry="2.5" style="stroke:#181818;stroke-width:0.5;" width="202.9746" x="1052" y="45.6094"/><ellipse cx="1068" cy="63.1875" fill="#C2C2C2" rx="12" ry="12" style="stroke:#181818;stroke-width:1.0;"/><path d="M1070.1406,58.1094 Q1070.3281,57.8594 1070.5469,57.7344 Q1070.7656,57.5938 1071.0156,57.5938 Q1071.4531,57.5938 1071.7344,57.9063 Q1072.0156,58.2031 1072.0156,58.9219 L1072.0156,60.625 Q1072.0156,61.3438 1071.7344,61.6563 Q1071.4531,61.9688 1071.0156,61.9688 Q1070.625,61.9688 1070.375,61.7344 Q1070.125,61.5156 1070.0156,60.9063 Q1069.9531,60.4844 1069.7344,60.2656 Q1069.3438,59.8281 1068.625,59.5625 Q1067.9063,59.2969 1067.1875,59.2969 Q1066.2813,59.2969 1065.5313,59.6875 Q1064.7813,60.0781 1064.2031,60.9688 Q1063.625,61.8438 1063.625,63.0469 L1063.625,64.3438 Q1063.625,65.7969 1064.6719,66.7656 Q1065.7344,67.7344 1067.5938,67.7344 Q1068.7031,67.7344 1069.4844,67.4219 Q1069.9219,67.25 1070.4375,66.7344 Q1070.75,66.4219 1070.9219,66.3281 Q1071.0938,66.2344 1071.3281,66.2344 Q1071.7188,66.2344 1072.0156,66.5469 Q1072.3281,66.8438 1072.3281,67.25 Q1072.3281,67.6563 1071.9219,68.125 Q1071.3281,68.8125 1070.3906,69.2031 Q1069.125,69.7344 1067.6094,69.7344 Q1065.8281,69.7344 1064.4063,69 Q1063.25,68.4063 1062.4375,67.1406 Q1061.625,65.875 1061.625,64.3906 L1061.625,63.0313 Q1061.625,61.4688 1062.3438,60.125 Q1063.0781,58.7656 1064.3594,58.0313 Q1065.6563,57.2969 1067.1094,57.2969 Q1067.9688,57.2969 1068.7188,57.5 Q1069.4844,57.7031 1070.1406,58.1094 Z " fill="#000000"/><text fill="#000000" font-family="sans-serif" font-size="20" lengthAdjust="spacing" textLength="168.9746" x="1083" y="71.3711">ContactInformation</text><line style="stroke:#181818;stroke-width:0.5;" x1="1053" x2="1253.9746" y1="80.7656" y2="80.7656"/><ellipse cx="1063" cy="98.8438" fill="none" rx="3" ry="3" style="stroke:#545454;stroke-width:1.0;"/><text fill="#000000" font-family="sans-serif" font-size="20" lengthAdjust="spacing" textLength="63.3691" x="1073" y="105.5273">ID:long</text><ellipse cx="1063" cy="124" fill="none" rx="3" ry="3" style="stroke:#545454;stroke-width:1.0;"/><text fill="#000000" font-family="sans-serif" font-size="20" lengthAdjust="spacing" textLength="113.3691" x="1073" y="130.6836">Email: String</text><ellipse cx="1063" cy="149.1563" fill="none" rx="3" ry="3" style="stroke:#545454;stroke-width:1.0;"/><text fill="#000000" font-family="sans-serif" font-size="20" lengthAdjust="spacing" textLength="161.2012" x="1073" y="155.8398">PhoneNumber: int</text><line style="stroke:#181818;stroke-width:0.5;" x1="1053" x2="1253.9746" y1="164.2344" y2="164.2344"/></g><!--class SessionManager--><g id="elem_SessionManager"><rect codeLine="40" fill="#F1F1F1" height="101.4688" id="SessionManager" rx="2.5" ry="2.5" style="stroke:#181818;stroke-width:0.5;" width="562.8203" x="7" y="679.6094"/><ellipse cx="208.8662" cy="697.1875" fill="#C2C2C2" rx="12" ry="12" style="stroke:#181818;stroke-width:1.0;"/><path d="M211.0068,692.1094 Q211.1943,691.8594 211.4131,691.7344 Q211.6318,691.5938 211.8818,691.5938 Q212.3193,691.5938 212.6006,691.9063 Q212.8818,692.2031 212.8818,692.9219 L212.8818,694.625 Q212.8818,695.3438 212.6006,695.6563 Q212.3193,695.9688 211.8818,695.9688 Q211.4912,695.9688 211.2412,695.7344 Q210.9912,695.5156 210.8818,694.9063 Q210.8193,694.4844 210.6006,694.2656 Q210.21,693.8281 209.4912,693.5625 Q208.7725,693.2969 208.0537,693.2969 Q207.1475,693.2969 206.3975,693.6875 Q205.6475,694.0781 205.0693,694.9688 Q204.4912,695.8438 204.4912,697.0469 L204.4912,698.3438 Q204.4912,699.7969 205.5381,700.7656 Q206.6006,701.7344 208.46,701.7344 Q209.5693,701.7344 210.3506,701.4219 Q210.7881,701.25 211.3037,700.7344 Q211.6162,700.4219 211.7881,700.3281 Q211.96,700.2344 212.1943,700.2344 Q212.585,700.2344 212.8818,700.5469 Q213.1943,700.8438 213.1943,701.25 Q213.1943,701.6563 212.7881,702.125 Q212.1943,702.8125 211.2568,703.2031 Q209.9912,703.7344 208.4756,703.7344 Q206.6943,703.7344 205.2725,703 Q204.1162,702.4063 203.3037,701.1406 Q202.4912,699.875 202.4912,698.3906 L202.4912,697.0313 Q202.4912,695.4688 203.21,694.125 Q203.9443,692.7656 205.2256,692.0313 Q206.5225,691.2969 207.9756,691.2969 Q208.835,691.2969 209.585,691.5 Q210.3506,691.7031 211.0068,692.1094 Z " fill="#000000"/><text fill="#000000" font-family="sans-serif" font-size="20" lengthAdjust="spacing" textLength="150.0879" x="230.8662" y="705.3711">SessionManager</text><line style="stroke:#181818;stroke-width:0.5;" x1="8" x2="568.8203" y1="714.7656" y2="714.7656"/><line style="stroke:#181818;stroke-width:0.5;" x1="8" x2="568.8203" y1="722.7656" y2="722.7656"/><ellipse cx="18" cy="740.8438" fill="#A6A6A6" rx="3" ry="3" style="stroke:#545454;stroke-width:1.0;"/><text fill="#000000" font-family="sans-serif" font-size="20" lengthAdjust="spacing" textLength="535.8203" x="28" y="747.5273">CreateSession(SessionToken token, Admin admin): Session</text><ellipse cx="18" cy="766" fill="#A6A6A6" rx="3" ry="3" style="stroke:#545454;stroke-width:1.0;"/><text fill="#000000" font-family="sans-serif" font-size="20" lengthAdjust="spacing" textLength="217.8906" x="28" y="772.6836">InvalidateSession(): void</text></g><!--class Session--><g id="elem_Session"><rect codeLine="45" fill="#F1F1F1" height="151.7813" id="Session" rx="2.5" ry="2.5" style="stroke:#181818;stroke-width:0.5;" width="214.8516" x="291" y="1024.6094"/><ellipse cx="358.3496" cy="1042.1875" fill="#C2C2C2" rx="12" ry="12" style="stroke:#181818;stroke-width:1.0;"/><path d="M360.4902,1037.1094 Q360.6777,1036.8594 360.8965,1036.7344 Q361.1152,1036.5938 361.3652,1036.5938 Q361.8027,1036.5938 362.084,1036.9063 Q362.3652,1037.2031 362.3652,1037.9219 L362.3652,1039.625 Q362.3652,1040.3438 362.084,1040.6563 Q361.8027,1040.9688 361.3652,1040.9688 Q360.9746,1040.9688 360.7246,1040.7344 Q360.4746,1040.5156 360.3652,1039.9063 Q360.3027,1039.4844 360.084,1039.2656 Q359.6934,1038.8281 358.9746,1038.5625 Q358.2559,1038.2969 357.5371,1038.2969 Q356.6309,1038.2969 355.8809,1038.6875 Q355.1309,1039.0781 354.5527,1039.9688 Q353.9746,1040.8438 353.9746,1042.0469 L353.9746,1043.3438 Q353.9746,1044.7969 355.0215,1045.7656 Q356.084,1046.7344 357.9434,1046.7344 Q359.0527,1046.7344 359.834,1046.4219 Q360.2715,1046.25 360.7871,1045.7344 Q361.0996,1045.4219 361.2715,1045.3281 Q361.4434,1045.2344 361.6777,1045.2344 Q362.0684,1045.2344 362.3652,1045.5469 Q362.6777,1045.8438 362.6777,1046.25 Q362.6777,1046.6563 362.2715,1047.125 Q361.6777,1047.8125 360.7402,1048.2031 Q359.4746,1048.7344 357.959,1048.7344 Q356.1777,1048.7344 354.7559,1048 Q353.5996,1047.4063 352.7871,1046.1406 Q351.9746,1044.875 351.9746,1043.3906 L351.9746,1042.0313 Q351.9746,1040.4688 352.6934,1039.125 Q353.4277,1037.7656 354.709,1037.0313 Q356.0059,1036.2969 357.459,1036.2969 Q358.3184,1036.2969 359.0684,1036.5 Q359.834,1036.7031 360.4902,1037.1094 Z " fill="#000000"/><text fill="#000000" font-family="sans-serif" font-size="20" lengthAdjust="spacing" textLength="71.1523" x="380.3496" y="1050.3711">Session</text><line style="stroke:#181818;stroke-width:0.5;" x1="292" x2="504.8516" y1="1059.7656" y2="1059.7656"/><ellipse cx="302" cy="1077.8438" fill="none" rx="3" ry="3" style="stroke:#545454;stroke-width:1.0;"/><text fill="#000000" font-family="sans-serif" font-size="20" lengthAdjust="spacing" textLength="151.1719" x="312" y="1084.5273">SessionID: string</text><ellipse cx="302" cy="1103" fill="none" rx="3" ry="3" style="stroke:#545454;stroke-width:1.0;"/><text fill="#000000" font-family="sans-serif" font-size="20" lengthAdjust="spacing" textLength="124.4922" x="312" y="1109.6836">Admin: Admin</text><ellipse cx="302" cy="1128.1563" fill="none" rx="3" ry="3" style="stroke:#545454;stroke-width:1.0;"/><text fill="#000000" font-family="sans-serif" font-size="20" lengthAdjust="spacing" textLength="187.8516" x="312" y="1134.8398">CreatedAt: DateTime</text><ellipse cx="302" cy="1153.3125" fill="none" rx="3" ry="3" style="stroke:#545454;stroke-width:1.0;"/><text fill="#000000" font-family="sans-serif" font-size="20" lengthAdjust="spacing" textLength="183.3887" x="312" y="1159.9961">ExpiresAt: DateTime</text><line style="stroke:#181818;stroke-width:0.5;" x1="292" x2="504.8516" y1="1168.3906" y2="1168.3906"/></g><!--class IAMService--><g id="elem_IAMService"><rect codeLine="51" fill="#F1F1F1" height="76.3125" id="IAMService" rx="2.5" ry="2.5" style="stroke:#181818;stroke-width:0.5;" width="528.3574" x="344.5" y="573.6094"/><ellipse cx="553.0557" cy="591.1875" fill="#C2C2C2" rx="12" ry="12" style="stroke:#181818;stroke-width:1.0;"/><path d="M555.1963,586.1094 Q555.3838,585.8594 555.6025,585.7344 Q555.8213,585.5938 556.0713,585.5938 Q556.5088,585.5938 556.79,585.9063 Q557.0713,586.2031 557.0713,586.9219 L557.0713,588.625 Q557.0713,589.3438 556.79,589.6563 Q556.5088,589.9688 556.0713,589.9688 Q555.6807,589.9688 555.4307,589.7344 Q555.1807,589.5156 555.0713,588.9063 Q555.0088,588.4844 554.79,588.2656 Q554.3994,587.8281 553.6807,587.5625 Q552.9619,587.2969 552.2432,587.2969 Q551.3369,587.2969 550.5869,587.6875 Q549.8369,588.0781 549.2588,588.9688 Q548.6807,589.8438 548.6807,591.0469 L548.6807,592.3438 Q548.6807,593.7969 549.7275,594.7656 Q550.79,595.7344 552.6494,595.7344 Q553.7588,595.7344 554.54,595.4219 Q554.9775,595.25 555.4932,594.7344 Q555.8057,594.4219 555.9775,594.3281 Q556.1494,594.2344 556.3838,594.2344 Q556.7744,594.2344 557.0713,594.5469 Q557.3838,594.8438 557.3838,595.25 Q557.3838,595.6563 556.9775,596.125 Q556.3838,596.8125 555.4463,597.2031 Q554.1807,597.7344 552.665,597.7344 Q550.8838,597.7344 549.4619,597 Q548.3057,596.4063 547.4932,595.1406 Q546.6807,593.875 546.6807,592.3906 L546.6807,591.0313 Q546.6807,589.4688 547.3994,588.125 Q548.1338,586.7656 549.415,586.0313 Q550.7119,585.2969 552.165,585.2969 Q553.0244,585.2969 553.7744,585.5 Q554.54,585.7031 555.1963,586.1094 Z " fill="#000000"/><text fill="#000000" font-family="sans-serif" font-size="20" lengthAdjust="spacing" textLength="102.2461" x="575.0557" y="599.3711">IAMService</text><line style="stroke:#181818;stroke-width:0.5;" x1="345.5" x2="871.8574" y1="608.7656" y2="608.7656"/><line style="stroke:#181818;stroke-width:0.5;" x1="345.5" x2="871.8574" y1="616.7656" y2="616.7656"/><ellipse cx="355.5" cy="634.8438" fill="#A6A6A6" rx="3" ry="3" style="stroke:#545454;stroke-width:1.0;"/><text fill="#000000" font-family="sans-serif" font-size="20" lengthAdjust="spacing" textLength="501.3574" x="365.5" y="641.5273">Authenticate(IAMCredentials credentials): SessionToken</text></g><!--class SessionToken--><g id="elem_SessionToken"><rect codeLine="56" fill="#F1F1F1" height="126.625" id="SessionToken" rx="2.5" ry="2.5" style="stroke:#181818;stroke-width:0.5;" width="213.7383" x="447.5" y="810.6094"/><ellipse cx="487.35" cy="828.1875" fill="#C2C2C2" rx="12" ry="12" style="stroke:#181818;stroke-width:1.0;"/><path d="M489.4906,823.1094 Q489.6781,822.8594 489.8969,822.7344 Q490.1156,822.5938 490.3656,822.5938 Q490.8031,822.5938 491.0844,822.9063 Q491.3656,823.2031 491.3656,823.9219 L491.3656,825.625 Q491.3656,826.3438 491.0844,826.6563 Q490.8031,826.9688 490.3656,826.9688 Q489.975,826.9688 489.725,826.7344 Q489.475,826.5156 489.3656,825.9063 Q489.3031,825.4844 489.0844,825.2656 Q488.6938,824.8281 487.975,824.5625 Q487.2563,824.2969 486.5375,824.2969 Q485.6313,824.2969 484.8813,824.6875 Q484.1313,825.0781 483.5531,825.9688 Q482.975,826.8438 482.975,828.0469 L482.975,829.3438 Q482.975,830.7969 484.0219,831.7656 Q485.0844,832.7344 486.9438,832.7344 Q488.0531,832.7344 488.8344,832.4219 Q489.2719,832.25 489.7875,831.7344 Q490.1,831.4219 490.2719,831.3281 Q490.4438,831.2344 490.6781,831.2344 Q491.0688,831.2344 491.3656,831.5469 Q491.6781,831.8438 491.6781,832.25 Q491.6781,832.6563 491.2719,833.125 Q490.6781,833.8125 489.7406,834.2031 Q488.475,834.7344 486.9594,834.7344 Q485.1781,834.7344 483.7563,834 Q482.6,833.4063 481.7875,832.1406 Q480.975,830.875 480.975,829.3906 L480.975,828.0313 Q480.975,826.4688 481.6938,825.125 Q482.4281,823.7656 483.7094,823.0313 Q485.0063,822.2969 486.4594,822.2969 Q487.3188,822.2969 488.0688,822.5 Q488.8344,822.7031 489.4906,823.1094 Z " fill="#000000"/><text fill="#000000" font-family="sans-serif" font-size="20" lengthAdjust="spacing" textLength="126.7383" x="507.65" y="836.3711">SessionToken</text><line style="stroke:#181818;stroke-width:0.5;" x1="448.5" x2="660.2383" y1="845.7656" y2="845.7656"/><ellipse cx="458.5" cy="863.8438" fill="none" rx="3" ry="3" style="stroke:#545454;stroke-width:1.0;"/><text fill="#000000" font-family="sans-serif" font-size="20" lengthAdjust="spacing" textLength="115.6055" x="468.5" y="870.5273">Token: string</text><ellipse cx="458.5" cy="889" fill="none" rx="3" ry="3" style="stroke:#545454;stroke-width:1.0;"/><text fill="#000000" font-family="sans-serif" font-size="20" lengthAdjust="spacing" textLength="186.7383" x="468.5" y="895.6836">Expiration: DateTime</text><line style="stroke:#181818;stroke-width:0.5;" x1="448.5" x2="660.2383" y1="904.0781" y2="904.0781"/><ellipse cx="458.5" cy="922.1563" fill="#A6A6A6" rx="3" ry="3" style="stroke:#545454;stroke-width:1.0;"/><text fill="#000000" font-family="sans-serif" font-size="20" lengthAdjust="spacing" textLength="122.2754" x="468.5" y="928.8398">IsValid(): bool</text></g><!--class StaffController--><g id="elem_StaffController"><rect codeLine="62" fill="#F1F1F1" height="76.3125" id="StaffController" rx="2.5" ry="2.5" style="stroke:#181818;stroke-width:0.5;" width="221.5215" x="917.5" y="573.6094"/><ellipse cx="960.3603" cy="591.1875" fill="#C2C2C2" rx="12" ry="12" style="stroke:#181818;stroke-width:1.0;"/><path d="M962.5009,586.1094 Q962.6884,585.8594 962.9071,585.7344 Q963.1259,585.5938 963.3759,585.5938 Q963.8134,585.5938 964.0946,585.9063 Q964.3759,586.2031 964.3759,586.9219 L964.3759,588.625 Q964.3759,589.3438 964.0946,589.6563 Q963.8134,589.9688 963.3759,589.9688 Q962.9853,589.9688 962.7353,589.7344 Q962.4853,589.5156 962.3759,588.9063 Q962.3134,588.4844 962.0946,588.2656 Q961.704,587.8281 960.9853,587.5625 Q960.2665,587.2969 959.5478,587.2969 Q958.6415,587.2969 957.8915,587.6875 Q957.1415,588.0781 956.5634,588.9688 Q955.9853,589.8438 955.9853,591.0469 L955.9853,592.3438 Q955.9853,593.7969 957.0321,594.7656 Q958.0946,595.7344 959.954,595.7344 Q961.0634,595.7344 961.8446,595.4219 Q962.2821,595.25 962.7978,594.7344 Q963.1103,594.4219 963.2821,594.3281 Q963.454,594.2344 963.6884,594.2344 Q964.079,594.2344 964.3759,594.5469 Q964.6884,594.8438 964.6884,595.25 Q964.6884,595.6563 964.2821,596.125 Q963.6884,596.8125 962.7509,597.2031 Q961.4853,597.7344 959.9696,597.7344 Q958.1884,597.7344 956.7665,597 Q955.6103,596.4063 954.7978,595.1406 Q953.9853,593.875 953.9853,592.3906 L953.9853,591.0313 Q953.9853,589.4688 954.704,588.125 Q955.4384,586.7656 956.7196,586.0313 Q958.0165,585.2969 959.4696,585.2969 Q960.329,585.2969 961.079,585.5 Q961.8446,585.7031 962.5009,586.1094 Z " fill="#000000"/><text fill="#000000" font-family="sans-serif" font-size="20" lengthAdjust="spacing" textLength="127.832" x="981.3292" y="599.3711">StaffController</text><line style="stroke:#181818;stroke-width:0.5;" x1="918.5" x2="1138.0215" y1="608.7656" y2="608.7656"/><line style="stroke:#181818;stroke-width:0.5;" x1="918.5" x2="1138.0215" y1="616.7656" y2="616.7656"/><ellipse cx="928.5" cy="634.8438" fill="#A6A6A6" rx="3" ry="3" style="stroke:#545454;stroke-width:1.0;"/><text fill="#000000" font-family="sans-serif" font-size="20" lengthAdjust="spacing" textLength="194.5215" x="938.5" y="641.5273">createStaff(Staff staff)</text></g><!--class StaffService--><g id="elem_StaffService"><rect codeLine="66" fill="#F1F1F1" height="76.3125" id="StaffService" rx="2.5" ry="2.5" style="stroke:#181818;stroke-width:0.5;" width="273.7676" x="891.5" y="836.1094"/><ellipse cx="969.9727" cy="853.6875" fill="#C2C2C2" rx="12" ry="12" style="stroke:#181818;stroke-width:1.0;"/><path d="M972.1133,848.6094 Q972.3008,848.3594 972.5195,848.2344 Q972.7383,848.0938 972.9883,848.0938 Q973.4258,848.0938 973.707,848.4063 Q973.9883,848.7031 973.9883,849.4219 L973.9883,851.125 Q973.9883,851.8438 973.707,852.1563 Q973.4258,852.4688 972.9883,852.4688 Q972.5977,852.4688 972.3477,852.2344 Q972.0977,852.0156 971.9883,851.4063 Q971.9258,850.9844 971.707,850.7656 Q971.3164,850.3281 970.5977,850.0625 Q969.8789,849.7969 969.1602,849.7969 Q968.2539,849.7969 967.5039,850.1875 Q966.7539,850.5781 966.1758,851.4688 Q965.5977,852.3438 965.5977,853.5469 L965.5977,854.8438 Q965.5977,856.2969 966.6445,857.2656 Q967.707,858.2344 969.5664,858.2344 Q970.6758,858.2344 971.457,857.9219 Q971.8945,857.75 972.4102,857.2344 Q972.7227,856.9219 972.8945,856.8281 Q973.0664,856.7344 973.3008,856.7344 Q973.6914,856.7344 973.9883,857.0469 Q974.3008,857.3438 974.3008,857.75 Q974.3008,858.1563 973.8945,858.625 Q973.3008,859.3125 972.3633,859.7031 Q971.0977,860.2344 969.582,860.2344 Q967.8008,860.2344 966.3789,859.5 Q965.2227,858.9063 964.4102,857.6406 Q963.5977,856.375 963.5977,854.8906 L963.5977,853.5313 Q963.5977,851.9688 964.3164,850.625 Q965.0508,849.2656 966.332,848.5313 Q967.6289,847.7969 969.082,847.7969 Q969.9414,847.7969 970.6914,848 Q971.457,848.2031 972.1133,848.6094 Z " fill="#000000"/><text fill="#000000" font-family="sans-serif" font-size="20" lengthAdjust="spacing" textLength="107.8223" x="991.9727" y="861.8711">StaffService</text><line style="stroke:#181818;stroke-width:0.5;" x1="892.5" x2="1164.2676" y1="871.2656" y2="871.2656"/><line style="stroke:#181818;stroke-width:0.5;" x1="892.5" x2="1164.2676" y1="879.2656" y2="879.2656"/><ellipse cx="902.5" cy="897.3438" fill="#A6A6A6" rx="3" ry="3" style="stroke:#545454;stroke-width:1.0;"/><text fill="#000000" font-family="sans-serif" font-size="20" lengthAdjust="spacing" textLength="246.7676" x="912.5" y="904.0273">createStaff(Staff staff): Staff</text></g><!--class StaffRepository--><g id="elem_StaffRepository"><rect codeLine="69" fill="#F1F1F1" height="76.3125" id="StaffRepository" rx="2.5" ry="2.5" style="stroke:#181818;stroke-width:0.5;" width="221.5215" x="917.5" y="1062.6094"/><ellipse cx="956.3568" cy="1080.1875" fill="#C2C2C2" rx="12" ry="12" style="stroke:#181818;stroke-width:1.0;"/><path d="M958.4975,1075.1094 Q958.685,1074.8594 958.9037,1074.7344 Q959.1225,1074.5938 959.3725,1074.5938 Q959.81,1074.5938 960.0912,1074.9063 Q960.3725,1075.2031 960.3725,1075.9219 L960.3725,1077.625 Q960.3725,1078.3438 960.0912,1078.6563 Q959.81,1078.9688 959.3725,1078.9688 Q958.9818,1078.9688 958.7318,1078.7344 Q958.4818,1078.5156 958.3725,1077.9063 Q958.31,1077.4844 958.0912,1077.2656 Q957.7006,1076.8281 956.9818,1076.5625 Q956.2631,1076.2969 955.5443,1076.2969 Q954.6381,1076.2969 953.8881,1076.6875 Q953.1381,1077.0781 952.56,1077.9688 Q951.9818,1078.8438 951.9818,1080.0469 L951.9818,1081.3438 Q951.9818,1082.7969 953.0287,1083.7656 Q954.0912,1084.7344 955.9506,1084.7344 Q957.06,1084.7344 957.8412,1084.4219 Q958.2787,1084.25 958.7943,1083.7344 Q959.1068,1083.4219 959.2787,1083.3281 Q959.4506,1083.2344 959.685,1083.2344 Q960.0756,1083.2344 960.3725,1083.5469 Q960.685,1083.8438 960.685,1084.25 Q960.685,1084.6563 960.2787,1085.125 Q959.685,1085.8125 958.7475,1086.2031 Q957.4818,1086.7344 955.9662,1086.7344 Q954.185,1086.7344 952.7631,1086 Q951.6068,1085.4063 950.7943,1084.1406 Q949.9818,1082.875 949.9818,1081.3906 L949.9818,1080.0313 Q949.9818,1078.4688 950.7006,1077.125 Q951.435,1075.7656 952.7162,1075.0313 Q954.0131,1074.2969 955.4662,1074.2969 Q956.3256,1074.2969 957.0756,1074.5 Q957.8412,1074.7031 958.4975,1075.1094 Z " fill="#000000"/><text fill="#000000" font-family="sans-serif" font-size="20" lengthAdjust="spacing" textLength="136.7285" x="976.4361" y="1088.3711">StaffRepository</text><line style="stroke:#181818;stroke-width:0.5;" x1="918.5" x2="1138.0215" y1="1097.7656" y2="1097.7656"/><line style="stroke:#181818;stroke-width:0.5;" x1="918.5" x2="1138.0215" y1="1105.7656" y2="1105.7656"/><ellipse cx="928.5" cy="1123.8438" fill="#A6A6A6" rx="3" ry="3" style="stroke:#545454;stroke-width:1.0;"/><text fill="#000000" font-family="sans-serif" font-size="20" lengthAdjust="spacing" textLength="194.5215" x="938.5" y="1130.5273">createStaff(Staff staff)</text></g><!--link Slots to Staff--><g id="link_Slots_Staff"><path codeLine="72" d="M948.28,172.8694 C959.78,198.8294 971.0406,224.2632 984.1706,253.9132 " fill="none" id="Slots-to-Staff" style="stroke:#181818;stroke-width:1.0;"/><polygon fill="#181818" points="986.6,259.3994,986.6133,249.5505,984.5755,254.8276,979.2984,252.7898,986.6,259.3994" style="stroke:#181818;stroke-width:1.0;"/><text fill="#000000" font-family="sans-serif" font-size="20" lengthAdjust="spacing" textLength="42.2461" x="973.5" y="224.3711">uses</text></g><!--link ContactInformation to Staff--><g id="link_ContactInformation_Staff"><path codeLine="73" d="M1125.48,172.8694 C1113.88,198.8294 1102.5164,224.2708 1089.2764,253.9208 " fill="none" id="ContactInformation-to-Staff" style="stroke:#181818;stroke-width:1.0;"/><polygon fill="#181818" points="1086.83,259.3994,1094.152,252.8124,1088.8687,254.8339,1086.8472,249.5505,1086.83,259.3994" style="stroke:#181818;stroke-width:1.0;"/><text fill="#000000" font-family="sans-serif" font-size="20" lengthAdjust="spacing" textLength="32.2461" x="1109.5" y="224.3711">has</text></g><!--link Admin to User--><g id="link_Admin_User"><path codeLine="74" d="M631.19,373.1094 C642.7,373.1094 636.21,373.1094 647.73,373.1094 " fill="none" id="Admin-to-User" style="stroke:#181818;stroke-width:1.0;"/><polygon fill="none" points="665.73,373.1094,647.73,367.1094,647.73,379.1094,665.73,373.1094" style="stroke:#181818;stroke-width:1.0;"/></g><!--link Admin to SessionManager--><g id="link_Admin_SessionManager"><path codeLine="75" d="M539.89,396.6594 C481.24,428.0594 380.53,490.6094 326.5,573.6094 C305.88,605.2894 297.2329,641.242 292.9229,673.572 " fill="none" id="Admin-to-SessionManager" style="stroke:#181818;stroke-width:1.0;"/><polygon fill="#181818" points="292.13,679.5194,297.2842,671.1269,292.7907,674.5632,289.3544,670.0697,292.13,679.5194" style="stroke:#181818;stroke-width:1.0;"/><text fill="#000000" font-family="sans-serif" font-size="20" lengthAdjust="spacing" textLength="42.2461" x="371.5" y="538.3711">uses</text></g><!--link IAMService to SessionToken--><g id="link_IAMService_SessionToken"><path codeLine="76" d="M600.82,649.6594 C592.14,691.5194 579.099,754.4745 568.679,804.6945 " fill="none" id="IAMService-to-SessionToken" style="stroke:#181818;stroke-width:1.0;"/><polygon fill="#181818" points="567.46,810.5694,573.205,802.5697,568.4758,805.6736,565.3719,800.9444,567.46,810.5694" style="stroke:#181818;stroke-width:1.0;"/><text fill="#000000" font-family="sans-serif" font-size="20" lengthAdjust="spacing" textLength="62.2461" x="595.5" y="738.3711">returns</text></g><!--link SessionManager to Session--><g id="link_SessionManager_Session"><path codeLine="77" d="M303.34,780.8094 C322.04,843.4794 352.664,946.06 374.384,1018.83 " fill="none" id="SessionManager-to-Session" style="stroke:#181818;stroke-width:1.0;"/><polygon fill="#181818" points="376.1,1024.5794,377.3589,1014.8113,374.67,1019.7882,369.693,1017.0994,376.1,1024.5794" style="stroke:#181818;stroke-width:1.0;"/><text fill="#000000" font-family="sans-serif" font-size="20" lengthAdjust="spacing" textLength="65.5859" x="349.5" y="882.3711">creates</text></g><!--link Admin to IAMService--><g id="link_Admin_IAMService"><path codeLine="78" d="M587.92,398.9694 C591.97,440.5994 599.559,518.6476 604.299,567.3676 " fill="none" id="Admin-to-IAMService" style="stroke:#181818;stroke-width:1.0;"/><polygon fill="#181818" points="604.88,573.3394,607.9897,563.9943,604.3958,568.3629,600.0273,564.769,604.88,573.3394" style="stroke:#181818;stroke-width:1.0;"/><text fill="#000000" font-family="sans-serif" font-size="20" lengthAdjust="spacing" textLength="160.0977" x="603.5" y="538.3711">authenticates with</text></g><!--link Admin to StaffController--><g id="link_Admin_StaffController"><path codeLine="79" d="M592.73,398.6594 C601.62,424.4994 619.25,464.4294 648.5,486.6094 C693.68,520.8694 718.24,500.1394 772.5,516.6094 C827.21,533.2094 881.6566,552.9241 929.8466,571.3741 " fill="none" id="Admin-to-StaffController" style="stroke:#181818;stroke-width:1.0;"/><polygon fill="#181818" points="935.45,573.5194,928.4752,566.5658,930.7805,571.7316,925.6148,574.037,935.45,573.5194" style="stroke:#181818;stroke-width:1.0;"/><text fill="#000000" font-family="sans-serif" font-size="20" lengthAdjust="spacing" textLength="141.1914" x="852.5" y="538.3711">inserts data into</text></g><!--link StaffController to StaffService--><g id="link_StaffController_StaffService"><path codeLine="80" d="M1028.5,649.6594 C1028.5,699.0994 1028.5,780.1794 1028.5,829.7694 " fill="none" id="StaffController-to-StaffService" style="stroke:#181818;stroke-width:1.0;"/><polygon fill="#181818" points="1028.5,835.7694,1032.5,826.7694,1028.5,830.7694,1024.5,826.7694,1028.5,835.7694" style="stroke:#181818;stroke-width:1.0;"/><text fill="#000000" font-family="sans-serif" font-size="20" lengthAdjust="spacing" textLength="141.1816" x="1029.5" y="738.3711">create new staff</text></g><!--link Staff to StaffController--><g id="link_Staff_StaffController"><path codeLine="81" d="M1032.69,486.8194 C1031.63,518.1094 1030.7513,543.9228 1029.9613,567.4528 " fill="none" id="Staff-to-StaffController" style="stroke:#181818;stroke-width:1.0;"/><polygon fill="#181818" points="1029.76,573.4494,1034.0597,564.5887,1029.9278,568.4522,1026.0642,564.3202,1029.76,573.4494" style="stroke:#181818;stroke-width:1.0;"/><text fill="#000000" font-family="sans-serif" font-size="20" lengthAdjust="spacing" textLength="42.2461" x="1033.5" y="538.3711">uses</text></g><!--link StaffService to StaffRepository--><g id="link_StaffService_StaffRepository"><path codeLine="82" d="M1028.5,912.1794 C1028.5,953.7794 1028.5,1014.8594 1028.5,1056.4794 " fill="none" id="StaffService-to-StaffRepository" style="stroke:#181818;stroke-width:1.0;"/><polygon fill="#181818" points="1028.5,1062.4794,1032.5,1053.4794,1028.5,1057.4794,1024.5,1053.4794,1028.5,1062.4794" style="stroke:#181818;stroke-width:1.0;"/><text fill="#000000" font-family="sans-serif" font-size="20" lengthAdjust="spacing" textLength="151.1816" x="1029.5" y="989.3711">creates new staff</text></g><!--link SessionToken to Session--><g id="link_SessionToken_Session"><path codeLine="83" d="M511.05,937.6494 C492.38,964.4994 473.8454,991.1932 454.2854,1019.3232 " fill="none" id="SessionToken-to-Session" style="stroke:#181818;stroke-width:1.0;"/><polygon fill="#181818" points="450.86,1024.2494,459.2821,1019.1437,453.7145,1020.1443,452.7139,1014.5766,450.86,1024.2494" style="stroke:#181818;stroke-width:1.0;"/><text fill="#000000" font-family="sans-serif" font-size="20" lengthAdjust="spacing" textLength="63.3496" x="487.5" y="989.3711">verifies</text></g><!--SRC=[XLJ1Rjim3BthAtXRYZNjiACF1OAcmOAjnT1qkwks70kL9KEaatLTWVt6VczVCigoOyLjiHpia7fyv2CfuuEsZVIoDYv_K0KKgfIjePMpjD4_5Npy8DvLH0rcv-UDaPRQsfpbhZxFZKIS5rfkELW877YWTjRbbNUr0lAjIawmaeNRQxk5KXfKGf0ce-0oCC4oCi4S5WZImgAejJs5DUmvAP23t2j92YHOjGSaMPRGU5Tgequ17L0bYT4vXygYO5FL8OhVK3biD4dpz_SV1E-Gb3yJeXCGqpm9yJmulg7oJmBuztwzpC0ukurMEB2oLXbioEl1U-lCn7DLIsqEhkUUTcCSOS-xP1qPX6UqDoGzCVYJQttglx95uZfKk0dQUwgLzaWtBwhw8b_phbfZNi7gN5bKDsrzh_nilJn9HL_o7iYSrhPqlfQadMN4VFNv91inNojd-_0CjANeNUou3V9U6qsFdVWizY1fzKloiV4Z_N4_NyzuwB92P9fhQULMUUZfBhlDwSzc_VlEFIZB6yBFqxW5l3VyPFazeg_5xgJHHKB0Y9tJHJAGU32awysmFPWKtUN8Oggqhc91SS9tkXu6_wFHNk7HmI1nlRZUAB_ZeGtv5YqlkIMTCtJ6nqnR19llMBWqm_zHM2Szb7zSV-n8JzePnmAwghenJUjTu_VGez2PU-VCP5N3cBqpvd2luatkpcRTCrxdaqdSHEPRKLb4ZpiGh5lLEDJa_2FyFsctb_FvHNHdqA92yN8vHqGbKNHpdF-w29-5Q003fXlOaoL3Iq2nuHbuHQstA2Qn2P91iNvCKYMa6SXa2H3scggqgECnGBWqN3OXy5xBS8ESc606iNs68V_uyOq10smCp3h1QUo06MToK9FIfJqvbhvJNfTQuJy0]--></g></svg>